SplineFontDB: 3.0
FontName: OpenSansCondensed-ExtSuper-Light
FullName: Open Sans Condensed ExtSuper Light
FamilyName: Open Sans Condensed ExtSuper Light
Weight: Light
Copyright: Digitized data copyright (c) 2011, Google Corporation.
Version: 1.10
ItalicAngle: 0
UnderlinePosition: -205
UnderlineWidth: 102
Ascent: 1638
Descent: 410
InvalidEm: 0
sfntRevision: 0x000119db
LayerCount: 2
Layer: 0 1 "Back" 1
Layer: 1 1 "Fore" 0
XUID: [1021 833 1515292409 9009085]
StyleMap: 0x0040
FSType: 0
OS2Version: 3
OS2_WeightWidthSlopeOnly: 0
OS2_UseTypoMetrics: 0
CreationTime: 1294905964
ModificationTime: 1507267611
PfmFamily: 17
TTFWeight: 300
TTFWidth: 3
LineGap: 0
VLineGap: 0
Panose: 2 11 3 6 3 5 4 2 2 4
OS2TypoAscent: 1567
OS2TypoAOffset: 0
OS2TypoDescent: -492
OS2TypoDOffset: 0
OS2TypoLinegap: 132
OS2WinAscent: 2189
OS2WinAOffset: 0
OS2WinDescent: 600
OS2WinDOffset: 0
HheadAscent: 2189
HheadAOffset: 0
HheadDescent: -600
HheadDOffset: 0
OS2SubXSize: 1434
OS2SubYSize: 1331
OS2SubXOff: 0
OS2SubYOff: 287
OS2SupXSize: 1434
OS2SupYSize: 1331
OS2SupXOff: 0
OS2SupYOff: 977
OS2StrikeYSize: 102
OS2StrikeYPos: 512
OS2CapHeight: 1462
OS2XHeight: 1085
OS2FamilyClass: 256
OS2Vendor: '1ASC'
OS2CodePages: 2000019f.00000000
OS2UnicodeRanges: e00002ef.4000205b.00000028.00000000
Lookup: 1 0 0 "'sups' Superscript lookup 0" { "'sups' Superscript lookup 0 subtable" ("superior") } ['sups' ('latn' <'dflt' > 'DFLT' <'dflt' > ) ]
Lookup: 1 0 0 "'ss02' Style Set 2 in Latin lookup 0" { "'ss02' Style Set 2 in Latin lookup 0 subtable"  } ['salt' ('latn' <'MOL ' 'ROM ' 'dflt' > ) 'ss01' ('latn' <'MOL ' 'ROM ' 'dflt' > ) 'ss02' ('latn' <'MOL ' 'ROM ' 'dflt' > ) ]
Lookup: 1 0 0 "'ss03' Style Set 3 in Latin lookup 1" { "'ss03' Style Set 3 in Latin lookup 1 subtable"  } ['salt' ('latn' <'MOL ' 'ROM ' 'dflt' > ) 'ss01' ('latn' <'MOL ' 'ROM ' 'dflt' > ) 'ss03' ('latn' <'MOL ' 'ROM ' 'dflt' > ) ]

StartChar: .notdef
Encoding: 65536 -1 0
Width: 1229
GlyphClass: 2
Flags: W
LayerCount: 2
Fore
SplineSet
195 1462 m 1,0,-1
 1034 1462 l 1,1,-1
 1034 0 l 1,2,-1
 195 0 l 1,3,-1
 195 1462 l 1,0,-1
293 90 m 1,4,-1
 936 90 l 1,5,-1
 936 1372 l 1,6,-1
 293 1372 l 1,7,-1
 293 90 l 1,4,-1
EndSplineSet
EndChar

StartChar: exclam
Encoding: 33 33 4
Width: 451
GlyphClass: 2
Flags: W
LayerCount: 2
Fore
SplineSet
252 367 m 1,0,-1
 197 367 l 1,1,-1
 162 1462 l 1,2,-1
 287 1462 l 1,3,-1
 252 367 l 1,0,-1
147 90 m 0,4,5
 147 197 147 197 225 197 c 0,6,7
 257 197 257 197 280 173 c 128,-1,8
 303 149 303 149 303 90 c 0,9,10
 303 33 303 33 280 8.5 c 128,-1,11
 257 -16 257 -16 225 -16 c 0,12,13
 147 -16 147 -16 147 90 c 0,4,5
EndSplineSet
EndChar

StartChar: quotedbl
Encoding: 34 34 5
Width: 686
GlyphClass: 2
Flags: W
LayerCount: 2
Fore
SplineSet
256 1462 m 1,0,-1
 227 934 l 1,1,-1
 166 934 l 1,2,-1
 133 1462 l 1,3,-1
 256 1462 l 1,0,-1
553 1462 m 1,4,-1
 524 934 l 1,5,-1
 463 934 l 1,6,-1
 430 1462 l 1,7,-1
 553 1462 l 1,4,-1
EndSplineSet
EndChar

StartChar: numbersign
Encoding: 35 35 6
Width: 868
GlyphClass: 2
Flags: W
LayerCount: 2
Fore
SplineSet
653 956 m 1,0,-1
 608 557 l 1,1,-1
 782 557 l 1,2,-1
 782 467 l 1,3,-1
 598 467 l 1,4,-1
 545 0 l 1,5,-1
 463 0 l 1,6,-1
 518 467 l 1,7,-1
 285 467 l 1,8,-1
 231 0 l 1,9,-1
 154 0 l 1,10,-1
 205 467 l 1,11,-1
 37 467 l 1,12,-1
 37 557 l 1,13,-1
 215 557 l 1,14,-1
 260 956 l 1,15,-1
 82 956 l 1,16,-1
 82 1042 l 1,17,-1
 270 1042 l 1,18,-1
 317 1462 l 1,19,-1
 399 1462 l 1,20,-1
 350 1042 l 1,21,-1
 586 1042 l 1,22,-1
 635 1462 l 1,23,-1
 711 1462 l 1,24,-1
 664 1042 l 1,25,-1
 829 1042 l 1,26,-1
 829 956 l 1,27,-1
 653 956 l 1,0,-1
295 557 m 1,28,-1
 528 557 l 1,29,-1
 575 956 l 1,30,-1
 340 956 l 1,31,-1
 295 557 l 1,28,-1
EndSplineSet
EndChar

StartChar: dollar
Encoding: 36 36 7
Width: 819
GlyphClass: 2
Flags: W
LayerCount: 2
Fore
SplineSet
367 123 m 1,0,1
 192 123 192 123 94 176 c 1,2,-1
 94 279 l 1,3,4
 146 249 146 249 220.5 232 c 128,-1,5
 295 215 295 215 367 215 c 1,6,-1
 367 709 l 1,7,8
 219 771 219 771 161.5 848 c 128,-1,9
 104 925 104 925 104 1049 c 0,10,11
 104 1174 104 1174 177.5 1262.5 c 128,-1,12
 251 1351 251 1351 367 1370 c 1,13,-1
 367 1556 l 1,14,-1
 449 1556 l 1,15,-1
 449 1374 l 1,16,17
 589 1370 589 1370 707 1313 c 1,18,-1
 670 1227 l 1,19,20
 553 1281 553 1281 449 1284 c 1,21,-1
 449 776 l 1,22,23
 600 714 600 714 663.5 637 c 128,-1,24
 727 560 727 560 727 444 c 0,25,26
 727 321 727 321 651.5 235.5 c 128,-1,27
 576 150 576 150 449 129 c 1,28,-1
 449 -119 l 1,29,-1
 367 -119 l 1,30,-1
 367 123 l 1,0,1
629 438 m 0,31,32
 629 523 629 523 587.5 579 c 128,-1,33
 546 635 546 635 449 676 c 1,34,-1
 449 223 l 1,35,36
 531 242 531 242 580 301.5 c 128,-1,37
 629 361 629 361 629 438 c 0,31,32
201 1055 m 0,38,39
 201 960 201 960 240.5 905.5 c 128,-1,40
 280 851 280 851 367 809 c 1,41,-1
 367 1278 l 1,42,43
 292 1261 292 1261 246.5 1199.5 c 128,-1,44
 201 1138 201 1138 201 1055 c 0,38,39
EndSplineSet
EndChar

StartChar: percent
Encoding: 37 37 8
Width: 1208
GlyphClass: 2
Flags: W
LayerCount: 2
Fore
SplineSet
184 1028 m 256,0,1
 184 838 184 838 209.5 743.5 c 128,-1,2
 235 649 235 649 297 649 c 0,3,4
 357 649 357 649 383.5 742.5 c 128,-1,5
 410 836 410 836 410 1028 c 0,6,7
 410 1405 410 1405 293 1405 c 0,8,9
 234 1405 234 1405 209 1311.5 c 128,-1,10
 184 1218 184 1218 184 1028 c 256,0,1
500 1026 m 0,11,12
 500 806 500 806 446 685.5 c 128,-1,13
 392 565 392 565 295 565 c 0,14,15
 196 565 196 565 145 685 c 128,-1,16
 94 805 94 805 94 1026 c 256,17,18
 94 1247 94 1247 144.5 1365 c 128,-1,19
 195 1483 195 1483 295 1483 c 256,20,21
 395 1483 395 1483 447.5 1366.5 c 128,-1,22
 500 1250 500 1250 500 1026 c 0,11,12
885 1462 m 1,23,-1
 410 0 l 1,24,-1
 322 0 l 1,25,-1
 797 1462 l 1,26,-1
 885 1462 l 1,23,-1
799 442 m 256,27,28
 799 252 799 252 824 157.5 c 128,-1,29
 849 63 849 63 911 63 c 0,30,31
 971 63 971 63 997.5 156.5 c 128,-1,32
 1024 250 1024 250 1024 442 c 0,33,34
 1024 819 1024 819 907 819 c 0,35,36
 848 819 848 819 823.5 725.5 c 128,-1,37
 799 632 799 632 799 442 c 256,27,28
1114 440 m 0,38,39
 1114 217 1114 217 1060 98.5 c 128,-1,40
 1006 -20 1006 -20 909 -20 c 0,41,42
 811 -20 811 -20 760 101 c 128,-1,43
 709 222 709 222 709 440 c 0,44,45
 709 669 709 669 760.5 783 c 128,-1,46
 812 897 812 897 909 897 c 0,47,48
 1009 897 1009 897 1061.5 780.5 c 128,-1,49
 1114 664 1114 664 1114 440 c 0,38,39
EndSplineSet
EndChar

StartChar: ampersand
Encoding: 38 38 9
Width: 834
GlyphClass: 2
Flags: W
LayerCount: 2
Fore
SplineSet
727 0 m 1,0,-1
 629 178 l 1,1,2
 556 68 556 68 487 24 c 128,-1,3
 418 -20 418 -20 328 -20 c 0,4,5
 206 -20 206 -20 136 79 c 128,-1,6
 66 178 66 178 66 356 c 0,7,8
 66 447 66 447 88 518.5 c 128,-1,9
 110 590 110 590 153 650.5 c 128,-1,10
 196 711 196 711 285 788 c 1,11,12
 211 924 211 924 188.5 1010.5 c 128,-1,13
 166 1097 166 1097 166 1204 c 0,14,15
 166 1336 166 1336 218 1409.5 c 128,-1,16
 270 1483 270 1483 360 1483 c 0,17,18
 451 1483 451 1483 503 1407.5 c 128,-1,19
 555 1332 555 1332 555 1194 c 256,20,21
 555 1056 555 1056 517 959 c 128,-1,22
 479 862 479 862 391 774 c 1,23,-1
 627 352 l 1,24,25
 684 470 684 470 684 645 c 1,26,-1
 778 645 l 1,27,28
 778 551 778 551 749 441 c 128,-1,29
 720 331 720 331 680 260 c 1,30,-1
 836 0 l 1,31,-1
 727 0 l 1,0,-1
162 354 m 0,32,33
 162 219 162 219 209.5 146.5 c 128,-1,34
 257 74 257 74 336 74 c 0,35,36
 408 74 408 74 467 120 c 128,-1,37
 526 166 526 166 580 262 c 1,38,-1
 326 717 l 1,39,40
 231 629 231 629 196.5 549.5 c 128,-1,41
 162 470 162 470 162 354 c 0,32,33
461 1194 m 0,42,43
 461 1393 461 1393 356 1393 c 0,44,45
 310 1393 310 1393 285 1342 c 128,-1,46
 260 1291 260 1291 260 1194 c 0,47,48
 260 1107 260 1107 284.5 1011 c 128,-1,49
 309 915 309 915 348 850 c 1,50,51
 413 916 413 916 437 1002 c 128,-1,52
 461 1088 461 1088 461 1194 c 0,42,43
EndSplineSet
EndChar

StartChar: quotesingle
Encoding: 39 39 10
Width: 389
GlyphClass: 2
Flags: W
LayerCount: 2
Fore
SplineSet
256 1462 m 1,0,-1
 227 934 l 1,1,-1
 166 934 l 1,2,-1
 133 1462 l 1,3,-1
 256 1462 l 1,0,-1
EndSplineSet
EndChar

StartChar: parenleft
Encoding: 40 40 11
Width: 565
GlyphClass: 2
Flags: W
LayerCount: 2
Fore
SplineSet
104 561 m 0,0,1
 104 820 104 820 182 1055.5 c 128,-1,2
 260 1291 260 1291 401 1462 c 1,3,-1
 481 1462 l 1,4,5
 347 1264 347 1264 278 1032.5 c 128,-1,6
 209 801 209 801 209 563 c 0,7,8
 209 320 209 320 281.5 84 c 128,-1,9
 354 -152 354 -152 479 -324 c 1,10,-1
 401 -324 l 1,11,12
 258 -157 258 -157 181 73 c 128,-1,13
 104 303 104 303 104 561 c 0,0,1
EndSplineSet
EndChar

StartChar: parenright
Encoding: 41 41 12
Width: 565
GlyphClass: 2
Flags: W
LayerCount: 2
Fore
SplineSet
461 561 m 0,0,1
 461 303 461 303 384.5 72.5 c 128,-1,2
 308 -158 308 -158 164 -324 c 1,3,-1
 86 -324 l 1,4,5
 215 -143 215 -143 285.5 91 c 128,-1,6
 356 325 356 325 356 563 c 0,7,8
 356 802 356 802 287 1032.5 c 128,-1,9
 218 1263 218 1263 84 1462 c 1,10,-1
 164 1462 l 1,11,12
 307 1292 307 1292 384 1055 c 128,-1,13
 461 818 461 818 461 561 c 0,0,1
EndSplineSet
EndChar

StartChar: asterisk
Encoding: 42 42 13
Width: 745
GlyphClass: 2
Flags: W
LayerCount: 2
Fore
SplineSet
434 1556 m 1,0,-1
 406 1307 l 1,1,-1
 637 1364 l 1,2,-1
 651 1257 l 1,3,-1
 424 1249 l 1,4,-1
 580 1022 l 1,5,-1
 483 977 l 1,6,-1
 375 1214 l 1,7,-1
 258 975 l 1,8,-1
 166 1022 l 1,9,-1
 315 1249 l 1,10,-1
 94 1255 l 1,11,-1
 111 1362 l 1,12,-1
 340 1307 l 1,13,-1
 313 1556 l 1,14,-1
 434 1556 l 1,0,-1
EndSplineSet
EndChar

StartChar: plus
Encoding: 43 43 14
Width: 819
GlyphClass: 2
Flags: W
LayerCount: 2
Fore
SplineSet
369 682 m 1,0,-1
 59 682 l 1,1,-1
 59 764 l 1,2,-1
 369 764 l 1,3,-1
 369 1198 l 1,4,-1
 451 1198 l 1,5,-1
 451 764 l 1,6,-1
 760 764 l 1,7,-1
 760 682 l 1,8,-1
 451 682 l 1,9,-1
 451 250 l 1,10,-1
 369 250 l 1,11,-1
 369 682 l 1,0,-1
EndSplineSet
EndChar

StartChar: comma
Encoding: 44 44 15
Width: 422
GlyphClass: 2
Flags: W
LayerCount: 2
Fore
SplineSet
307 182 m 1,0,1
 241 -43 241 -43 141 -264 c 1,2,-1
 78 -264 l 1,3,4
 153 -9 153 -9 178 205 c 1,5,-1
 293 205 l 1,6,-1
 307 182 l 1,0,1
EndSplineSet
EndChar

StartChar: hyphen
Encoding: 45 45 16
Width: 516
GlyphClass: 2
Flags: W
LayerCount: 2
Fore
SplineSet
53 502 m 1,0,-1
 53 604 l 1,1,-1
 463 604 l 1,2,-1
 463 502 l 1,3,-1
 53 502 l 1,0,-1
EndSplineSet
EndChar

StartChar: period
Encoding: 46 46 17
Width: 422
GlyphClass: 2
Flags: W
LayerCount: 2
Fore
SplineSet
133 90 m 0,0,1
 133 197 133 197 211 197 c 0,2,3
 243 197 243 197 266 173 c 128,-1,4
 289 149 289 149 289 90 c 0,5,6
 289 33 289 33 266 8.5 c 128,-1,7
 243 -16 243 -16 211 -16 c 0,8,9
 133 -16 133 -16 133 90 c 0,0,1
EndSplineSet
Substitution2: "'sups' Superscript lookup 0 subtable" period.superior
EndChar

StartChar: slash
Encoding: 47 47 18
Width: 713
GlyphClass: 2
Flags: W
LayerCount: 2
Fore
SplineSet
674 1462 m 1,0,-1
 152 0 l 1,1,-1
 51 0 l 1,2,-1
 578 1462 l 1,3,-1
 674 1462 l 1,0,-1
EndSplineSet
EndChar

StartChar: zero
Encoding: 48 48 19
Width: 819
GlyphClass: 2
Flags: W
LayerCount: 2
Fore
SplineSet
729 733 m 0,0,1
 729 362 729 362 648.5 171 c 128,-1,2
 568 -20 568 -20 408 -20 c 0,3,4
 239 -20 239 -20 163.5 156.5 c 128,-1,5
 88 333 88 333 88 733 c 0,6,7
 88 1483 88 1483 408 1483 c 0,8,9
 574 1483 574 1483 651.5 1297 c 128,-1,10
 729 1111 729 1111 729 733 c 0,0,1
190 733 m 0,11,12
 190 403 190 403 242.5 238.5 c 128,-1,13
 295 74 295 74 408 74 c 0,14,15
 627 74 627 74 627 733 c 0,16,17
 627 1389 627 1389 408 1389 c 0,18,19
 295 1389 295 1389 242.5 1227 c 128,-1,20
 190 1065 190 1065 190 733 c 0,11,12
EndSplineSet
Substitution2: "'onum' Oldstyle Figures in Latin lookup 3 subtable" zero.os
Substitution2: "'onum' Oldstyle Figures in Latin lookup 2 subtable" zero.os
EndChar

StartChar: one
Encoding: 49 49 20
Width: 819
GlyphClass: 2
Flags: W
LayerCount: 2
Fore
SplineSet
512 0 m 1,0,-1
 416 0 l 1,1,-1
 416 1075 l 2,2,3
 416 1206 416 1206 424 1358 c 1,4,5
 403 1330 403 1330 326 1253 c 1,6,-1
 201 1139 l 1,7,-1
 150 1202 l 1,8,-1
 432 1462 l 1,9,-1
 512 1462 l 1,10,-1
 512 0 l 1,0,-1
EndSplineSet
Substitution2: "'pnum' Proportional Numbers in Latin lookup 4 subtable" one.pnum
Substitution2: "'onum' Oldstyle Figures in Latin lookup 2 subtable" one.os
EndChar

StartChar: two
Encoding: 50 50 21
Width: 819
GlyphClass: 2
Flags: W
LayerCount: 2
Fore
SplineSet
729 0 m 1,0,-1
 74 0 l 1,1,-1
 74 78 l 1,2,-1
 369 524 l 2,3,4
 505 731 505 731 551.5 856 c 128,-1,5
 598 981 598 981 598 1135 c 0,6,7
 598 1253 598 1253 537 1323 c 128,-1,8
 476 1393 476 1393 371 1393 c 0,9,10
 302 1393 302 1393 250.5 1372.5 c 128,-1,11
 199 1352 199 1352 147 1311 c 1,12,-1
 94 1386 l 1,13,14
 164 1439 164 1439 228.5 1461 c 128,-1,15
 293 1483 293 1483 377 1483 c 0,16,17
 528 1483 528 1483 612 1389 c 128,-1,18
 696 1295 696 1295 696 1135 c 0,19,20
 696 1025 696 1025 671.5 928 c 128,-1,21
 647 831 647 831 602.5 738 c 128,-1,22
 558 645 558 645 455 496 c 2,23,-1
 186 98 l 1,24,-1
 186 90 l 1,25,-1
 729 90 l 1,26,-1
 729 0 l 1,0,-1
EndSplineSet
Substitution2: "'onum' Oldstyle Figures in Latin lookup 3 subtable" two.os
Substitution2: "'onum' Oldstyle Figures in Latin lookup 2 subtable" two.os
EndChar

StartChar: three
Encoding: 51 51 22
Width: 819
GlyphClass: 2
Flags: W
LayerCount: 2
Fore
SplineSet
696 1137 m 0,0,1
 696 1000 696 1000 637 904.5 c 128,-1,2
 578 809 578 809 459 766 c 1,3,-1
 459 758 l 1,4,5
 582 731 582 731 650.5 635.5 c 128,-1,6
 719 540 719 540 719 395 c 0,7,8
 719 205 719 205 622.5 92.5 c 128,-1,9
 526 -20 526 -20 360 -20 c 0,10,11
 192 -20 192 -20 84 33 c 1,12,-1
 84 141 l 1,13,14
 210 68 210 68 360 68 c 0,15,16
 482 68 482 68 550 156.5 c 128,-1,17
 618 245 618 245 618 399 c 0,18,19
 618 545 618 545 539 628 c 128,-1,20
 460 711 460 711 305 711 c 2,21,-1
 231 711 l 1,22,-1
 231 803 l 1,23,-1
 311 803 l 2,24,25
 439 803 439 803 518.5 892.5 c 128,-1,26
 598 982 598 982 598 1128 c 0,27,28
 598 1253 598 1253 541.5 1324 c 128,-1,29
 485 1395 485 1395 383 1395 c 0,30,31
 314 1395 314 1395 259.5 1372 c 128,-1,32
 205 1349 205 1349 137 1286 c 1,33,-1
 76 1350 l 1,34,35
 150 1422 150 1422 222.5 1452.5 c 128,-1,36
 295 1483 295 1483 381 1483 c 0,37,38
 525 1483 525 1483 610.5 1388 c 128,-1,39
 696 1293 696 1293 696 1137 c 0,0,1
EndSplineSet
Substitution2: "'onum' Oldstyle Figures in Latin lookup 3 subtable" three.os
Substitution2: "'onum' Oldstyle Figures in Latin lookup 2 subtable" three.os
EndChar

StartChar: four
Encoding: 52 52 23
Width: 819
GlyphClass: 2
Flags: W
LayerCount: 2
Fore
SplineSet
793 332 m 1,0,-1
 637 332 l 1,1,-1
 637 0 l 1,2,-1
 541 0 l 1,3,-1
 541 332 l 1,4,-1
 37 332 l 1,5,-1
 37 416 l 1,6,-1
 516 1479 l 1,7,-1
 637 1479 l 1,8,-1
 637 422 l 1,9,-1
 793 422 l 1,10,-1
 793 332 l 1,0,-1
541 422 m 1,11,-1
 541 1128 l 2,12,13
 541 1250 541 1250 549 1366 c 1,14,-1
 543 1366 l 1,15,-1
 469 1178 l 1,16,-1
 137 422 l 1,17,-1
 541 422 l 1,11,-1
EndSplineSet
Substitution2: "'onum' Oldstyle Figures in Latin lookup 3 subtable" four.os
Substitution2: "'onum' Oldstyle Figures in Latin lookup 2 subtable" four.os
EndChar

StartChar: five
Encoding: 53 53 24
Width: 819
GlyphClass: 2
Flags: W
LayerCount: 2
Fore
SplineSet
365 788 m 0,0,1
 263 788 263 788 158 758 c 1,2,-1
 109 821 l 1,3,-1
 152 1462 l 1,4,-1
 647 1462 l 1,5,-1
 647 1368 l 1,6,-1
 233 1368 l 1,7,-1
 197 854 l 1,8,9
 287 874 287 874 371 874 c 0,10,11
 535 874 535 874 631 765 c 128,-1,12
 727 656 727 656 727 465 c 0,13,14
 727 244 727 244 622 112 c 128,-1,15
 517 -20 517 -20 342 -20 c 0,16,17
 186 -20 186 -20 98 35 c 1,18,-1
 98 145 l 1,19,20
 208 68 208 68 338 68 c 0,21,22
 471 68 471 68 549 177 c 128,-1,23
 627 286 627 286 627 461 c 0,24,25
 627 625 627 625 557 706.5 c 128,-1,26
 487 788 487 788 365 788 c 0,0,1
EndSplineSet
Substitution2: "'onum' Oldstyle Figures in Latin lookup 3 subtable" five.os
Substitution2: "'onum' Oldstyle Figures in Latin lookup 2 subtable" five.os
EndChar

StartChar: six
Encoding: 54 54 25
Width: 819
GlyphClass: 2
Flags: W
LayerCount: 2
Fore
SplineSet
100 623 m 0,0,1
 100 1062 100 1062 207 1272.5 c 128,-1,2
 314 1483 314 1483 524 1483 c 0,3,4
 601 1483 601 1483 651 1460 c 1,5,-1
 651 1364 l 1,6,7
 593 1389 593 1389 516 1389 c 0,8,9
 372 1389 372 1389 290.5 1223.5 c 128,-1,10
 209 1058 209 1058 199 741 c 1,11,-1
 207 741 l 1,12,13
 241 817 241 817 300 860 c 128,-1,14
 359 903 359 903 436 903 c 0,15,16
 572 903 572 903 650.5 782 c 128,-1,17
 729 661 729 661 729 449 c 0,18,19
 729 230 729 230 646 105 c 128,-1,20
 563 -20 563 -20 422 -20 c 0,21,22
 265 -20 265 -20 182.5 145 c 128,-1,23
 100 310 100 310 100 623 c 0,0,1
424 74 m 0,24,25
 523 74 523 74 576 166 c 128,-1,26
 629 258 629 258 629 444 c 0,27,28
 629 622 629 622 577 716.5 c 128,-1,29
 525 811 525 811 422 811 c 0,30,31
 322 811 322 811 261.5 730 c 128,-1,32
 201 649 201 649 201 524 c 256,33,34
 201 399 201 399 229.5 291.5 c 128,-1,35
 258 184 258 184 307.5 129 c 128,-1,36
 357 74 357 74 424 74 c 0,24,25
EndSplineSet
Substitution2: "'onum' Oldstyle Figures in Latin lookup 3 subtable" six.os
Substitution2: "'onum' Oldstyle Figures in Latin lookup 2 subtable" six.os
EndChar

StartChar: seven
Encoding: 55 55 26
Width: 819
GlyphClass: 2
Flags: W
LayerCount: 2
Fore
SplineSet
195 0 m 1,0,-1
 649 1368 l 1,1,-1
 57 1368 l 1,2,-1
 57 1462 l 1,3,-1
 748 1462 l 1,4,-1
 748 1380 l 1,5,-1
 297 0 l 1,6,-1
 195 0 l 1,0,-1
EndSplineSet
Substitution2: "'onum' Oldstyle Figures in Latin lookup 3 subtable" seven.os
Substitution2: "'onum' Oldstyle Figures in Latin lookup 2 subtable" seven.os
EndChar

StartChar: eight
Encoding: 56 56 27
Width: 819
GlyphClass: 2
Flags: W
LayerCount: 2
Fore
SplineSet
412 1483 m 0,0,1
 550 1483 550 1483 634.5 1393.5 c 128,-1,2
 719 1304 719 1304 719 1147 c 0,3,4
 719 905 719 905 479 762 c 1,5,6
 586 690 586 690 639 634 c 128,-1,7
 692 578 692 578 721 511.5 c 128,-1,8
 750 445 750 445 750 362 c 0,9,10
 750 195 750 195 657.5 87.5 c 128,-1,11
 565 -20 565 -20 422 -20 c 0,12,13
 268 -20 268 -20 170 82.5 c 128,-1,14
 72 185 72 185 72 350 c 0,15,16
 72 476 72 476 126.5 574.5 c 128,-1,17
 181 673 181 673 317 762 c 1,18,19
 106 924 106 924 106 1143 c 0,20,21
 106 1294 106 1294 191.5 1388.5 c 128,-1,22
 277 1483 277 1483 412 1483 c 0,0,1
174 348 m 0,23,24
 174 222 174 222 240 146 c 128,-1,25
 306 70 306 70 414 70 c 0,26,27
 520 70 520 70 583.5 149.5 c 128,-1,28
 647 229 647 229 647 367 c 0,29,30
 647 545 647 545 440 688 c 2,31,-1
 391 721 l 1,32,33
 270 643 270 643 222 559.5 c 128,-1,34
 174 476 174 476 174 348 c 0,23,24
410 1393 m 0,35,36
 316 1393 316 1393 261.5 1326 c 128,-1,37
 207 1259 207 1259 207 1139 c 0,38,39
 207 1036 207 1036 252 959 c 128,-1,40
 297 882 297 882 410 807 c 1,41,42
 519 872 519 872 568.5 954 c 128,-1,43
 618 1036 618 1036 618 1139 c 0,44,45
 618 1259 618 1259 563.5 1326 c 128,-1,46
 509 1393 509 1393 410 1393 c 0,35,36
EndSplineSet
Substitution2: "'onum' Oldstyle Figures in Latin lookup 3 subtable" eight.os
Substitution2: "'onum' Oldstyle Figures in Latin lookup 2 subtable" eight.os
EndChar

StartChar: nine
Encoding: 57 57 28
Width: 819
GlyphClass: 2
Flags: W
LayerCount: 2
Fore
SplineSet
711 858 m 0,0,1
 711 421 711 421 601.5 200.5 c 128,-1,2
 492 -20 492 -20 281 -20 c 0,3,4
 244 -20 244 -20 202.5 -13 c 128,-1,5
 161 -6 161 -6 145 2 c 1,6,-1
 145 98 l 1,7,8
 200 74 200 74 289 74 c 0,9,10
 434 74 434 74 518 242 c 128,-1,11
 602 410 602 410 612 721 c 1,12,-1
 604 721 l 1,13,14
 570 645 570 645 511 602 c 128,-1,15
 452 559 452 559 375 559 c 0,16,17
 238 559 238 559 160 682 c 128,-1,18
 82 805 82 805 82 1014 c 0,19,20
 82 1232 82 1232 166.5 1357.5 c 128,-1,21
 251 1483 251 1483 401 1483 c 0,22,23
 554 1483 554 1483 632.5 1321.5 c 128,-1,24
 711 1160 711 1160 711 858 c 0,0,1
395 1389 m 0,25,26
 297 1389 297 1389 239.5 1296.5 c 128,-1,27
 182 1204 182 1204 182 1018 c 0,28,29
 182 840 182 840 234 745.5 c 128,-1,30
 286 651 286 651 389 651 c 0,31,32
 489 651 489 651 549.5 735.5 c 128,-1,33
 610 820 610 820 610 961 c 0,34,35
 610 1086 610 1086 583.5 1186 c 128,-1,36
 557 1286 557 1286 509 1337.5 c 128,-1,37
 461 1389 461 1389 395 1389 c 0,25,26
EndSplineSet
Substitution2: "'onum' Oldstyle Figures in Latin lookup 3 subtable" nine.os
Substitution2: "'onum' Oldstyle Figures in Latin lookup 2 subtable" nine.os
EndChar

StartChar: colon
Encoding: 58 58 29
Width: 422
GlyphClass: 2
Flags: W
LayerCount: 2
Fore
SplineSet
133 90 m 0,0,1
 133 197 133 197 211 197 c 0,2,3
 243 197 243 197 266 173 c 128,-1,4
 289 149 289 149 289 90 c 0,5,6
 289 33 289 33 266 8.5 c 128,-1,7
 243 -16 243 -16 211 -16 c 0,8,9
 133 -16 133 -16 133 90 c 0,0,1
133 981 m 0,10,11
 133 1087 133 1087 211 1087 c 256,12,13
 289 1087 289 1087 289 981 c 0,14,15
 289 924 289 924 266 899 c 128,-1,16
 243 874 243 874 211 874 c 0,17,18
 133 874 133 874 133 981 c 0,10,11
EndSplineSet
EndChar

StartChar: semicolon
Encoding: 59 59 30
Width: 422
GlyphClass: 2
Flags: W
LayerCount: 2
Fore
SplineSet
133 981 m 0,0,1
 133 1087 133 1087 211 1087 c 256,2,3
 289 1087 289 1087 289 981 c 0,4,5
 289 924 289 924 266 899 c 128,-1,6
 243 874 243 874 211 874 c 0,7,8
 133 874 133 874 133 981 c 0,0,1
307 182 m 1,9,10
 241 -43 241 -43 141 -264 c 1,11,-1
 78 -264 l 1,12,13
 153 -9 153 -9 178 205 c 1,14,-1
 293 205 l 1,15,-1
 307 182 l 1,9,10
EndSplineSet
EndChar

StartChar: less
Encoding: 60 60 31
Width: 819
GlyphClass: 2
Flags: W
LayerCount: 2
Fore
SplineSet
762 287 m 1,0,-1
 59 690 l 1,1,-1
 59 758 l 1,2,-1
 762 1157 l 1,3,-1
 762 1057 l 1,4,-1
 162 723 l 1,5,-1
 762 389 l 1,6,-1
 762 287 l 1,0,-1
EndSplineSet
EndChar

StartChar: equal
Encoding: 61 61 32
Width: 819
GlyphClass: 2
Flags: W
LayerCount: 2
Fore
SplineSet
59 895 m 1,0,-1
 59 977 l 1,1,-1
 760 977 l 1,2,-1
 760 895 l 1,3,-1
 59 895 l 1,0,-1
59 465 m 1,4,-1
 59 547 l 1,5,-1
 760 547 l 1,6,-1
 760 465 l 1,7,-1
 59 465 l 1,4,-1
EndSplineSet
EndChar

StartChar: greater
Encoding: 62 62 33
Width: 819
GlyphClass: 2
Flags: W
LayerCount: 2
Fore
SplineSet
57 389 m 1,0,-1
 657 723 l 1,1,-1
 57 1057 l 1,2,-1
 57 1157 l 1,3,-1
 760 758 l 1,4,-1
 760 690 l 1,5,-1
 57 287 l 1,6,-1
 57 389 l 1,0,-1
EndSplineSet
EndChar

StartChar: question
Encoding: 63 63 34
Width: 578
GlyphClass: 2
Flags: W
LayerCount: 2
Fore
SplineSet
190 367 m 1,0,-1
 190 418 l 2,1,2
 190 532 190 532 210.5 605.5 c 128,-1,3
 231 679 231 679 289 766 c 0,4,5
 377 900 377 900 403.5 979.5 c 128,-1,6
 430 1059 430 1059 430 1153 c 0,7,8
 430 1269 430 1269 384.5 1331 c 128,-1,9
 339 1393 339 1393 260 1393 c 0,10,11
 203 1393 203 1393 163 1377 c 128,-1,12
 123 1361 123 1361 82 1333 c 1,13,-1
 35 1409 l 1,14,15
 134 1483 134 1483 260 1483 c 0,16,17
 390 1483 390 1483 460 1400 c 128,-1,18
 530 1317 530 1317 530 1159 c 0,19,20
 530 1038 530 1038 499 957 c 128,-1,21
 468 876 468 876 371 729 c 0,22,23
 312 641 312 641 288 572 c 128,-1,24
 264 503 264 503 264 403 c 2,25,-1
 264 367 l 1,26,-1
 190 367 l 1,0,-1
156 90 m 0,27,28
 156 197 156 197 233 197 c 0,29,30
 265 197 265 197 288 173 c 128,-1,31
 311 149 311 149 311 90 c 0,32,33
 311 33 311 33 288 8.5 c 128,-1,34
 265 -16 265 -16 233 -16 c 0,35,36
 156 -16 156 -16 156 90 c 0,27,28
EndSplineSet
EndChar

StartChar: at
Encoding: 64 64 35
Width: 1233
GlyphClass: 2
Flags: W
LayerCount: 2
Fore
SplineSet
1130 735 m 0,0,1
 1130 231 1130 231 905 231 c 0,2,3
 822 231 822 231 786 285 c 128,-1,4
 750 339 750 339 748 438 c 1,5,-1
 739 438 l 1,6,7
 722 330 722 330 685 280.5 c 128,-1,8
 648 231 648 231 582 231 c 0,9,10
 494 231 494 231 445.5 324.5 c 128,-1,11
 397 418 397 418 397 588 c 0,12,13
 397 1061 397 1061 659 1061 c 0,14,15
 747 1061 747 1061 823 1032 c 1,16,-1
 803 555 l 1,17,-1
 803 494 l 2,18,19
 803 403 803 403 829.5 364.5 c 128,-1,20
 856 326 856 326 905 326 c 0,21,22
 973 326 973 326 1002.5 428 c 128,-1,23
 1032 530 1032 530 1032 741 c 0,24,25
 1032 931 1032 931 984.5 1077 c 128,-1,26
 937 1223 937 1223 850.5 1303.5 c 128,-1,27
 764 1384 764 1384 653 1384 c 0,28,29
 520 1384 520 1384 417 1285 c 128,-1,30
 314 1186 314 1186 258.5 1006.5 c 128,-1,31
 203 827 203 827 203 596 c 0,32,33
 203 270 203 270 305.5 88 c 128,-1,34
 408 -94 408 -94 590 -94 c 0,35,36
 659 -94 659 -94 718.5 -74 c 128,-1,37
 778 -54 778 -54 815 -25 c 1,38,-1
 815 -119 l 1,39,40
 765 -150 765 -150 711 -165 c 128,-1,41
 657 -180 657 -180 584 -180 c 0,42,43
 354 -180 354 -180 232.5 14.5 c 128,-1,44
 111 209 111 209 111 580 c 0,45,46
 111 854 111 854 177 1056 c 128,-1,47
 243 1258 243 1258 367 1365.5 c 128,-1,48
 491 1473 491 1473 655 1473 c 0,49,50
 793 1473 793 1473 902.5 1380 c 128,-1,51
 1012 1287 1012 1287 1071 1118.5 c 128,-1,52
 1130 950 1130 950 1130 735 c 0,0,1
496 584 m 0,53,54
 496 326 496 326 600 326 c 0,55,56
 645 326 645 326 670.5 409 c 128,-1,57
 696 492 696 492 705 666 c 2,58,-1
 721 971 l 1,59,60
 694 979 694 979 649 979 c 0,61,62
 575 979 575 979 535.5 879 c 128,-1,63
 496 779 496 779 496 584 c 0,53,54
EndSplineSet
EndChar

StartChar: A
Encoding: 65 65 36
Width: 813
GlyphClass: 2
Flags: W
LayerCount: 2
Fore
SplineSet
713 0 m 1,0,-1
 584 530 l 1,1,-1
 229 530 l 1,2,-1
 102 0 l 1,3,-1
 0 0 l 1,4,-1
 352 1462 l 1,5,-1
 453 1462 l 1,6,-1
 813 0 l 1,7,-1
 713 0 l 1,0,-1
561 629 m 1,8,-1
 432 1174 l 2,9,10
 412 1266 412 1266 401 1348 c 1,11,12
 392 1261 392 1261 373 1174 c 2,13,-1
 248 629 l 1,14,-1
 561 629 l 1,8,-1
EndSplineSet
EndChar

StartChar: B
Encoding: 66 66 37
Width: 907
GlyphClass: 2
Flags: W
LayerCount: 2
Fore
SplineSet
160 1462 m 1,0,-1
 440 1462 l 2,1,2
 612 1462 612 1462 704.5 1374 c 128,-1,3
 797 1286 797 1286 797 1114 c 0,4,5
 797 817 797 817 580 774 c 1,6,-1
 580 766 l 1,7,8
 705 740 705 740 766 654.5 c 128,-1,9
 827 569 827 569 827 416 c 0,10,11
 827 220 827 220 740 110 c 128,-1,12
 653 0 653 0 496 0 c 2,13,-1
 160 0 l 1,14,-1
 160 1462 l 1,0,-1
258 811 m 1,15,-1
 442 811 l 2,16,17
 579 811 579 811 637.5 886.5 c 128,-1,18
 696 962 696 962 696 1116 c 0,19,20
 696 1240 696 1240 631.5 1306 c 128,-1,21
 567 1372 567 1372 440 1372 c 2,22,-1
 258 1372 l 1,23,-1
 258 811 l 1,15,-1
258 721 m 1,24,-1
 258 90 l 1,25,-1
 483 90 l 2,26,27
 725 90 725 90 725 418 c 0,28,29
 725 564 725 564 654 642.5 c 128,-1,30
 583 721 583 721 455 721 c 2,31,-1
 258 721 l 1,24,-1
EndSplineSet
EndChar

StartChar: C
Encoding: 67 67 38
Width: 860
GlyphClass: 2
Flags: W
LayerCount: 2
Fore
SplineSet
573 1391 m 0,0,1
 408 1391 408 1391 310.5 1216.5 c 128,-1,2
 213 1042 213 1042 213 733 c 0,3,4
 213 532 213 532 258 383 c 128,-1,5
 303 234 303 234 387 154 c 128,-1,6
 471 74 471 74 582 74 c 0,7,8
 696 74 696 74 778 115 c 1,9,-1
 778 25 l 1,10,11
 700 -20 700 -20 573 -20 c 0,12,13
 434 -20 434 -20 329.5 70 c 128,-1,14
 225 160 225 160 168 330.5 c 128,-1,15
 111 501 111 501 111 735 c 0,16,17
 111 1085 111 1085 235.5 1285 c 128,-1,18
 360 1485 360 1485 575 1485 c 0,19,20
 709 1485 709 1485 809 1423 c 1,21,-1
 764 1337 l 1,22,23
 680 1391 680 1391 573 1391 c 0,0,1
EndSplineSet
EndChar

StartChar: D
Encoding: 68 68 39
Width: 995
GlyphClass: 2
Flags: W
LayerCount: 2
Fore
SplineSet
885 745 m 0,0,1
 885 0 885 0 420 0 c 2,2,-1
 160 0 l 1,3,-1
 160 1462 l 1,4,-1
 426 1462 l 2,5,6
 652 1462 652 1462 768.5 1279.5 c 128,-1,7
 885 1097 885 1097 885 745 c 0,0,1
782 739 m 0,8,9
 782 1048 782 1048 691 1210 c 128,-1,10
 600 1372 600 1372 422 1372 c 2,11,-1
 258 1372 l 1,12,-1
 258 90 l 1,13,-1
 414 90 l 2,14,15
 604 90 604 90 693 256 c 128,-1,16
 782 422 782 422 782 739 c 0,8,9
EndSplineSet
EndChar

StartChar: E
Encoding: 69 69 40
Width: 788
GlyphClass: 2
Flags: W
LayerCount: 2
Fore
SplineSet
690 0 m 1,0,-1
 160 0 l 1,1,-1
 160 1462 l 1,2,-1
 690 1462 l 1,3,-1
 690 1368 l 1,4,-1
 258 1368 l 1,5,-1
 258 813 l 1,6,-1
 666 813 l 1,7,-1
 666 719 l 1,8,-1
 258 719 l 1,9,-1
 258 94 l 1,10,-1
 690 94 l 1,11,-1
 690 0 l 1,0,-1
EndSplineSet
EndChar

StartChar: F
Encoding: 70 70 41
Width: 729
GlyphClass: 2
Flags: W
LayerCount: 2
Fore
SplineSet
258 0 m 1,0,-1
 160 0 l 1,1,-1
 160 1462 l 1,2,-1
 692 1462 l 1,3,-1
 692 1368 l 1,4,-1
 258 1368 l 1,5,-1
 258 748 l 1,6,-1
 668 748 l 1,7,-1
 668 653 l 1,8,-1
 258 653 l 1,9,-1
 258 0 l 1,0,-1
EndSplineSet
EndChar

StartChar: G
Encoding: 71 71 42
Width: 1075
GlyphClass: 2
Flags: W
LayerCount: 2
Fore
SplineSet
641 737 m 1,0,-1
 961 737 l 1,1,-1
 961 45 l 1,2,3
 794 -20 794 -20 614 -20 c 0,4,5
 375 -20 375 -20 243 180 c 128,-1,6
 111 380 111 380 111 735 c 0,7,8
 111 1091 111 1091 247.5 1287 c 128,-1,9
 384 1483 384 1483 631 1483 c 0,10,11
 797 1483 797 1483 944 1389 c 1,12,-1
 897 1303 l 1,13,14
 759 1391 759 1391 631 1391 c 0,15,16
 426 1391 426 1391 320.5 1222.5 c 128,-1,17
 215 1054 215 1054 215 733 c 0,18,19
 215 419 215 419 321.5 246.5 c 128,-1,20
 428 74 428 74 623 74 c 0,21,22
 763 74 763 74 862 111 c 1,23,-1
 862 643 l 1,24,-1
 641 643 l 1,25,-1
 641 737 l 1,0,-1
EndSplineSet
EndChar

StartChar: H
Encoding: 72 72 43
Width: 1026
GlyphClass: 2
Flags: W
HStem: 0 21G<160 258 768 866> 719 94<258 768> 1442 20G<160 258 768 866>
VStem: 160 98<0 719 813 1462> 768 98<0 719 813 1462>
LayerCount: 2
Fore
SplineSet
866 0 m 1,0,-1
 768 0 l 1,1,-1
 768 719 l 1,2,-1
 258 719 l 1,3,-1
 258 0 l 1,4,-1
 160 0 l 1,5,-1
 160 1462 l 1,6,-1
 258 1462 l 1,7,-1
 258 813 l 1,8,-1
 768 813 l 1,9,-1
 768 1462 l 1,10,-1
 866 1462 l 1,11,-1
 866 0 l 1,0,-1
EndSplineSet
EndChar

StartChar: I.alt
Encoding: 65539 -1 44
Width: 471
GlyphClass: 2
Flags: W
LayerCount: 2
Fore
SplineSet
406 0 m 1,0,-1
 66 0 l 1,1,-1
 66 76 l 1,2,-1
 186 90 l 1,3,-1
 186 1370 l 1,4,-1
 66 1386 l 1,5,-1
 66 1462 l 1,6,-1
 406 1462 l 1,7,-1
 406 1386 l 1,8,-1
 285 1370 l 1,9,-1
 285 90 l 1,10,-1
 406 76 l 1,11,-1
 406 0 l 1,0,-1
EndSplineSet
EndChar

StartChar: J
Encoding: 74 74 45
Width: 401
GlyphClass: 2
Flags: W
LayerCount: 2
Fore
SplineSet
27 -369 m 0,0,1
 -40 -369 -40 -369 -90 -344 c 1,2,-1
 -90 -252 l 1,3,4
 -41 -272 -41 -272 25 -272 c 0,5,6
 88 -272 88 -272 119 -214.5 c 128,-1,7
 150 -157 150 -157 150 -25 c 2,8,-1
 150 1462 l 1,9,-1
 248 1462 l 1,10,-1
 248 -23 l 2,11,12
 248 -195 248 -195 192 -282 c 128,-1,13
 136 -369 136 -369 27 -369 c 0,0,1
EndSplineSet
EndChar

StartChar: K
Encoding: 75 75 46
Width: 825
GlyphClass: 2
Flags: W
LayerCount: 2
Fore
SplineSet
825 0 m 1,0,-1
 715 0 l 1,1,-1
 371 729 l 1,2,-1
 258 580 l 1,3,-1
 258 0 l 1,4,-1
 160 0 l 1,5,-1
 160 1462 l 1,6,-1
 258 1462 l 1,7,-1
 258 688 l 1,8,9
 309 784 309 784 690 1462 c 1,10,-1
 797 1462 l 1,11,-1
 430 819 l 1,12,-1
 825 0 l 1,0,-1
EndSplineSet
EndChar

StartChar: L
Encoding: 76 76 47
Width: 711
GlyphClass: 2
Flags: W
HStem: 0 94<258 670> 1442 20G<160 258>
VStem: 160 98<94 1462>
LayerCount: 2
Fore
SplineSet
160 0 m 1,0,-1
 160 1462 l 1,1,-1
 258 1462 l 1,2,-1
 258 94 l 1,3,-1
 670 94 l 1,4,-1
 670 0 l 1,5,-1
 160 0 l 1,0,-1
EndSplineSet
EndChar

StartChar: M
Encoding: 77 77 48
Width: 1395
GlyphClass: 2
Flags: W
LayerCount: 2
Fore
SplineSet
641 0 m 1,0,-1
 252 1331 l 1,1,-1
 244 1331 l 1,2,3
 254 1121 254 1121 254 1065 c 2,4,-1
 254 0 l 1,5,-1
 160 0 l 1,6,-1
 160 1462 l 1,7,-1
 305 1462 l 1,8,-1
 633 344 l 2,9,10
 677 196 677 196 690 92 c 1,11,-1
 698 92 l 1,12,13
 708 166 708 166 760 342 c 2,14,-1
 1085 1462 l 1,15,-1
 1235 1462 l 1,16,-1
 1235 0 l 1,17,-1
 1137 0 l 1,18,-1
 1137 1057 l 2,19,20
 1137 1119 1137 1119 1147 1329 c 1,21,-1
 1139 1329 l 1,22,-1
 752 0 l 1,23,-1
 641 0 l 1,0,-1
EndSplineSet
EndChar

StartChar: N
Encoding: 78 78 49
Width: 1090
GlyphClass: 2
Flags: W
LayerCount: 2
Fore
SplineSet
930 0 m 1,0,-1
 805 0 l 1,1,-1
 252 1311 l 1,2,-1
 244 1311 l 1,3,4
 256 1175 256 1175 256 1049 c 2,5,-1
 256 0 l 1,6,-1
 160 0 l 1,7,-1
 160 1462 l 1,8,-1
 287 1462 l 1,9,-1
 836 166 l 1,10,-1
 842 166 l 1,11,12
 834 330 834 330 834 440 c 2,13,-1
 834 1462 l 1,14,-1
 930 1462 l 1,15,-1
 930 0 l 1,0,-1
EndSplineSet
EndChar

StartChar: O
Encoding: 79 79 50
Width: 1065
GlyphClass: 2
Flags: W
LayerCount: 2
Fore
SplineSet
954 733 m 0,0,1
 954 370 954 370 845.5 175 c 128,-1,2
 737 -20 737 -20 532 -20 c 0,3,4
 325 -20 325 -20 218 176.5 c 128,-1,5
 111 373 111 373 111 735 c 0,6,7
 111 1113 111 1113 217 1298 c 128,-1,8
 323 1483 323 1483 535 1483 c 0,9,10
 739 1483 739 1483 846.5 1288.5 c 128,-1,11
 954 1094 954 1094 954 733 c 0,0,1
213 733 m 0,12,13
 213 407 213 407 294.5 240.5 c 128,-1,14
 376 74 376 74 532 74 c 0,15,16
 689 74 689 74 770.5 239 c 128,-1,17
 852 404 852 404 852 733 c 0,18,19
 852 1058 852 1058 772 1223.5 c 128,-1,20
 692 1389 692 1389 535 1389 c 0,21,22
 374 1389 374 1389 293.5 1221.5 c 128,-1,23
 213 1054 213 1054 213 733 c 0,12,13
EndSplineSet
EndChar

StartChar: P
Encoding: 80 80 51
Width: 840
GlyphClass: 2
Flags: W
LayerCount: 2
Fore
SplineSet
772 1042 m 0,0,1
 772 816 772 816 668.5 710 c 128,-1,2
 565 604 565 604 362 604 c 2,3,-1
 258 604 l 1,4,-1
 258 0 l 1,5,-1
 160 0 l 1,6,-1
 160 1462 l 1,7,-1
 360 1462 l 2,8,9
 574 1462 574 1462 673 1361 c 128,-1,10
 772 1260 772 1260 772 1042 c 0,0,1
258 694 m 1,11,-1
 356 694 l 2,12,13
 528 694 528 694 600 775 c 128,-1,14
 672 856 672 856 672 1042 c 0,15,16
 672 1219 672 1219 597.5 1295.5 c 128,-1,17
 523 1372 523 1372 367 1372 c 2,18,-1
 258 1372 l 1,19,-1
 258 694 l 1,11,-1
EndSplineSet
EndChar

StartChar: Q
Encoding: 81 81 52
Width: 1065
GlyphClass: 2
Flags: W
LayerCount: 2
Fore
SplineSet
893 -348 m 1,0,-1
 768 -348 l 1,1,-1
 582 -16 l 1,2,-1
 532 -20 l 1,3,4
 325 -20 325 -20 218 176.5 c 128,-1,5
 111 373 111 373 111 735 c 0,6,7
 111 1113 111 1113 217 1298 c 128,-1,8
 323 1483 323 1483 535 1483 c 0,9,10
 739 1483 739 1483 846.5 1288.5 c 128,-1,11
 954 1094 954 1094 954 733 c 0,12,13
 954 442 954 442 883.5 257 c 128,-1,14
 813 72 813 72 680 10 c 1,15,-1
 893 -348 l 1,0,-1
213 733 m 0,16,17
 213 407 213 407 294.5 240.5 c 128,-1,18
 376 74 376 74 532 74 c 0,19,20
 689 74 689 74 770.5 239 c 128,-1,21
 852 404 852 404 852 733 c 0,22,23
 852 1058 852 1058 772 1223.5 c 128,-1,24
 692 1389 692 1389 535 1389 c 0,25,26
 374 1389 374 1389 293.5 1221.5 c 128,-1,27
 213 1054 213 1054 213 733 c 0,16,17
EndSplineSet
EndChar

StartChar: R
Encoding: 82 82 53
Width: 870
GlyphClass: 2
Flags: W
LayerCount: 2
Fore
SplineSet
258 639 m 1,0,-1
 258 0 l 1,1,-1
 160 0 l 1,2,-1
 160 1462 l 1,3,-1
 360 1462 l 2,4,5
 574 1462 574 1462 673 1361 c 128,-1,6
 772 1260 772 1260 772 1059 c 0,7,8
 772 907 772 907 718 809 c 128,-1,9
 664 711 664 711 537 662 c 1,10,-1
 827 0 l 1,11,-1
 717 0 l 1,12,-1
 444 639 l 1,13,-1
 258 639 l 1,0,-1
258 729 m 1,14,-1
 395 729 l 2,15,16
 528 729 528 729 600 811 c 128,-1,17
 672 893 672 893 672 1055 c 0,18,19
 672 1220 672 1220 598.5 1293 c 128,-1,20
 525 1366 525 1366 367 1366 c 2,21,-1
 258 1366 l 1,22,-1
 258 729 l 1,14,-1
EndSplineSet
EndChar

StartChar: S
Encoding: 83 83 54
Width: 809
GlyphClass: 2
Flags: W
LayerCount: 2
Fore
SplineSet
721 383 m 0,0,1
 721 203 721 203 621 91.5 c 128,-1,2
 521 -20 521 -20 367 -20 c 0,3,4
 192 -20 192 -20 86 31 c 1,5,-1
 86 137 l 1,6,7
 138 108 138 108 215 91 c 128,-1,8
 292 74 292 74 367 74 c 0,9,10
 479 74 479 74 551 159 c 128,-1,11
 623 244 623 244 623 375 c 0,12,13
 623 496 623 496 572 567 c 128,-1,14
 521 638 521 638 377 709 c 0,15,16
 264 766 264 766 208 819.5 c 128,-1,17
 152 873 152 873 125 944 c 128,-1,18
 98 1015 98 1015 98 1114 c 0,19,20
 98 1222 98 1222 142 1306 c 128,-1,21
 186 1390 186 1390 265 1436.5 c 128,-1,22
 344 1483 344 1483 438 1483 c 0,23,24
 523 1483 523 1483 592.5 1464 c 128,-1,25
 662 1445 662 1445 702 1423 c 1,26,-1
 664 1329 l 1,27,28
 553 1386 553 1386 438 1386 c 0,29,30
 330 1386 330 1386 262.5 1312.5 c 128,-1,31
 195 1239 195 1239 195 1118 c 0,32,33
 195 995 195 995 244 927 c 128,-1,34
 293 859 293 859 436 786 c 0,35,36
 584 714 584 714 652.5 617.5 c 128,-1,37
 721 521 721 521 721 383 c 0,0,1
EndSplineSet
EndChar

StartChar: T
Encoding: 84 84 55
Width: 711
GlyphClass: 2
Flags: W
HStem: 0 21G<305 403> 1368 94<14 305 403 694>
VStem: 305 98<0 1368>
LayerCount: 2
Fore
SplineSet
403 0 m 1,0,-1
 305 0 l 1,1,-1
 305 1368 l 1,2,-1
 14 1368 l 1,3,-1
 14 1462 l 1,4,-1
 694 1462 l 1,5,-1
 694 1368 l 1,6,-1
 403 1368 l 1,7,-1
 403 0 l 1,0,-1
EndSplineSet
EndChar

StartChar: U
Encoding: 85 85 56
Width: 1012
GlyphClass: 2
Flags: W
LayerCount: 2
Fore
SplineSet
864 1462 m 1,0,-1
 864 475 l 2,1,2
 864 -20 864 -20 510 -20 c 0,3,4
 333 -20 333 -20 240 108 c 128,-1,5
 147 236 147 236 147 475 c 2,6,-1
 147 1462 l 1,7,-1
 246 1462 l 1,8,-1
 246 463 l 2,9,10
 246 273 246 273 314.5 173.5 c 128,-1,11
 383 74 383 74 510 74 c 0,12,13
 636 74 636 74 701 173.5 c 128,-1,14
 766 273 766 273 766 467 c 2,15,-1
 766 1462 l 1,16,-1
 864 1462 l 1,0,-1
EndSplineSet
EndChar

StartChar: V
Encoding: 86 86 57
Width: 799
GlyphClass: 2
Flags: W
LayerCount: 2
Fore
SplineSet
698 1462 m 1,0,-1
 799 1462 l 1,1,-1
 453 0 l 1,2,-1
 344 0 l 1,3,-1
 0 1462 l 1,4,-1
 102 1462 l 1,5,-1
 340 434 l 2,6,7
 368 316 368 316 377 260.5 c 128,-1,8
 386 205 386 205 395 121 c 1,9,10
 403 179 403 179 412 235 c 128,-1,11
 421 291 421 291 429.5 329.5 c 128,-1,12
 438 368 438 368 698 1462 c 1,0,-1
EndSplineSet
EndChar

StartChar: W
Encoding: 87 87 58
Width: 1395
GlyphClass: 2
Flags: W
LayerCount: 2
Fore
SplineSet
1284 1462 m 1,0,-1
 1384 1462 l 1,1,-1
 1073 0 l 1,2,-1
 954 0 l 1,3,-1
 731 1094 l 2,4,5
 725 1121 725 1121 696 1333 c 1,6,-1
 682 1238 l 1,7,-1
 659 1096 l 1,8,-1
 440 0 l 1,9,-1
 324 0 l 1,10,-1
 10 1462 l 1,11,-1
 113 1462 l 1,12,-1
 319 455 l 2,13,14
 367 209 367 209 381 111 c 1,15,16
 403 271 403 271 438 451 c 2,17,-1
 643 1462 l 1,18,-1
 754 1462 l 1,19,-1
 958 455 l 2,20,21
 990 291 990 291 1004 185 c 2,22,-1
 1014 111 l 1,23,24
 1043 322 1043 322 1071 455 c 2,25,-1
 1284 1462 l 1,0,-1
EndSplineSet
EndChar

StartChar: X
Encoding: 88 88 59
Width: 715
GlyphClass: 2
Flags: W
LayerCount: 2
Fore
SplineSet
694 0 m 1,0,-1
 592 0 l 1,1,-1
 373 672 l 1,2,-1
 119 0 l 1,3,-1
 20 0 l 1,4,-1
 326 776 l 1,5,-1
 63 1462 l 1,6,-1
 166 1462 l 1,7,-1
 383 854 l 1,8,-1
 594 1462 l 1,9,-1
 694 1462 l 1,10,-1
 436 754 l 1,11,-1
 694 0 l 1,0,-1
EndSplineSet
EndChar

StartChar: Y
Encoding: 89 89 60
Width: 686
GlyphClass: 2
Flags: W
LayerCount: 2
Fore
SplineSet
344 707 m 1,0,-1
 582 1462 l 1,1,-1
 686 1462 l 1,2,-1
 391 571 l 1,3,-1
 391 0 l 1,4,-1
 293 0 l 1,5,-1
 293 571 l 1,6,-1
 0 1462 l 1,7,-1
 104 1462 l 1,8,-1
 344 707 l 1,0,-1
EndSplineSet
EndChar

StartChar: Z
Encoding: 90 90 61
Width: 643
GlyphClass: 2
Flags: W
LayerCount: 2
Fore
SplineSet
602 0 m 1,0,-1
 57 0 l 1,1,-1
 57 88 l 1,2,-1
 481 1366 l 1,3,-1
 63 1366 l 1,4,-1
 63 1462 l 1,5,-1
 590 1462 l 1,6,-1
 590 1372 l 1,7,-1
 160 94 l 1,8,-1
 602 94 l 1,9,-1
 602 0 l 1,0,-1
EndSplineSet
EndChar

StartChar: bracketleft
Encoding: 91 91 62
Width: 645
GlyphClass: 2
Flags: W
LayerCount: 2
Fore
SplineSet
571 -324 m 1,0,-1
 174 -324 l 1,1,-1
 174 1462 l 1,2,-1
 571 1462 l 1,3,-1
 571 1372 l 1,4,-1
 268 1372 l 1,5,-1
 268 -233 l 1,6,-1
 571 -233 l 1,7,-1
 571 -324 l 1,0,-1
EndSplineSet
EndChar

StartChar: backslash
Encoding: 92 92 63
Width: 713
GlyphClass: 2
Flags: W
LayerCount: 2
Fore
SplineSet
147 1462 m 1,0,-1
 674 0 l 1,1,-1
 573 0 l 1,2,-1
 51 1462 l 1,3,-1
 147 1462 l 1,0,-1
EndSplineSet
EndChar

StartChar: bracketright
Encoding: 93 93 64
Width: 645
GlyphClass: 2
Flags: W
LayerCount: 2
Fore
SplineSet
74 -233 m 1,0,-1
 377 -233 l 1,1,-1
 377 1372 l 1,2,-1
 74 1372 l 1,3,-1
 74 1462 l 1,4,-1
 471 1462 l 1,5,-1
 471 -324 l 1,6,-1
 74 -324 l 1,7,-1
 74 -233 l 1,0,-1
EndSplineSet
EndChar

StartChar: asciicircum
Encoding: 94 94 65
Width: 819
GlyphClass: 2
Flags: W
LayerCount: 2
Fore
SplineSet
37 758 m 1,0,-1
 375 1460 l 1,1,-1
 442 1460 l 1,2,-1
 782 758 l 1,3,-1
 680 758 l 1,4,-1
 410 1348 l 1,5,-1
 137 758 l 1,6,-1
 37 758 l 1,0,-1
EndSplineSet
EndChar

StartChar: underscore
Encoding: 95 95 66
Width: 842
GlyphClass: 2
Flags: W
LayerCount: 2
Fore
SplineSet
846 -266 m 1,0,-1
 -4 -266 l 1,1,-1
 -4 -184 l 1,2,-1
 846 -184 l 1,3,-1
 846 -266 l 1,0,-1
EndSplineSet
EndChar

StartChar: grave
Encoding: 96 96 67
Width: 1126
GlyphClass: 2
Flags: W
LayerCount: 2
Fore
SplineSet
702 1241 m 1,0,1
 637 1294 637 1294 553.5 1389 c 128,-1,2
 470 1484 470 1484 434 1552 c 1,3,-1
 434 1569 l 1,4,-1
 559 1569 l 1,5,6
 586 1506 586 1506 641.5 1417 c 128,-1,7
 697 1328 697 1328 750 1262 c 1,8,-1
 750 1241 l 1,9,-1
 702 1241 l 1,0,1
EndSplineSet
EndChar

StartChar: a
Encoding: 97 97 68
Width: 784
GlyphClass: 2
Flags: W
LayerCount: 2
Fore
SplineSet
565 0 m 1,0,-1
 553 152 l 1,1,-1
 549 152 l 1,2,3
 471 -20 471 -20 313 -20 c 0,4,5
 207 -20 207 -20 142.5 64.5 c 128,-1,6
 78 149 78 149 78 291 c 0,7,8
 78 446 78 446 171 536.5 c 128,-1,9
 264 627 264 627 432 635 c 2,10,-1
 549 641 l 1,11,-1
 549 731 l 2,12,13
 549 883 549 883 511 952.5 c 128,-1,14
 473 1022 473 1022 385 1022 c 0,15,16
 292 1022 292 1022 195 961 c 1,17,-1
 154 1036 l 1,18,19
 267 1106 267 1106 391 1106 c 0,20,21
 525 1106 525 1106 584 1021.5 c 128,-1,22
 643 937 643 937 643 739 c 2,23,-1
 643 0 l 1,24,-1
 565 0 l 1,0,-1
334 61 m 0,25,26
 436 61 436 61 492.5 161.5 c 128,-1,27
 549 262 549 262 549 446 c 2,28,-1
 549 559 l 1,29,-1
 436 553 l 2,30,31
 305 546 305 546 241.5 480.5 c 128,-1,32
 178 415 178 415 178 289 c 0,33,34
 178 171 178 171 220 116 c 128,-1,35
 262 61 262 61 334 61 c 0,25,26
EndSplineSet
EndChar

StartChar: b
Encoding: 98 98 69
Width: 893
GlyphClass: 2
Flags: W
LayerCount: 2
Fore
SplineSet
481 1104 m 0,0,1
 799 1104 799 1104 799 545 c 0,2,3
 799 269 799 269 720 124.5 c 128,-1,4
 641 -20 641 -20 492 -20 c 0,5,6
 414 -20 414 -20 350 23 c 128,-1,7
 286 66 286 66 244 150 c 1,8,-1
 236 150 l 1,9,-1
 223 0 l 1,10,-1
 145 0 l 1,11,-1
 145 1556 l 1,12,-1
 240 1556 l 1,13,-1
 240 1073 l 1,14,-1
 236 942 l 1,15,-1
 244 942 l 1,16,17
 330 1104 330 1104 481 1104 c 0,0,1
477 1016 m 0,18,19
 352 1016 352 1016 296 906 c 128,-1,20
 240 796 240 796 240 545 c 2,21,-1
 240 520 l 2,22,23
 240 66 240 66 481 66 c 0,24,25
 591 66 591 66 645.5 183 c 128,-1,26
 700 300 700 300 700 545 c 0,27,28
 700 780 700 780 647 898 c 128,-1,29
 594 1016 594 1016 477 1016 c 0,18,19
EndSplineSet
EndChar

StartChar: c
Encoding: 99 99 70
Width: 635
GlyphClass: 2
Flags: W
LayerCount: 2
Fore
SplineSet
424 -20 m 0,0,1
 261 -20 261 -20 178.5 121.5 c 128,-1,2
 96 263 96 263 96 537 c 0,3,4
 96 815 96 815 179.5 960.5 c 128,-1,5
 263 1106 263 1106 426 1106 c 0,6,7
 527 1106 527 1106 594 1069 c 1,8,-1
 557 985 l 1,9,10
 490 1016 490 1016 434 1016 c 0,11,12
 195 1016 195 1016 195 539 c 0,13,14
 195 66 195 66 434 66 c 0,15,16
 505 66 505 66 588 98 c 1,17,-1
 588 18 l 1,18,19
 555 0 555 0 507 -10 c 128,-1,20
 459 -20 459 -20 424 -20 c 0,0,1
EndSplineSet
EndChar

StartChar: d
Encoding: 100 100 71
Width: 893
GlyphClass: 2
Flags: W
LayerCount: 2
Fore
SplineSet
410 -20 m 0,0,1
 94 -20 94 -20 94 541 c 0,2,3
 94 817 94 817 173 961.5 c 128,-1,4
 252 1106 252 1106 406 1106 c 0,5,6
 479 1106 479 1106 544.5 1064 c 128,-1,7
 610 1022 610 1022 649 948 c 1,8,-1
 657 948 l 1,9,-1
 653 1069 l 1,10,-1
 653 1556 l 1,11,-1
 748 1556 l 1,12,-1
 748 0 l 1,13,-1
 670 0 l 1,14,-1
 662 152 l 1,15,-1
 653 152 l 1,16,17
 614 69 614 69 552 24.5 c 128,-1,18
 490 -20 490 -20 410 -20 c 0,0,1
416 63 m 0,19,20
 530 63 530 63 591.5 168.5 c 128,-1,21
 653 274 653 274 653 479 c 2,22,-1
 653 541 l 2,23,24
 653 787 653 787 593.5 901.5 c 128,-1,25
 534 1016 534 1016 412 1016 c 0,26,27
 295 1016 295 1016 244 893.5 c 128,-1,28
 193 771 193 771 193 539 c 0,29,30
 193 305 193 305 246 184 c 128,-1,31
 299 63 299 63 416 63 c 0,19,20
EndSplineSet
EndChar

StartChar: e
Encoding: 101 101 72
Width: 803
GlyphClass: 2
Flags: W
LayerCount: 2
Fore
SplineSet
453 -20 m 0,0,1
 281 -20 281 -20 188.5 126.5 c 128,-1,2
 96 273 96 273 96 535 c 0,3,4
 96 813 96 813 178.5 959.5 c 128,-1,5
 261 1106 261 1106 416 1106 c 0,6,7
 551 1106 551 1106 629 977.5 c 128,-1,8
 707 849 707 849 707 631 c 2,9,-1
 707 543 l 1,10,-1
 193 543 l 1,11,12
 195 306 195 306 260 188 c 128,-1,13
 325 70 325 70 457 70 c 0,14,15
 559 70 559 70 672 137 c 1,16,-1
 672 45 l 1,17,18
 568 -20 568 -20 453 -20 c 0,0,1
410 1020 m 0,19,20
 214 1020 214 1020 195 629 c 1,21,-1
 612 629 l 1,22,23
 612 808 612 808 557.5 914 c 128,-1,24
 503 1020 503 1020 410 1020 c 0,19,20
EndSplineSet
EndChar

StartChar: f
Encoding: 102 102 73
Width: 453
GlyphClass: 2
Flags: W
HStem: 0 21G<158 252> 1001 84<252 422> 1001 54<20 68.2529> 1479 88<296.179 483.085>
VStem: 158 94<0 1001 1096 1444.25>
LayerCount: 2
Fore
SplineSet
422 1001 m 1,0,-1
 252 1001 l 1,1,-1
 252 0 l 1,2,-1
 158 0 l 1,3,-1
 158 1001 l 1,4,-1
 20 1001 l 1,5,-1
 20 1055 l 1,6,-1
 158 1096 l 1,7,-1
 158 1178 l 2,8,9
 158 1385 158 1385 207 1476 c 128,-1,10
 256 1567 256 1567 377 1567 c 0,11,12
 447 1567 447 1567 504 1542 c 1,13,-1
 471 1454 l 1,14,15
 418 1479 418 1479 375 1479 c 0,16,17
 326 1479 326 1479 301 1450 c 128,-1,18
 276 1421 276 1421 264 1356 c 128,-1,19
 252 1291 252 1291 252 1176 c 2,20,-1
 252 1085 l 1,21,-1
 422 1085 l 1,22,-1
 422 1001 l 1,0,-1
EndSplineSet
EndChar

StartChar: g
Encoding: 103 103 74
Width: 741
GlyphClass: 2
Flags: W
LayerCount: 2
Fore
SplineSet
713 1085 m 1,0,-1
 713 1018 l 1,1,-1
 565 1001 l 1,2,3
 595 962 595 962 614 889.5 c 128,-1,4
 633 817 633 817 633 741 c 0,5,6
 633 583 633 583 561.5 485 c 128,-1,7
 490 387 490 387 373 387 c 2,8,-1
 349 387 l 1,9,-1
 328 389 l 1,10,11
 280 355 280 355 252.5 321 c 128,-1,12
 225 287 225 287 225 242 c 0,13,14
 225 196 225 196 261 170.5 c 128,-1,15
 297 145 297 145 358 145 c 2,16,-1
 426 145 l 2,17,18
 571 145 571 145 651 70 c 128,-1,19
 731 -5 731 -5 731 -147 c 0,20,21
 731 -306 731 -306 623.5 -399 c 128,-1,22
 516 -492 516 -492 340 -492 c 0,23,24
 193 -492 193 -492 114 -417.5 c 128,-1,25
 35 -343 35 -343 35 -203 c 0,26,27
 35 -101 35 -101 87 -28.5 c 128,-1,28
 139 44 139 44 250 86 c 1,29,30
 200 108 200 108 169.5 147 c 128,-1,31
 139 186 139 186 139 240 c 0,32,33
 139 289 139 289 171.5 327.5 c 128,-1,34
 204 366 204 366 264 410 c 1,35,36
 181 448 181 448 138.5 533 c 128,-1,37
 96 618 96 618 96 733 c 0,38,39
 96 906 96 906 169 1006 c 128,-1,40
 242 1106 242 1106 369 1106 c 0,41,42
 437 1106 437 1106 483 1085 c 1,43,-1
 713 1085 l 1,0,-1
129 -195 m 0,44,45
 129 -298 129 -298 182.5 -356 c 128,-1,46
 236 -414 236 -414 344 -414 c 0,47,48
 478 -414 478 -414 556.5 -344 c 128,-1,49
 635 -274 635 -274 635 -152 c 0,50,51
 635 -54 635 -54 581.5 -0.5 c 128,-1,52
 528 53 528 53 426 53 c 2,53,-1
 356 53 l 2,54,55
 258 53 258 53 193.5 -15.5 c 128,-1,56
 129 -84 129 -84 129 -195 c 0,44,45
188 731 m 0,57,58
 188 598 188 598 237 529.5 c 128,-1,59
 286 461 286 461 367 461 c 0,60,61
 541 461 541 461 541 741 c 0,62,63
 541 876 541 876 496.5 952 c 128,-1,64
 452 1028 452 1028 367 1028 c 0,65,66
 280 1028 280 1028 234 950 c 128,-1,67
 188 872 188 872 188 731 c 0,57,58
EndSplineSet
Substitution2: "'ss02' Style Set 2 in Latin lookup 0 subtable" g.alt
EndChar

StartChar: h
Encoding: 104 104 75
Width: 870
GlyphClass: 2
Flags: W
LayerCount: 2
Fore
SplineSet
635 0 m 1,0,-1
 635 748 l 2,1,2
 635 895 635 895 596.5 956.5 c 128,-1,3
 558 1018 558 1018 471 1018 c 0,4,5
 356 1018 356 1018 298 916 c 128,-1,6
 240 814 240 814 240 594 c 2,7,-1
 240 0 l 1,8,-1
 145 0 l 1,9,-1
 145 1556 l 1,10,-1
 240 1556 l 1,11,-1
 240 1051 l 2,12,13
 240 982 240 982 236 936 c 1,14,-1
 244 936 l 1,15,16
 276 1017 276 1017 340.5 1061.5 c 128,-1,17
 405 1106 405 1106 475 1106 c 0,18,19
 613 1106 613 1106 671 1016 c 128,-1,20
 729 926 729 926 729 748 c 2,21,-1
 729 0 l 1,22,-1
 635 0 l 1,0,-1
EndSplineSet
EndChar

StartChar: i
Encoding: 105 105 76
Width: 385
GlyphClass: 2
Flags: W
LayerCount: 2
Fore
SplineSet
240 0 m 1,0,-1
 145 0 l 1,1,-1
 145 1085 l 1,2,-1
 240 1085 l 1,3,-1
 240 0 l 1,0,-1
131 1386 m 0,4,5
 131 1431 131 1431 149.5 1456 c 128,-1,6
 168 1481 168 1481 197 1481 c 0,7,8
 224 1481 224 1481 240 1456 c 128,-1,9
 256 1431 256 1431 256 1386 c 0,10,11
 256 1343 256 1343 240 1317.5 c 128,-1,12
 224 1292 224 1292 197 1292 c 0,13,14
 168 1292 168 1292 149.5 1317.5 c 128,-1,15
 131 1343 131 1343 131 1386 c 0,4,5
EndSplineSet
EndChar

StartChar: j
Encoding: 106 106 77
Width: 385
GlyphClass: 2
Flags: W
LayerCount: 2
Fore
SplineSet
63 -492 m 0,0,1
 21 -492 21 -492 -4 -475 c 1,2,-1
 -4 -385 l 1,3,4
 28 -401 28 -401 59 -401 c 0,5,6
 106 -401 106 -401 125.5 -355.5 c 128,-1,7
 145 -310 145 -310 145 -215 c 2,8,-1
 145 1085 l 1,9,-1
 240 1085 l 1,10,-1
 240 -201 l 2,11,12
 240 -350 240 -350 197 -421 c 128,-1,13
 154 -492 154 -492 63 -492 c 0,0,1
131 1386 m 0,14,15
 131 1431 131 1431 149.5 1456 c 128,-1,16
 168 1481 168 1481 197 1481 c 0,17,18
 224 1481 224 1481 240 1456 c 128,-1,19
 256 1431 256 1431 256 1386 c 0,20,21
 256 1343 256 1343 240 1317.5 c 128,-1,22
 224 1292 224 1292 197 1292 c 0,23,24
 168 1292 168 1292 149.5 1317.5 c 128,-1,25
 131 1343 131 1343 131 1386 c 0,14,15
EndSplineSet
EndChar

StartChar: k
Encoding: 107 107 78
Width: 711
GlyphClass: 2
Flags: W
LayerCount: 2
Fore
SplineSet
242 537 m 1,0,-1
 303 647 l 1,1,-1
 571 1085 l 1,2,-1
 674 1085 l 1,3,-1
 424 686 l 1,4,-1
 696 0 l 1,5,-1
 596 0 l 1,6,-1
 360 598 l 1,7,-1
 240 440 l 1,8,-1
 240 0 l 1,9,-1
 145 0 l 1,10,-1
 145 1556 l 1,11,-1
 240 1556 l 1,12,-1
 240 719 l 1,13,-1
 233 537 l 1,14,-1
 242 537 l 1,0,-1
EndSplineSet
EndChar

StartChar: l
Encoding: 108 108 79
Width: 385
GlyphClass: 2
Flags: W
HStem: 0 21G<145 240> 1536 20G<145 240>
VStem: 145 95<0 1556>
LayerCount: 2
Fore
SplineSet
240 0 m 1,0,-1
 145 0 l 1,1,-1
 145 1556 l 1,2,-1
 240 1556 l 1,3,-1
 240 0 l 1,0,-1
EndSplineSet
EndChar

StartChar: m
Encoding: 109 109 80
Width: 1303
GlyphClass: 2
Flags: W
HStem: 0 21G<145 240 606 700 1067 1161> 1012 94<328.629 550.468 786.032 1010.31> 1065 20G<145 226.06>
VStem: 145 95<0 904.544> 145 80<934 1085> 606 94<0 907.348> 1067 94<0 947.949>
LayerCount: 2
Fore
SplineSet
1067 0 m 1,0,-1
 1067 739 l 2,1,2
 1067 1012 1067 1012 907 1012 c 0,3,4
 797 1012 797 1012 748.5 916.5 c 128,-1,5
 700 821 700 821 700 635 c 2,6,-1
 700 0 l 1,7,-1
 606 0 l 1,8,-1
 606 739 l 2,9,10
 606 877 606 877 567 944.5 c 128,-1,11
 528 1012 528 1012 446 1012 c 0,12,13
 338 1012 338 1012 289 914 c 128,-1,14
 240 816 240 816 240 596 c 2,15,-1
 240 0 l 1,16,-1
 145 0 l 1,17,-1
 145 1085 l 1,18,-1
 225 1085 l 1,19,-1
 233 934 l 1,20,-1
 242 934 l 1,21,22
 307 1106 307 1106 463 1106 c 0,23,24
 553 1106 553 1106 605 1058 c 128,-1,25
 657 1010 657 1010 680 918 c 1,26,27
 719 1018 719 1018 776 1062 c 128,-1,28
 833 1106 833 1106 924 1106 c 0,29,30
 1047 1106 1047 1106 1104 1011.5 c 128,-1,31
 1161 917 1161 917 1161 709 c 2,32,-1
 1161 0 l 1,33,-1
 1067 0 l 1,0,-1
EndSplineSet
Substitution2: "'sups' Superscript lookup 0 subtable" m.superior
EndChar

StartChar: n
Encoding: 110 110 81
Width: 870
GlyphClass: 2
Flags: W
LayerCount: 2
Fore
SplineSet
635 0 m 1,0,-1
 635 748 l 2,1,2
 635 1018 635 1018 475 1018 c 0,3,4
 353 1018 353 1018 296.5 917 c 128,-1,5
 240 816 240 816 240 596 c 2,6,-1
 240 0 l 1,7,-1
 145 0 l 1,8,-1
 145 1085 l 1,9,-1
 225 1085 l 1,10,-1
 233 934 l 1,11,-1
 242 934 l 1,12,13
 276 1016 276 1016 340 1061 c 128,-1,14
 404 1106 404 1106 477 1106 c 0,15,16
 603 1106 603 1106 666 1021.5 c 128,-1,17
 729 937 729 937 729 750 c 2,18,-1
 729 0 l 1,19,-1
 635 0 l 1,0,-1
EndSplineSet
EndChar

StartChar: o
Encoding: 111 111 82
Width: 850
GlyphClass: 2
Flags: W
LayerCount: 2
Fore
SplineSet
756 545 m 0,0,1
 756 271 756 271 669.5 125.5 c 128,-1,2
 583 -20 583 -20 422 -20 c 0,3,4
 263 -20 263 -20 178.5 125.5 c 128,-1,5
 94 271 94 271 94 545 c 0,6,7
 94 1106 94 1106 426 1106 c 0,8,9
 582 1106 582 1106 669 959 c 128,-1,10
 756 812 756 812 756 545 c 0,0,1
193 545 m 256,11,12
 193 310 193 310 249 190 c 128,-1,13
 305 70 305 70 424 70 c 0,14,15
 657 70 657 70 657 545 c 0,16,17
 657 1016 657 1016 424 1016 c 0,18,19
 302 1016 302 1016 247.5 898 c 128,-1,20
 193 780 193 780 193 545 c 256,11,12
EndSplineSet
EndChar

StartChar: p
Encoding: 112 112 83
Width: 893
GlyphClass: 2
Flags: W
LayerCount: 2
Fore
SplineSet
494 -20 m 0,0,1
 412 -20 412 -20 344.5 25.5 c 128,-1,2
 277 71 277 71 242 150 c 1,3,-1
 233 150 l 1,4,-1
 240 31 l 1,5,-1
 240 -492 l 1,6,-1
 145 -492 l 1,7,-1
 145 1085 l 1,8,-1
 223 1085 l 1,9,-1
 233 936 l 1,10,-1
 242 936 l 1,11,12
 282 1018 282 1018 344.5 1062 c 128,-1,13
 407 1106 407 1106 481 1106 c 0,14,15
 799 1106 799 1106 799 545 c 0,16,17
 799 274 799 274 721 127 c 128,-1,18
 643 -20 643 -20 494 -20 c 0,0,1
475 1016 m 0,19,20
 356 1016 356 1016 298 911 c 128,-1,21
 240 806 240 806 240 582 c 2,22,-1
 240 551 l 2,23,24
 240 301 240 301 299 183.5 c 128,-1,25
 358 66 358 66 479 66 c 0,26,27
 591 66 591 66 645.5 182.5 c 128,-1,28
 700 299 700 299 700 545 c 0,29,30
 700 780 700 780 649 898 c 128,-1,31
 598 1016 598 1016 475 1016 c 0,19,20
EndSplineSet
EndChar

StartChar: q
Encoding: 113 113 84
Width: 893
GlyphClass: 2
Flags: W
LayerCount: 2
Fore
SplineSet
406 -20 m 0,0,1
 255 -20 255 -20 174.5 118.5 c 128,-1,2
 94 257 94 257 94 541 c 0,3,4
 94 828 94 828 178 967 c 128,-1,5
 262 1106 262 1106 410 1106 c 0,6,7
 566 1106 566 1106 649 940 c 1,8,-1
 657 940 l 1,9,-1
 672 1085 l 1,10,-1
 748 1085 l 1,11,-1
 748 -492 l 1,12,-1
 653 -492 l 1,13,-1
 653 -23 l 2,14,15
 653 44 653 44 662 158 c 1,16,-1
 653 158 l 1,17,18
 567 -20 567 -20 406 -20 c 0,0,1
420 66 m 0,19,20
 531 66 531 66 592 174.5 c 128,-1,21
 653 283 653 283 653 492 c 2,22,-1
 653 541 l 2,23,24
 653 787 653 787 593.5 901.5 c 128,-1,25
 534 1016 534 1016 412 1016 c 0,26,27
 295 1016 295 1016 244 893.5 c 128,-1,28
 193 771 193 771 193 539 c 0,29,30
 193 290 193 290 247.5 178 c 128,-1,31
 302 66 302 66 420 66 c 0,19,20
EndSplineSet
EndChar

StartChar: r
Encoding: 114 114 85
Width: 559
GlyphClass: 2
Flags: W
LayerCount: 2
Fore
SplineSet
446 1106 m 0,0,1
 497 1106 497 1106 541 1092 c 1,2,-1
 518 997 l 1,3,4
 482 1012 482 1012 444 1012 c 0,5,6
 389 1012 389 1012 341.5 955.5 c 128,-1,7
 294 899 294 899 267 798 c 128,-1,8
 240 697 240 697 240 575 c 2,9,-1
 240 0 l 1,10,-1
 145 0 l 1,11,-1
 145 1085 l 1,12,-1
 223 1085 l 1,13,-1
 233 895 l 1,14,-1
 240 895 l 1,15,16
 316 1106 316 1106 446 1106 c 0,0,1
EndSplineSet
EndChar

StartChar: s
Encoding: 115 115 86
Width: 645
GlyphClass: 2
Flags: W
LayerCount: 2
Fore
SplineSet
571 272 m 0,0,1
 571 135 571 135 499 57.5 c 128,-1,2
 427 -20 427 -20 291 -20 c 0,3,4
 217 -20 217 -20 161 -1 c 128,-1,5
 105 18 105 18 74 41 c 1,6,-1
 74 152 l 1,7,8
 111 115 111 115 172 92.5 c 128,-1,9
 233 70 233 70 297 70 c 0,10,11
 381 70 381 70 429 125 c 128,-1,12
 477 180 477 180 477 272 c 0,13,14
 477 344 477 344 442.5 393.5 c 128,-1,15
 408 443 408 443 311 506 c 0,16,17
 200 576 200 576 159.5 618 c 128,-1,18
 119 660 119 660 96.5 712 c 128,-1,19
 74 764 74 764 74 836 c 0,20,21
 74 953 74 953 153 1029.5 c 128,-1,22
 232 1106 232 1106 354 1106 c 0,23,24
 485 1106 485 1106 573 1044 c 1,25,-1
 524 961 l 1,26,27
 442 1016 442 1016 350 1016 c 0,28,29
 266 1016 266 1016 216 966.5 c 128,-1,30
 166 917 166 917 166 836 c 0,31,32
 166 764 166 764 200 715.5 c 128,-1,33
 234 667 234 667 344 598 c 0,34,35
 452 527 452 527 492 484.5 c 128,-1,36
 532 442 532 442 551.5 390.5 c 128,-1,37
 571 339 571 339 571 272 c 0,0,1
EndSplineSet
EndChar

StartChar: t
Encoding: 116 116 87
Width: 449
GlyphClass: 2
Flags: W
HStem: -20 88<260.68 420.777> 1001 84<236 408> 1001 56<43 92.152>
VStem: 141 95<109.267 1001> 170 66<1223.69 1343>
LayerCount: 2
Fore
SplineSet
344 68 m 0,0,1
 388 68 388 68 422 80 c 1,2,-1
 422 0 l 1,3,4
 378 -20 378 -20 309 -20 c 0,5,6
 141 -20 141 -20 141 231 c 2,7,-1
 141 1001 l 1,8,-1
 43 1001 l 1,9,-1
 43 1057 l 1,10,-1
 139 1085 l 1,11,-1
 170 1343 l 1,12,-1
 236 1343 l 1,13,-1
 236 1085 l 1,14,-1
 408 1085 l 1,15,-1
 408 1001 l 1,16,-1
 236 1001 l 1,17,-1
 236 258 l 2,18,19
 236 148 236 148 260 108 c 128,-1,20
 284 68 284 68 344 68 c 0,0,1
EndSplineSet
EndChar

StartChar: u
Encoding: 117 117 88
Width: 870
GlyphClass: 2
Flags: W
LayerCount: 2
Fore
SplineSet
236 1085 m 1,0,-1
 236 377 l 2,1,2
 236 216 236 216 274.5 142 c 128,-1,3
 313 68 313 68 393 68 c 0,4,5
 516 68 516 68 573.5 167.5 c 128,-1,6
 631 267 631 267 631 489 c 2,7,-1
 631 1085 l 1,8,-1
 725 1085 l 1,9,-1
 725 0 l 1,10,-1
 645 0 l 1,11,-1
 633 152 l 1,12,-1
 625 152 l 1,13,14
 590 69 590 69 528 24.5 c 128,-1,15
 466 -20 466 -20 393 -20 c 0,16,17
 262 -20 262 -20 201.5 73 c 128,-1,18
 141 166 141 166 141 377 c 2,19,-1
 141 1085 l 1,20,-1
 236 1085 l 1,0,-1
EndSplineSet
EndChar

StartChar: v
Encoding: 118 118 89
Width: 653
GlyphClass: 2
Flags: W
LayerCount: 2
Fore
SplineSet
266 0 m 1,0,-1
 10 1085 l 1,1,-1
 106 1085 l 1,2,-1
 268 387 l 2,3,4
 296 266 296 266 322 123 c 1,5,-1
 330 123 l 1,6,7
 337 175 337 175 350 239 c 128,-1,8
 363 303 363 303 547 1085 c 1,9,-1
 643 1085 l 1,10,-1
 379 0 l 1,11,-1
 266 0 l 1,0,-1
EndSplineSet
EndChar

StartChar: w
Encoding: 119 119 90
Width: 1124
GlyphClass: 2
Flags: W
LayerCount: 2
Fore
SplineSet
748 0 m 1,0,-1
 598 735 l 2,1,2
 596 743 596 743 594.5 752 c 128,-1,3
 593 761 593 761 563 944 c 1,4,-1
 561 944 l 1,5,-1
 547 859 l 1,6,-1
 524 735 l 1,7,-1
 369 0 l 1,8,-1
 256 0 l 1,9,-1
 20 1085 l 1,10,-1
 115 1085 l 1,11,-1
 250 453 l 1,12,-1
 313 123 l 1,13,-1
 319 123 l 1,14,15
 337 266 337 266 377 455 c 2,16,-1
 512 1085 l 1,17,-1
 612 1085 l 1,18,-1
 748 453 l 2,19,20
 764 382 764 382 805 123 c 1,21,-1
 811 123 l 1,22,23
 814 156 814 156 840.5 289 c 128,-1,24
 867 422 867 422 1010 1085 c 1,25,-1
 1104 1085 l 1,26,-1
 860 0 l 1,27,-1
 748 0 l 1,0,-1
EndSplineSet
EndChar

StartChar: x
Encoding: 120 120 91
Width: 676
GlyphClass: 2
Flags: W
LayerCount: 2
Fore
SplineSet
293 563 m 1,0,-1
 55 1085 l 1,1,-1
 158 1085 l 1,2,-1
 340 645 l 1,3,-1
 530 1085 l 1,4,-1
 629 1085 l 1,5,-1
 387 551 l 1,6,-1
 641 0 l 1,7,-1
 541 0 l 1,8,-1
 338 469 l 1,9,-1
 133 0 l 1,10,-1
 35 0 l 1,11,-1
 293 563 l 1,0,-1
EndSplineSet
EndChar

StartChar: y
Encoding: 121 121 92
Width: 653
GlyphClass: 2
Flags: W
LayerCount: 2
Fore
SplineSet
281 2 m 1,0,-1
 10 1085 l 1,1,-1
 106 1085 l 1,2,-1
 270 408 l 2,3,4
 299 286 299 286 326 133 c 1,5,-1
 334 133 l 1,6,7
 353 266 353 266 387 410 c 2,8,-1
 547 1085 l 1,9,-1
 643 1085 l 1,10,-1
 326 -205 l 2,11,12
 291 -348 291 -348 234.5 -420 c 128,-1,13
 178 -492 178 -492 84 -492 c 0,14,15
 46 -492 46 -492 -2 -475 c 1,16,-1
 -2 -389 l 1,17,18
 38 -403 38 -403 76 -403 c 0,19,20
 136 -403 136 -403 171 -351.5 c 128,-1,21
 206 -300 206 -300 233 -186 c 2,22,-1
 281 2 l 1,0,-1
EndSplineSet
EndChar

StartChar: z
Encoding: 122 122 93
Width: 541
GlyphClass: 2
Flags: W
LayerCount: 2
Fore
SplineSet
494 0 m 1,0,-1
 59 0 l 1,1,-1
 59 76 l 1,2,-1
 379 1001 l 1,3,-1
 80 1001 l 1,4,-1
 80 1085 l 1,5,-1
 479 1085 l 1,6,-1
 479 1008 l 1,7,-1
 160 84 l 1,8,-1
 494 84 l 1,9,-1
 494 0 l 1,0,-1
EndSplineSet
EndChar

StartChar: braceleft
Encoding: 123 123 94
Width: 737
GlyphClass: 2
Flags: W
LayerCount: 2
Fore
SplineSet
109 604 m 1,0,1
 186 604 186 604 230.5 624 c 128,-1,2
 275 644 275 644 295 686.5 c 128,-1,3
 315 729 315 729 315 819 c 2,4,-1
 315 1143 l 2,5,6
 315 1291 315 1291 399 1374.5 c 128,-1,7
 483 1458 483 1458 633 1462 c 1,8,-1
 633 1382 l 1,9,10
 521 1380 521 1380 467.5 1323 c 128,-1,11
 414 1266 414 1266 414 1147 c 2,12,-1
 414 831 l 2,13,14
 414 710 414 710 368.5 651.5 c 128,-1,15
 323 593 323 593 219 573 c 1,16,-1
 219 565 l 1,17,18
 325 545 325 545 369.5 486.5 c 128,-1,19
 414 428 414 428 414 307 c 2,20,-1
 414 -8 l 2,21,22
 414 -127 414 -127 467.5 -184.5 c 128,-1,23
 521 -242 521 -242 633 -244 c 1,24,-1
 633 -324 l 1,25,26
 481 -320 481 -320 398 -235 c 128,-1,27
 315 -150 315 -150 315 -4 c 2,28,-1
 315 319 l 2,29,30
 315 408 315 408 295.5 451 c 128,-1,31
 276 494 276 494 232 514.5 c 128,-1,32
 188 535 188 535 109 535 c 1,33,-1
 109 604 l 1,0,1
EndSplineSet
EndChar

StartChar: bar
Encoding: 124 124 95
Width: 819
GlyphClass: 2
Flags: W
LayerCount: 2
Fore
SplineSet
457 -492 m 1,0,-1
 362 -492 l 1,1,-1
 362 1556 l 1,2,-1
 457 1556 l 1,3,-1
 457 -492 l 1,0,-1
EndSplineSet
EndChar

StartChar: braceright
Encoding: 125 125 96
Width: 737
GlyphClass: 2
Flags: W
LayerCount: 2
Fore
SplineSet
629 535 m 1,0,1
 551 535 551 535 506.5 514.5 c 128,-1,2
 462 494 462 494 442 452 c 128,-1,3
 422 410 422 410 422 319 c 2,4,-1
 422 -4 l 2,5,6
 422 -151 422 -151 338.5 -235.5 c 128,-1,7
 255 -320 255 -320 104 -324 c 1,8,-1
 104 -244 l 1,9,10
 216 -242 216 -242 270 -184.5 c 128,-1,11
 324 -127 324 -127 324 -8 c 2,12,-1
 324 307 l 2,13,14
 324 428 324 428 368.5 486.5 c 128,-1,15
 413 545 413 545 518 565 c 1,16,-1
 518 573 l 1,17,18
 415 593 415 593 369.5 651.5 c 128,-1,19
 324 710 324 710 324 831 c 2,20,-1
 324 1147 l 2,21,22
 324 1266 324 1266 270 1323 c 128,-1,23
 216 1380 216 1380 104 1382 c 1,24,-1
 104 1462 l 1,25,26
 254 1458 254 1458 338 1374 c 128,-1,27
 422 1290 422 1290 422 1143 c 2,28,-1
 422 819 l 2,29,30
 422 729 422 729 442 687 c 128,-1,31
 462 645 462 645 506.5 624.5 c 128,-1,32
 551 604 551 604 629 604 c 1,33,-1
 629 535 l 1,0,1
EndSplineSet
EndChar

StartChar: asciitilde
Encoding: 126 126 97
Width: 819
GlyphClass: 2
Flags: W
LayerCount: 2
Fore
SplineSet
242 739 m 0,0,1
 201 739 201 739 151.5 706.5 c 128,-1,2
 102 674 102 674 59 618 c 1,3,-1
 59 717 l 1,4,5
 134 823 134 823 244 823 c 0,6,7
 283 823 283 823 319 813.5 c 128,-1,8
 355 804 355 804 428 764 c 0,9,10
 477 736 477 736 511 723.5 c 128,-1,11
 545 711 545 711 580 711 c 0,12,13
 629 711 629 711 676 743.5 c 128,-1,14
 723 776 723 776 760 827 c 1,15,-1
 760 729 l 1,16,17
 687 625 687 625 580 625 c 0,18,19
 531 625 531 625 496.5 635.5 c 128,-1,20
 462 646 462 646 393 684 c 0,21,22
 334 717 334 717 304 728 c 128,-1,23
 274 739 274 739 242 739 c 0,0,1
EndSplineSet
EndChar

StartChar: exclamdown
Encoding: 161 161 99
Width: 451
GlyphClass: 2
Flags: W
LayerCount: 2
Fore
SplineSet
287 -391 m 1,0,-1
 162 -391 l 1,1,-1
 197 705 l 1,2,-1
 252 705 l 1,3,-1
 287 -391 l 1,0,-1
147 981 m 0,4,5
 147 1087 147 1087 225 1087 c 0,6,7
 257 1087 257 1087 280 1062.5 c 128,-1,8
 303 1038 303 1038 303 981 c 0,9,10
 303 922 303 922 280 898 c 128,-1,11
 257 874 257 874 225 874 c 0,12,13
 147 874 147 874 147 981 c 0,4,5
EndSplineSet
EndChar

StartChar: cent
Encoding: 162 162 100
Width: 819
GlyphClass: 2
Flags: W
LayerCount: 2
Fore
SplineSet
438 -20 m 1,0,-1
 438 193 l 1,1,2
 303 216 303 216 235.5 357 c 128,-1,3
 168 498 168 498 168 745 c 0,4,5
 168 994 168 994 235 1137.5 c 128,-1,6
 302 1281 302 1281 438 1309 c 1,7,-1
 438 1483 l 1,8,-1
 520 1483 l 1,9,-1
 520 1315 l 1,10,11
 608 1309 608 1309 666 1278 c 1,12,-1
 629 1192 l 1,13,14
 559 1221 559 1221 506 1221 c 0,15,16
 380 1221 380 1221 324 1099 c 128,-1,17
 268 977 268 977 268 748 c 0,18,19
 268 279 268 279 506 279 c 0,20,21
 576 279 576 279 659 311 c 1,22,-1
 659 227 l 1,23,24
 608 197 608 197 520 188 c 1,25,-1
 520 -20 l 1,26,-1
 438 -20 l 1,0,-1
EndSplineSet
EndChar

StartChar: sterling
Encoding: 163 163 101
Width: 819
GlyphClass: 2
Flags: W
LayerCount: 2
Fore
SplineSet
506 1483 m 0,0,1
 640 1483 640 1483 741 1395 c 1,2,-1
 686 1319 l 1,3,4
 633 1362 633 1362 593 1377.5 c 128,-1,5
 553 1393 553 1393 504 1393 c 0,6,7
 414 1393 414 1393 375 1327.5 c 128,-1,8
 336 1262 336 1262 336 1120 c 2,9,-1
 336 768 l 1,10,-1
 586 768 l 1,11,-1
 586 682 l 1,12,-1
 336 682 l 1,13,-1
 336 395 l 2,14,15
 336 181 336 181 215 94 c 1,16,-1
 737 94 l 1,17,-1
 737 0 l 1,18,-1
 92 0 l 1,19,-1
 92 82 l 1,20,21
 160 111 160 111 199 192.5 c 128,-1,22
 238 274 238 274 238 393 c 2,23,-1
 238 682 l 1,24,-1
 80 682 l 1,25,-1
 80 768 l 1,26,-1
 238 768 l 1,27,-1
 238 1122 l 2,28,29
 238 1305 238 1305 302.5 1394 c 128,-1,30
 367 1483 367 1483 506 1483 c 0,0,1
EndSplineSet
EndChar

StartChar: currency
Encoding: 164 164 102
Width: 1135
GlyphClass: 2
Flags: W
LayerCount: 2
Fore
SplineSet
174 723 m 0,0,1
 174 859 174 859 260 969 c 1,2,-1
 125 1106 l 1,3,-1
 182 1163 l 1,4,-1
 317 1026 l 1,5,6
 426 1116 426 1116 567 1116 c 0,7,8
 706 1116 706 1116 813 1028 c 1,9,-1
 948 1163 l 1,10,-1
 1008 1106 l 1,11,-1
 872 971 l 1,12,13
 961 863 961 863 961 723 c 256,14,15
 961 583 961 583 872 475 c 1,16,-1
 1008 338 l 1,17,-1
 950 281 l 1,18,-1
 813 416 l 1,19,20
 706 330 706 330 567 330 c 0,21,22
 424 330 424 330 317 418 c 1,23,-1
 184 283 l 1,24,-1
 127 342 l 1,25,-1
 260 475 l 1,26,27
 174 585 174 585 174 723 c 0,0,1
252 723 m 0,28,29
 252 591 252 591 343 499.5 c 128,-1,30
 434 408 434 408 567 408 c 256,31,32
 700 408 700 408 792.5 500 c 128,-1,33
 885 592 885 592 885 723 c 0,34,35
 885 808 885 808 843 881 c 128,-1,36
 801 954 801 954 726.5 997 c 128,-1,37
 652 1040 652 1040 567 1040 c 256,38,39
 482 1040 482 1040 408.5 997.5 c 128,-1,40
 335 955 335 955 293.5 882 c 128,-1,41
 252 809 252 809 252 723 c 0,28,29
EndSplineSet
EndChar

StartChar: yen
Encoding: 165 165 103
Width: 819
GlyphClass: 2
Flags: W
LayerCount: 2
Fore
SplineSet
332 655 m 1,0,-1
 106 1462 l 1,1,-1
 203 1462 l 1,2,-1
 410 696 l 1,3,-1
 612 1462 l 1,4,-1
 711 1462 l 1,5,-1
 483 655 l 1,6,-1
 680 655 l 1,7,-1
 680 573 l 1,8,-1
 459 573 l 1,9,-1
 459 373 l 1,10,-1
 680 373 l 1,11,-1
 680 291 l 1,12,-1
 459 291 l 1,13,-1
 459 0 l 1,14,-1
 356 0 l 1,15,-1
 356 291 l 1,16,-1
 141 291 l 1,17,-1
 141 373 l 1,18,-1
 356 373 l 1,19,-1
 356 571 l 1,20,-1
 354 573 l 1,21,-1
 141 573 l 1,22,-1
 141 655 l 1,23,-1
 332 655 l 1,0,-1
EndSplineSet
EndChar

StartChar: brokenbar
Encoding: 166 166 104
Width: 819
GlyphClass: 2
Flags: W
LayerCount: 2
Fore
SplineSet
457 758 m 1,0,-1
 362 758 l 1,1,-1
 362 1556 l 1,2,-1
 457 1556 l 1,3,-1
 457 758 l 1,0,-1
457 -492 m 1,4,-1
 362 -492 l 1,5,-1
 362 307 l 1,6,-1
 457 307 l 1,7,-1
 457 -492 l 1,4,-1
EndSplineSet
EndChar

StartChar: section
Encoding: 167 167 105
Width: 698
GlyphClass: 2
Flags: W
LayerCount: 2
Fore
SplineSet
102 1303 m 0,0,1
 102 1416 102 1416 180 1486 c 128,-1,2
 258 1556 258 1556 377 1556 c 0,3,4
 436 1556 436 1556 477.5 1546 c 128,-1,5
 519 1536 519 1536 582 1501 c 1,6,-1
 543 1427 l 1,7,8
 493 1457 493 1457 455.5 1467 c 128,-1,9
 418 1477 418 1477 373 1477 c 0,10,11
 292 1477 292 1477 243.5 1432 c 128,-1,12
 195 1387 195 1387 195 1315 c 0,13,14
 195 1251 195 1251 229 1207.5 c 128,-1,15
 263 1164 263 1164 373 1100 c 0,16,17
 482 1037 482 1037 521 1000 c 128,-1,18
 560 963 560 963 580 918.5 c 128,-1,19
 600 874 600 874 600 813 c 0,20,21
 600 742 600 742 567 679 c 128,-1,22
 534 616 534 616 481 584 c 1,23,24
 546 534 546 534 573 482.5 c 128,-1,25
 600 431 600 431 600 369 c 0,26,27
 600 246 600 246 520.5 172 c 128,-1,28
 441 98 441 98 307 98 c 0,29,30
 169 98 169 98 82 154 c 1,31,-1
 82 254 l 1,32,33
 122 219 122 219 181 199.5 c 128,-1,34
 240 180 240 180 305 180 c 0,35,36
 395 180 395 180 450.5 232 c 128,-1,37
 506 284 506 284 506 362 c 0,38,39
 506 426 506 426 473 469.5 c 128,-1,40
 440 513 440 513 340 573 c 2,41,-1
 246 628 l 2,42,43
 164 676 164 676 123 731.5 c 128,-1,44
 82 787 82 787 82 858 c 0,45,46
 82 939 82 939 121.5 997.5 c 128,-1,47
 161 1056 161 1056 229 1085 c 1,48,49
 102 1174 102 1174 102 1303 c 0,0,1
506 807 m 0,50,51
 506 857 506 857 489 892 c 128,-1,52
 472 927 472 927 434.5 957 c 128,-1,53
 397 987 397 987 299 1040 c 1,54,55
 236 1020 236 1020 205 974.5 c 128,-1,56
 174 929 174 929 174 870 c 0,57,58
 174 805 174 805 227 752 c 128,-1,59
 280 699 280 699 414 635 c 1,60,61
 506 688 506 688 506 807 c 0,50,51
EndSplineSet
EndChar

StartChar: dieresis
Encoding: 168 168 106
Width: 1126
GlyphClass: 2
Flags: W
LayerCount: 2
Fore
SplineSet
348 1389 m 0,0,1
 348 1432 348 1432 367.5 1451 c 128,-1,2
 387 1470 387 1470 412 1470 c 0,3,4
 435 1470 435 1470 454 1451 c 128,-1,5
 473 1432 473 1432 473 1389 c 0,6,7
 473 1345 473 1345 454 1325 c 128,-1,8
 435 1305 435 1305 412 1305 c 0,9,10
 387 1305 387 1305 367.5 1325 c 128,-1,11
 348 1345 348 1345 348 1389 c 0,0,1
653 1389 m 0,12,13
 653 1432 653 1432 672.5 1451 c 128,-1,14
 692 1470 692 1470 715 1470 c 0,15,16
 740 1470 740 1470 759 1451 c 128,-1,17
 778 1432 778 1432 778 1389 c 0,18,19
 778 1345 778 1345 759 1325 c 128,-1,20
 740 1305 740 1305 715 1305 c 0,21,22
 692 1305 692 1305 672.5 1325 c 128,-1,23
 653 1345 653 1345 653 1389 c 0,12,13
EndSplineSet
EndChar

StartChar: copyright
Encoding: 169 169 107
Width: 1704
GlyphClass: 2
Flags: W
LayerCount: 2
Fore
SplineSet
897 1092 m 0,0,1
 755 1092 755 1092 674.5 997.5 c 128,-1,2
 594 903 594 903 594 733 c 0,3,4
 594 547 594 547 668.5 458 c 128,-1,5
 743 369 743 369 889 369 c 0,6,7
 973 369 973 369 1087 412 c 1,8,-1
 1087 324 l 1,9,10
 985 279 985 279 879 279 c 0,11,12
 692 279 692 279 590.5 394 c 128,-1,13
 489 509 489 509 489 725 c 0,14,15
 489 933 489 933 600 1057.5 c 128,-1,16
 711 1182 711 1182 897 1182 c 0,17,18
 1016 1182 1016 1182 1124 1130 c 1,19,-1
 1087 1047 l 1,20,21
 989 1092 989 1092 897 1092 c 0,0,1
100 731 m 0,22,23
 100 931 100 931 200 1106 c 128,-1,24
 300 1281 300 1281 475 1382 c 128,-1,25
 650 1483 650 1483 852 1483 c 0,26,27
 1052 1483 1052 1483 1227 1383 c 128,-1,28
 1402 1283 1402 1283 1503 1108 c 128,-1,29
 1604 933 1604 933 1604 731 c 0,30,31
 1604 534 1604 534 1507 361 c 128,-1,32
 1410 188 1410 188 1235 84 c 128,-1,33
 1060 -20 1060 -20 852 -20 c 0,34,35
 645 -20 645 -20 470 83.5 c 128,-1,36
 295 187 295 187 197.5 360 c 128,-1,37
 100 533 100 533 100 731 c 0,22,23
193 731 m 0,38,39
 193 553 193 553 281.5 401.5 c 128,-1,40
 370 250 370 250 522 161 c 128,-1,41
 674 72 674 72 852 72 c 256,42,43
 1030 72 1030 72 1181.5 160.5 c 128,-1,44
 1333 249 1333 249 1422 401 c 128,-1,45
 1511 553 1511 553 1511 731 c 0,46,47
 1511 905 1511 905 1425.5 1056 c 128,-1,48
 1340 1207 1340 1207 1186.5 1299 c 128,-1,49
 1033 1391 1033 1391 852 1391 c 0,50,51
 676 1391 676 1391 523.5 1302.5 c 128,-1,52
 371 1214 371 1214 282 1060 c 128,-1,53
 193 906 193 906 193 731 c 0,38,39
EndSplineSet
EndChar

StartChar: ordfeminine
Encoding: 170 170 108
Width: 578
GlyphClass: 2
Flags: W
LayerCount: 2
Fore
SplineSet
406 817 m 1,0,-1
 391 901 l 1,1,-1
 383 901 l 1,2,3
 314 805 314 805 211 805 c 0,4,5
 144 805 144 805 100.5 854.5 c 128,-1,6
 57 904 57 904 57 989 c 0,7,8
 57 1080 57 1080 112 1129.5 c 128,-1,9
 167 1179 167 1179 289 1190 c 2,10,-1
 381 1198 l 1,11,-1
 381 1270 l 2,12,13
 381 1344 381 1344 357 1376.5 c 128,-1,14
 333 1409 333 1409 276 1409 c 0,15,16
 214 1409 214 1409 143 1370 c 1,17,-1
 115 1434 l 1,18,19
 196 1479 196 1479 285 1479 c 0,20,21
 381 1479 381 1479 422 1429 c 128,-1,22
 463 1379 463 1379 463 1272 c 2,23,-1
 463 817 l 1,24,-1
 406 817 l 1,0,-1
143 987 m 0,25,26
 143 874 143 874 238 874 c 0,27,28
 306 874 306 874 343.5 925.5 c 128,-1,29
 381 977 381 977 381 1069 c 2,30,-1
 381 1135 l 1,31,-1
 319 1128 l 2,32,33
 224 1119 224 1119 183.5 1087.5 c 128,-1,34
 143 1056 143 1056 143 987 c 0,25,26
EndSplineSet
EndChar

StartChar: guillemotleft
Encoding: 171 171 109
Width: 856
GlyphClass: 2
Flags: W
LayerCount: 2
Fore
SplineSet
82 541 m 1,0,-1
 369 907 l 1,1,-1
 430 872 l 1,2,-1
 211 528 l 1,3,-1
 430 184 l 1,4,-1
 369 147 l 1,5,-1
 82 514 l 1,6,-1
 82 541 l 1,0,-1
426 541 m 1,7,-1
 715 907 l 1,8,-1
 774 872 l 1,9,-1
 557 528 l 1,10,-1
 774 184 l 1,11,-1
 715 147 l 1,12,-1
 426 514 l 1,13,-1
 426 541 l 1,7,-1
EndSplineSet
EndChar

StartChar: logicalnot
Encoding: 172 172 110
Width: 819
GlyphClass: 2
Flags: W
LayerCount: 2
Fore
SplineSet
739 250 m 1,0,-1
 657 250 l 1,1,-1
 657 682 l 1,2,-1
 59 682 l 1,3,-1
 59 764 l 1,4,-1
 739 764 l 1,5,-1
 739 250 l 1,0,-1
EndSplineSet
EndChar

StartChar: registered
Encoding: 174 174 112
Width: 1704
GlyphClass: 2
Flags: W
LayerCount: 2
Fore
SplineSet
709 731 m 1,0,-1
 821 731 l 2,1,2
 912 731 912 731 964 777.5 c 128,-1,3
 1016 824 1016 824 1016 913 c 0,4,5
 1016 1085 1016 1085 819 1085 c 2,6,-1
 709 1085 l 1,7,-1
 709 731 l 1,0,-1
1120 918 m 0,8,9
 1120 743 1120 743 973 678 c 1,10,-1
 1171 291 l 1,11,-1
 1057 291 l 1,12,-1
 883 651 l 1,13,-1
 709 651 l 1,14,-1
 709 291 l 1,15,-1
 608 291 l 1,16,-1
 608 1171 l 1,17,-1
 819 1171 l 2,18,19
 962 1171 962 1171 1041 1109 c 128,-1,20
 1120 1047 1120 1047 1120 918 c 0,8,9
100 731 m 0,21,22
 100 931 100 931 200 1106 c 128,-1,23
 300 1281 300 1281 475 1382 c 128,-1,24
 650 1483 650 1483 852 1483 c 0,25,26
 1052 1483 1052 1483 1227 1383 c 128,-1,27
 1402 1283 1402 1283 1503 1108 c 128,-1,28
 1604 933 1604 933 1604 731 c 0,29,30
 1604 534 1604 534 1507 361 c 128,-1,31
 1410 188 1410 188 1235 84 c 128,-1,32
 1060 -20 1060 -20 852 -20 c 0,33,34
 645 -20 645 -20 470 83.5 c 128,-1,35
 295 187 295 187 197.5 360 c 128,-1,36
 100 533 100 533 100 731 c 0,21,22
193 731 m 0,37,38
 193 553 193 553 281.5 401.5 c 128,-1,39
 370 250 370 250 522 161 c 128,-1,40
 674 72 674 72 852 72 c 256,41,42
 1030 72 1030 72 1181.5 160.5 c 128,-1,43
 1333 249 1333 249 1422 401 c 128,-1,44
 1511 553 1511 553 1511 731 c 0,45,46
 1511 905 1511 905 1425.5 1056 c 128,-1,47
 1340 1207 1340 1207 1186.5 1299 c 128,-1,48
 1033 1391 1033 1391 852 1391 c 0,49,50
 676 1391 676 1391 523.5 1302.5 c 128,-1,51
 371 1214 371 1214 282 1060 c 128,-1,52
 193 906 193 906 193 731 c 0,37,38
EndSplineSet
EndChar

StartChar: overscore
Encoding: 175 175 113
Width: 842
GlyphClass: 2
Flags: W
LayerCount: 2
Fore
SplineSet
850 1556 m 1,0,-1
 -8 1556 l 1,1,-1
 -8 1638 l 1,2,-1
 850 1638 l 1,3,-1
 850 1556 l 1,0,-1
EndSplineSet
EndChar

StartChar: degree
Encoding: 176 176 114
Width: 877
GlyphClass: 2
Flags: W
LayerCount: 2
Fore
SplineSet
139 1184 m 0,0,1
 139 1316 139 1316 225.5 1399.5 c 128,-1,2
 312 1483 312 1483 438 1483 c 256,3,4
 564 1483 564 1483 650.5 1399.5 c 128,-1,5
 737 1316 737 1316 737 1184 c 256,6,7
 737 1052 737 1052 650.5 968.5 c 128,-1,8
 564 885 564 885 438 885 c 0,9,10
 308 885 308 885 223.5 968 c 128,-1,11
 139 1051 139 1051 139 1184 c 0,0,1
229 1184 m 0,12,13
 229 1093 229 1093 290 1030 c 128,-1,14
 351 967 351 967 438 967 c 0,15,16
 524 967 524 967 585.5 1029 c 128,-1,17
 647 1091 647 1091 647 1184 c 0,18,19
 647 1276 647 1276 587 1338.5 c 128,-1,20
 527 1401 527 1401 438 1401 c 0,21,22
 348 1401 348 1401 288.5 1337 c 128,-1,23
 229 1273 229 1273 229 1184 c 0,12,13
EndSplineSet
EndChar

StartChar: plusminus
Encoding: 177 177 115
Width: 819
GlyphClass: 2
Flags: W
LayerCount: 2
Fore
SplineSet
369 682 m 1,0,-1
 59 682 l 1,1,-1
 59 764 l 1,2,-1
 369 764 l 1,3,-1
 369 1198 l 1,4,-1
 451 1198 l 1,5,-1
 451 764 l 1,6,-1
 760 764 l 1,7,-1
 760 682 l 1,8,-1
 451 682 l 1,9,-1
 451 250 l 1,10,-1
 369 250 l 1,11,-1
 369 682 l 1,0,-1
59 0 m 1,12,-1
 59 82 l 1,13,-1
 760 82 l 1,14,-1
 760 0 l 1,15,-1
 59 0 l 1,12,-1
EndSplineSet
EndChar

StartChar: twosuperior
Encoding: 178 178 116
Width: 614
GlyphClass: 2
Flags: W
LayerCount: 2
Fore
SplineSet
520 586 m 1,0,-1
 49 586 l 1,1,-1
 49 664 l 1,2,-1
 227 887 l 2,3,4
 306 985 306 985 343.5 1041.5 c 128,-1,5
 381 1098 381 1098 396.5 1142.5 c 128,-1,6
 412 1187 412 1187 412 1251 c 0,7,8
 412 1317 412 1317 374.5 1357 c 128,-1,9
 337 1397 337 1397 270 1397 c 0,10,11
 182 1397 182 1397 106 1315 c 1,12,-1
 51 1376 l 1,13,14
 145 1483 145 1483 272 1483 c 0,15,16
 382 1483 382 1483 444 1420.5 c 128,-1,17
 506 1358 506 1358 506 1251 c 0,18,19
 506 1164 506 1164 468 1086.5 c 128,-1,20
 430 1009 430 1009 295 844 c 2,21,-1
 150 668 l 1,22,-1
 520 668 l 1,23,-1
 520 586 l 1,0,-1
EndSplineSet
EndChar

StartChar: threesuperior
Encoding: 179 179 117
Width: 614
GlyphClass: 2
Flags: W
LayerCount: 2
Fore
SplineSet
498 1255 m 0,0,1
 498 1183 498 1183 461.5 1130 c 128,-1,2
 425 1077 425 1077 360 1053 c 1,3,-1
 360 1044 l 1,4,5
 526 998 526 998 526 819 c 0,6,7
 526 709 526 709 450.5 639 c 128,-1,8
 375 569 375 569 250 569 c 0,9,10
 151 569 151 569 53 612 c 1,11,-1
 53 707 l 1,12,13
 148 655 148 655 252 655 c 0,14,15
 346 655 346 655 389 700 c 128,-1,16
 432 745 432 745 432 819 c 0,17,18
 432 909 432 909 380.5 956.5 c 128,-1,19
 329 1004 329 1004 227 1004 c 2,20,-1
 166 1004 l 1,21,-1
 166 1085 l 1,22,-1
 231 1085 l 2,23,24
 316 1085 316 1085 362 1133 c 128,-1,25
 408 1181 408 1181 408 1260 c 0,26,27
 408 1326 408 1326 368.5 1362.5 c 128,-1,28
 329 1399 329 1399 258 1399 c 0,29,30
 174 1399 174 1399 100 1327 c 1,31,-1
 47 1395 l 1,32,33
 146 1485 146 1485 266 1485 c 0,34,35
 377 1485 377 1485 437.5 1423.5 c 128,-1,36
 498 1362 498 1362 498 1255 c 0,0,1
EndSplineSet
EndChar

StartChar: acute
Encoding: 180 180 118
Width: 1126
GlyphClass: 2
Flags: W
LayerCount: 2
Fore
SplineSet
434 1241 m 1,0,-1
 434 1262 l 1,1,2
 561 1428 561 1428 625 1569 c 1,3,-1
 750 1569 l 1,4,-1
 750 1552 l 1,5,6
 711 1482 711 1482 631.5 1391 c 128,-1,7
 552 1300 552 1300 481 1241 c 1,8,-1
 434 1241 l 1,0,-1
EndSplineSet
EndChar

StartChar: mu
Encoding: 181 181 119
Width: 874
GlyphClass: 2
Flags: W
LayerCount: 2
Fore
SplineSet
240 1085 m 1,0,-1
 240 352 l 2,1,2
 240 68 240 68 397 68 c 0,3,4
 520 68 520 68 577.5 167.5 c 128,-1,5
 635 267 635 267 635 489 c 2,6,-1
 635 1085 l 1,7,-1
 729 1085 l 1,8,-1
 729 0 l 1,9,-1
 649 0 l 1,10,-1
 637 152 l 1,11,-1
 629 152 l 1,12,13
 595 71 595 71 534 25.5 c 128,-1,14
 473 -20 473 -20 406 -20 c 0,15,16
 288 -20 288 -20 240 86 c 1,17,-1
 231 86 l 1,18,19
 240 -34 240 -34 240 -97 c 2,20,-1
 240 -492 l 1,21,-1
 145 -492 l 1,22,-1
 145 1085 l 1,23,-1
 240 1085 l 1,0,-1
EndSplineSet
EndChar

StartChar: paragraph
Encoding: 182 182 120
Width: 967
GlyphClass: 2
Flags: W
LayerCount: 2
Fore
SplineSet
768 -260 m 1,0,-1
 674 -260 l 1,1,-1
 674 1460 l 1,2,-1
 528 1460 l 1,3,-1
 528 -260 l 1,4,-1
 434 -260 l 1,5,-1
 434 559 l 1,6,7
 404 541 404 541 365 541 c 0,8,9
 254 541 254 541 202 664 c 128,-1,10
 150 787 150 787 150 1042 c 256,11,12
 150 1297 150 1297 213 1426.5 c 128,-1,13
 276 1556 276 1556 414 1556 c 2,14,-1
 768 1556 l 1,15,-1
 768 -260 l 1,0,-1
EndSplineSet
EndChar

StartChar: periodcentered
Encoding: 183 183 121
Width: 422
GlyphClass: 2
Flags: W
LayerCount: 2
Fore
SplineSet
133 721 m 0,0,1
 133 827 133 827 211 827 c 256,2,3
 289 827 289 827 289 721 c 0,4,5
 289 664 289 664 266 639 c 128,-1,6
 243 614 243 614 211 614 c 0,7,8
 133 614 133 614 133 721 c 0,0,1
EndSplineSet
EndChar

StartChar: cedilla
Encoding: 184 184 122
Width: 465
GlyphClass: 2
Flags: W
LayerCount: 2
Fore
SplineSet
379 -291 m 0,0,1
 379 -391 379 -391 316.5 -441.5 c 128,-1,2
 254 -492 254 -492 145 -492 c 0,3,4
 83 -492 83 -492 59 -481 c 1,5,-1
 59 -403 l 1,6,7
 90 -414 90 -414 137 -414 c 0,8,9
 215 -414 215 -414 252 -380.5 c 128,-1,10
 289 -347 289 -347 289 -293 c 0,11,12
 289 -233 289 -233 245 -202.5 c 128,-1,13
 201 -172 201 -172 123 -160 c 1,14,-1
 195 0 l 1,15,-1
 270 0 l 1,16,-1
 219 -115 l 1,17,18
 379 -154 379 -154 379 -291 c 0,0,1
EndSplineSet
EndChar

StartChar: onesuperior
Encoding: 185 185 123
Width: 614
GlyphClass: 2
Flags: W
LayerCount: 2
Fore
SplineSet
397 586 m 1,0,-1
 311 586 l 1,1,-1
 311 1200 l 2,2,3
 311 1286 311 1286 317 1370 c 1,4,5
 284 1339 284 1339 262 1321 c 128,-1,6
 240 1303 240 1303 131 1225 c 1,7,-1
 82 1290 l 1,8,-1
 319 1462 l 1,9,-1
 397 1462 l 1,10,-1
 397 586 l 1,0,-1
EndSplineSet
EndChar

StartChar: ordmasculine
Encoding: 186 186 124
Width: 618
GlyphClass: 2
Flags: W
LayerCount: 2
Fore
SplineSet
549 1143 m 0,0,1
 549 978 549 978 488 891.5 c 128,-1,2
 427 805 427 805 311 805 c 0,3,4
 192 805 192 805 131 891.5 c 128,-1,5
 70 978 70 978 70 1143 c 0,6,7
 70 1303 70 1303 133.5 1391 c 128,-1,8
 197 1479 197 1479 311 1479 c 0,9,10
 424 1479 424 1479 486.5 1396.5 c 128,-1,11
 549 1314 549 1314 549 1143 c 0,0,1
160 1143 m 0,12,13
 160 1004 160 1004 196 941.5 c 128,-1,14
 232 879 232 879 309 879 c 0,15,16
 391 879 391 879 425 941.5 c 128,-1,17
 459 1004 459 1004 459 1143 c 256,18,19
 459 1282 459 1282 423.5 1343.5 c 128,-1,20
 388 1405 388 1405 309 1405 c 0,21,22
 240 1405 240 1405 200 1342.5 c 128,-1,23
 160 1280 160 1280 160 1143 c 0,12,13
EndSplineSet
EndChar

StartChar: guillemotright
Encoding: 187 187 125
Width: 856
GlyphClass: 2
Flags: W
LayerCount: 2
Fore
SplineSet
774 514 m 1,0,-1
 487 147 l 1,1,-1
 426 184 l 1,2,-1
 645 528 l 1,3,-1
 426 872 l 1,4,-1
 487 907 l 1,5,-1
 774 541 l 1,6,-1
 774 514 l 1,0,-1
430 514 m 1,7,-1
 141 147 l 1,8,-1
 82 184 l 1,9,-1
 299 528 l 1,10,-1
 82 872 l 1,11,-1
 141 907 l 1,12,-1
 430 541 l 1,13,-1
 430 514 l 1,7,-1
EndSplineSet
EndChar

StartChar: questiondown
Encoding: 191 191 129
Width: 578
GlyphClass: 2
Flags: W
LayerCount: 2
Fore
SplineSet
387 705 m 1,0,-1
 387 653 l 2,1,2
 387 538 387 538 366 464 c 128,-1,3
 345 390 345 390 289 305 c 0,4,5
 221 202 221 202 197 150 c 128,-1,6
 173 98 173 98 160 42.5 c 128,-1,7
 147 -13 147 -13 147 -82 c 0,8,9
 147 -198 147 -198 193 -260 c 128,-1,10
 239 -322 239 -322 317 -322 c 0,11,12
 374 -322 374 -322 414 -306 c 128,-1,13
 454 -290 454 -290 496 -262 c 1,14,-1
 543 -338 l 1,15,16
 441 -412 441 -412 317 -412 c 0,17,18
 185 -412 185 -412 116 -327 c 128,-1,19
 47 -242 47 -242 47 -88 c 0,20,21
 47 -12 47 -12 58.5 44 c 128,-1,22
 70 100 70 100 96 156.5 c 128,-1,23
 122 213 122 213 207 342 c 0,24,25
 266 434 266 434 288.5 500 c 128,-1,26
 311 566 311 566 311 666 c 2,27,-1
 311 705 l 1,28,-1
 387 705 l 1,0,-1
422 981 m 0,29,30
 422 874 422 874 344 874 c 0,31,32
 312 874 312 874 289 898 c 128,-1,33
 266 922 266 922 266 981 c 0,34,35
 266 1038 266 1038 289 1062.5 c 128,-1,36
 312 1087 312 1087 344 1087 c 0,37,38
 422 1087 422 1087 422 981 c 0,29,30
EndSplineSet
EndChar

StartChar: AE
Encoding: 198 198 136
Width: 1153
GlyphClass: 2
Flags: W
LayerCount: 2
Fore
SplineSet
1055 0 m 1,0,-1
 524 0 l 1,1,-1
 524 530 l 1,2,-1
 256 530 l 1,3,-1
 104 0 l 1,4,-1
 0 0 l 1,5,-1
 434 1462 l 1,6,-1
 1055 1462 l 1,7,-1
 1055 1366 l 1,8,-1
 623 1366 l 1,9,-1
 623 813 l 1,10,-1
 1030 813 l 1,11,-1
 1030 719 l 1,12,-1
 623 719 l 1,13,-1
 623 94 l 1,14,-1
 1055 94 l 1,15,-1
 1055 0 l 1,0,-1
283 629 m 1,16,-1
 524 629 l 1,17,-1
 524 1364 l 1,18,-1
 496 1364 l 1,19,-1
 283 629 l 1,16,-1
EndSplineSet
EndChar

StartChar: Eth
Encoding: 208 208 146
Width: 995
GlyphClass: 2
Flags: W
LayerCount: 2
Fore
SplineSet
885 745 m 0,0,1
 885 0 885 0 420 0 c 2,2,-1
 160 0 l 1,3,-1
 160 700 l 1,4,-1
 61 700 l 1,5,-1
 61 791 l 1,6,-1
 160 791 l 1,7,-1
 160 1462 l 1,8,-1
 426 1462 l 2,9,10
 652 1462 652 1462 768.5 1279.5 c 128,-1,11
 885 1097 885 1097 885 745 c 0,0,1
782 739 m 0,12,13
 782 1048 782 1048 691 1210 c 128,-1,14
 600 1372 600 1372 422 1372 c 2,15,-1
 258 1372 l 1,16,-1
 258 791 l 1,17,-1
 483 791 l 1,18,-1
 483 700 l 1,19,-1
 258 700 l 1,20,-1
 258 90 l 1,21,-1
 414 90 l 2,22,23
 604 90 604 90 693 256 c 128,-1,24
 782 422 782 422 782 739 c 0,12,13
EndSplineSet
EndChar

StartChar: multiply
Encoding: 215 215 153
Width: 819
GlyphClass: 2
Flags: W
LayerCount: 2
Fore
SplineSet
350 723 m 1,0,-1
 61 1012 l 1,1,-1
 119 1069 l 1,2,-1
 408 780 l 1,3,-1
 700 1073 l 1,4,-1
 760 1016 l 1,5,-1
 467 723 l 1,6,-1
 754 434 l 1,7,-1
 696 377 l 1,8,-1
 408 666 l 1,9,-1
 117 373 l 1,10,-1
 59 432 l 1,11,-1
 350 723 l 1,0,-1
EndSplineSet
EndChar

StartChar: Oslash
Encoding: 216 216 154
Width: 1065
GlyphClass: 2
Flags: W
LayerCount: 2
Fore
SplineSet
954 733 m 0,0,1
 954 370 954 370 845.5 175 c 128,-1,2
 737 -20 737 -20 532 -20 c 0,3,4
 374 -20 374 -20 272 94 c 1,5,-1
 178 -94 l 1,6,-1
 96 -57 l 1,7,-1
 215 180 l 1,8,9
 111 374 111 374 111 735 c 0,10,11
 111 1113 111 1113 217 1298 c 128,-1,12
 323 1483 323 1483 535 1483 c 0,13,14
 699 1483 699 1483 805 1352 c 1,15,-1
 901 1542 l 1,16,-1
 983 1501 l 1,17,-1
 860 1262 l 1,18,19
 954 1072 954 1072 954 733 c 0,0,1
213 733 m 0,20,21
 213 451 213 451 272 293 c 1,22,-1
 756 1251 l 1,23,24
 677 1389 677 1389 535 1389 c 0,25,26
 374 1389 374 1389 293.5 1221.5 c 128,-1,27
 213 1054 213 1054 213 733 c 0,20,21
532 74 m 0,28,29
 689 74 689 74 770.5 239 c 128,-1,30
 852 404 852 404 852 733 c 0,31,32
 852 984 852 984 803 1145 c 1,33,-1
 322 190 l 1,34,35
 399 74 399 74 532 74 c 0,28,29
EndSplineSet
EndChar

StartChar: Thorn
Encoding: 222 222 160
Width: 840
GlyphClass: 2
Flags: W
LayerCount: 2
Fore
SplineSet
772 784 m 0,0,1
 772 334 772 334 365 334 c 2,2,-1
 258 334 l 1,3,-1
 258 0 l 1,4,-1
 160 0 l 1,5,-1
 160 1462 l 1,6,-1
 258 1462 l 1,7,-1
 258 1192 l 1,8,-1
 360 1192 l 2,9,10
 574 1192 574 1192 673 1093 c 128,-1,11
 772 994 772 994 772 784 c 0,0,1
258 428 m 1,12,-1
 356 428 l 2,13,14
 526 428 526 428 599 505.5 c 128,-1,15
 672 583 672 583 672 772 c 0,16,17
 672 945 672 945 600.5 1020.5 c 128,-1,18
 529 1096 529 1096 367 1096 c 2,19,-1
 258 1096 l 1,20,-1
 258 428 l 1,12,-1
EndSplineSet
EndChar

StartChar: germandbls
Encoding: 223 223 161
Width: 823
GlyphClass: 2
Flags: W
LayerCount: 2
Fore
SplineSet
659 1290 m 0,0,1
 659 1170 659 1170 568 1052 c 0,2,3
 521 991 521 991 499 947 c 128,-1,4
 477 903 477 903 477 862 c 0,5,6
 477 806 477 806 499 761.5 c 128,-1,7
 521 717 521 717 588 633 c 2,8,-1
 647 563 l 2,9,10
 700 502 700 502 726 437.5 c 128,-1,11
 752 373 752 373 752 297 c 0,12,13
 752 147 752 147 681.5 63.5 c 128,-1,14
 611 -20 611 -20 492 -20 c 0,15,16
 444 -20 444 -20 396 -6.5 c 128,-1,17
 348 7 348 7 317 33 c 1,18,-1
 317 133 l 1,19,20
 353 108 353 108 394 89 c 128,-1,21
 435 70 435 70 492 70 c 0,22,23
 570 70 570 70 612.5 128.5 c 128,-1,24
 655 187 655 187 655 291 c 0,25,26
 655 353 655 353 632 408.5 c 128,-1,27
 609 464 609 464 526 563 c 0,28,29
 449 657 449 657 417 726.5 c 128,-1,30
 385 796 385 796 385 862 c 0,31,32
 385 913 385 913 405 958 c 128,-1,33
 425 1003 425 1003 474 1064 c 0,34,35
 520 1122 520 1122 541.5 1176.5 c 128,-1,36
 563 1231 563 1231 563 1294 c 0,37,38
 563 1477 563 1477 416 1477 c 0,39,40
 331 1477 331 1477 285.5 1409.5 c 128,-1,41
 240 1342 240 1342 240 1214 c 2,42,-1
 240 0 l 1,43,-1
 145 0 l 1,44,-1
 145 1204 l 2,45,46
 145 1376 145 1376 218 1471.5 c 128,-1,47
 291 1567 291 1567 422 1567 c 0,48,49
 539 1567 539 1567 599 1496 c 128,-1,50
 659 1425 659 1425 659 1290 c 0,0,1
EndSplineSet
EndChar

StartChar: ae
Encoding: 230 230 168
Width: 1260
GlyphClass: 2
Flags: W
LayerCount: 2
Fore
SplineSet
334 61 m 0,0,1
 436 61 436 61 492.5 161.5 c 128,-1,2
 549 262 549 262 549 446 c 2,3,-1
 549 559 l 1,4,-1
 436 553 l 2,5,6
 304 546 304 546 241 483.5 c 128,-1,7
 178 421 178 421 178 289 c 0,8,9
 178 171 178 171 220 116 c 128,-1,10
 262 61 262 61 334 61 c 0,0,1
866 1018 m 0,11,12
 672 1018 672 1018 651 629 c 1,13,-1
 1069 629 l 1,14,-1
 1069 641 l 2,15,16
 1069 813 1069 813 1014 915.5 c 128,-1,17
 959 1018 959 1018 866 1018 c 0,11,12
385 1022 m 0,18,19
 292 1022 292 1022 195 961 c 1,20,-1
 154 1036 l 1,21,22
 201 1065 201 1065 256.5 1085.5 c 128,-1,23
 312 1106 312 1106 389 1106 c 0,24,25
 567 1106 567 1106 618 934 c 1,26,27
 702 1106 702 1106 868 1106 c 0,28,29
 1005 1106 1005 1106 1084 978.5 c 128,-1,30
 1163 851 1163 851 1163 631 c 2,31,-1
 1163 543 l 1,32,-1
 649 543 l 1,33,34
 658 66 658 66 907 66 c 0,35,36
 957 66 957 66 1016.5 83.5 c 128,-1,37
 1076 101 1076 101 1128 133 c 1,38,-1
 1128 45 l 1,39,40
 1028 -20 1028 -20 905 -20 c 0,41,42
 800 -20 800 -20 719.5 43 c 128,-1,43
 639 106 639 106 600 221 c 1,44,45
 554 92 554 92 483 36 c 128,-1,46
 412 -20 412 -20 313 -20 c 0,47,48
 207 -20 207 -20 142.5 64.5 c 128,-1,49
 78 149 78 149 78 291 c 0,50,51
 78 446 78 446 171 536.5 c 128,-1,52
 264 627 264 627 432 635 c 2,53,-1
 549 641 l 1,54,-1
 549 731 l 2,55,56
 549 877 549 877 509.5 949.5 c 128,-1,57
 470 1022 470 1022 385 1022 c 0,18,19
EndSplineSet
EndChar

StartChar: eth
Encoding: 240 240 178
Width: 856
GlyphClass: 2
Flags: W
LayerCount: 2
Fore
SplineSet
350 1399 m 1,0,1
 291 1455 291 1455 238 1495 c 1,2,-1
 285 1556 l 1,3,4
 358 1510 358 1510 426 1444 c 1,5,-1
 614 1554 l 1,6,-1
 653 1489 l 1,7,-1
 479 1386 l 1,8,9
 762 1061 762 1061 762 514 c 0,10,11
 762 -20 762 -20 424 -20 c 0,12,13
 276 -20 276 -20 185 115.5 c 128,-1,14
 94 251 94 251 94 469 c 0,15,16
 94 702 94 702 174.5 828 c 128,-1,17
 255 954 255 954 406 954 c 0,18,19
 559 954 559 954 633 831 c 1,20,-1
 641 831 l 1,21,22
 588 1126 588 1126 403 1341 c 1,23,-1
 229 1239 l 1,24,-1
 190 1305 l 1,25,-1
 350 1399 l 1,0,1
666 483 m 0,26,27
 666 649 666 649 601.5 756.5 c 128,-1,28
 537 864 537 864 432 864 c 0,29,30
 315 864 315 864 252.5 762 c 128,-1,31
 190 660 190 660 190 461 c 0,32,33
 190 280 190 280 254.5 173 c 128,-1,34
 319 66 319 66 430 66 c 0,35,36
 552 66 552 66 609 169 c 128,-1,37
 666 272 666 272 666 483 c 0,26,27
EndSplineSet
EndChar

StartChar: divide
Encoding: 247 247 185
Width: 819
GlyphClass: 2
Flags: W
LayerCount: 2
Fore
SplineSet
760 764 m 1,0,-1
 760 682 l 1,1,-1
 59 682 l 1,2,-1
 59 764 l 1,3,-1
 760 764 l 1,0,-1
332 373 m 0,4,5
 332 479 332 479 410 479 c 0,6,7
 487 479 487 479 487 373 c 0,8,9
 487 316 487 316 464.5 291 c 128,-1,10
 442 266 442 266 410 266 c 0,11,12
 332 266 332 266 332 373 c 0,4,5
332 1071 m 0,13,14
 332 1178 332 1178 410 1178 c 0,15,16
 487 1178 487 1178 487 1071 c 0,17,18
 487 1014 487 1014 464.5 989.5 c 128,-1,19
 442 965 442 965 410 965 c 0,20,21
 332 965 332 965 332 1071 c 0,13,14
EndSplineSet
EndChar

StartChar: oslash
Encoding: 248 248 186
Width: 850
GlyphClass: 2
Flags: W
LayerCount: 2
Fore
SplineSet
68 -102 m 1,0,-1
 180 125 l 1,1,2
 94 271 94 271 94 545 c 0,3,4
 94 1106 94 1106 426 1106 c 0,5,6
 543 1106 543 1106 623 1020 c 1,7,-1
 707 1190 l 1,8,-1
 782 1149 l 1,9,-1
 680 940 l 1,10,11
 756 792 756 792 756 545 c 0,12,13
 756 271 756 271 669.5 125.5 c 128,-1,14
 583 -20 583 -20 422 -20 c 0,15,16
 309 -20 309 -20 238 49 c 1,17,-1
 143 -143 l 1,18,-1
 68 -102 l 1,0,-1
193 545 m 0,19,20
 193 343 193 343 231 231 c 1,21,-1
 578 930 l 1,22,23
 522 1016 522 1016 424 1016 c 0,24,25
 302 1016 302 1016 247.5 898 c 128,-1,26
 193 780 193 780 193 545 c 0,19,20
657 545 m 0,27,28
 657 725 657 725 625 829 c 1,29,-1
 283 137 l 1,30,31
 334 70 334 70 424 70 c 0,32,33
 657 70 657 70 657 545 c 0,27,28
EndSplineSet
EndChar

StartChar: thorn
Encoding: 254 254 192
Width: 893
GlyphClass: 2
Flags: W
LayerCount: 2
Fore
SplineSet
475 1016 m 256,0,1
 356 1016 356 1016 298 911 c 128,-1,2
 240 806 240 806 240 582 c 2,3,-1
 240 551 l 2,4,5
 240 301 240 301 299 183.5 c 128,-1,6
 358 66 358 66 479 66 c 0,7,8
 589 66 589 66 643.5 179 c 128,-1,9
 698 292 698 292 698 545 c 0,10,11
 698 790 698 790 646 903 c 128,-1,12
 594 1016 594 1016 475 1016 c 256,0,1
240 936 m 1,13,14
 279 1017 279 1017 343 1061.5 c 128,-1,15
 407 1106 407 1106 481 1106 c 0,16,17
 799 1106 799 1106 799 545 c 0,18,19
 799 274 799 274 721 127 c 128,-1,20
 643 -20 643 -20 494 -20 c 0,21,22
 410 -20 410 -20 342 26.5 c 128,-1,23
 274 73 274 73 240 150 c 1,24,-1
 233 150 l 1,25,-1
 244 31 l 1,26,-1
 244 -492 l 1,27,-1
 145 -492 l 1,28,-1
 145 1556 l 1,29,-1
 240 1556 l 1,30,-1
 240 1072 l 1,31,-1
 236 936 l 1,32,-1
 240 936 l 1,13,14
EndSplineSet
EndChar

StartChar: dcroat
Encoding: 273 273 211
Width: 893
GlyphClass: 2
Flags: W
LayerCount: 2
Fore
SplineSet
410 -20 m 0,0,1
 94 -20 94 -20 94 541 c 0,2,3
 94 817 94 817 173 961.5 c 128,-1,4
 252 1106 252 1106 406 1106 c 0,5,6
 479 1106 479 1106 544.5 1063 c 128,-1,7
 610 1020 610 1020 649 946 c 1,8,-1
 657 946 l 1,9,-1
 653 1069 l 1,10,-1
 653 1278 l 1,11,-1
 391 1278 l 1,12,-1
 391 1360 l 1,13,-1
 653 1360 l 1,14,-1
 653 1556 l 1,15,-1
 748 1556 l 1,16,-1
 748 1360 l 1,17,-1
 866 1360 l 1,18,-1
 866 1278 l 1,19,-1
 748 1278 l 1,20,-1
 748 0 l 1,21,-1
 670 0 l 1,22,-1
 659 154 l 1,23,-1
 651 154 l 1,24,25
 569 -20 569 -20 410 -20 c 0,0,1
416 63 m 0,26,27
 529 63 529 63 591 172.5 c 128,-1,28
 653 282 653 282 653 508 c 2,29,-1
 653 541 l 2,30,31
 653 787 653 787 593.5 901.5 c 128,-1,32
 534 1016 534 1016 412 1016 c 0,33,34
 295 1016 295 1016 244 893.5 c 128,-1,35
 193 771 193 771 193 539 c 0,36,37
 193 305 193 305 246 184 c 128,-1,38
 299 63 299 63 416 63 c 0,26,27
EndSplineSet
EndChar

StartChar: Hbar
Encoding: 294 294 232
Width: 1026
GlyphClass: 2
Flags: W
LayerCount: 2
Fore
SplineSet
866 1184 m 1,0,-1
 1026 1184 l 1,1,-1
 1026 1094 l 1,2,-1
 866 1094 l 1,3,-1
 866 0 l 1,4,-1
 768 0 l 1,5,-1
 768 717 l 1,6,-1
 258 717 l 1,7,-1
 258 0 l 1,8,-1
 160 0 l 1,9,-1
 160 1094 l 1,10,-1
 0 1094 l 1,11,-1
 0 1184 l 1,12,-1
 160 1184 l 1,13,-1
 160 1462 l 1,14,-1
 258 1462 l 1,15,-1
 258 1184 l 1,16,-1
 768 1184 l 1,17,-1
 768 1462 l 1,18,-1
 866 1462 l 1,19,-1
 866 1184 l 1,0,-1
768 815 m 1,20,-1
 768 1094 l 1,21,-1
 258 1094 l 1,22,-1
 258 815 l 1,23,-1
 768 815 l 1,20,-1
EndSplineSet
EndChar

StartChar: hbar
Encoding: 295 295 233
Width: 870
GlyphClass: 2
Flags: W
LayerCount: 2
Fore
SplineSet
635 0 m 1,0,-1
 635 748 l 2,1,2
 635 895 635 895 596.5 956.5 c 128,-1,3
 558 1018 558 1018 471 1018 c 0,4,5
 356 1018 356 1018 298 916 c 128,-1,6
 240 814 240 814 240 594 c 2,7,-1
 240 0 l 1,8,-1
 145 0 l 1,9,-1
 145 1270 l 1,10,-1
 27 1270 l 1,11,-1
 27 1354 l 1,12,-1
 145 1354 l 1,13,-1
 145 1556 l 1,14,-1
 240 1556 l 1,15,-1
 240 1354 l 1,16,-1
 502 1354 l 1,17,-1
 502 1270 l 1,18,-1
 240 1270 l 1,19,-1
 240 1051 l 2,20,21
 240 982 240 982 236 936 c 1,22,-1
 244 936 l 1,23,24
 276 1017 276 1017 340.5 1061.5 c 128,-1,25
 405 1106 405 1106 475 1106 c 0,26,27
 613 1106 613 1106 671 1016 c 128,-1,28
 729 926 729 926 729 748 c 2,29,-1
 729 0 l 1,30,-1
 635 0 l 1,0,-1
EndSplineSet
EndChar

StartChar: dotlessi
Encoding: 305 305 243
Width: 385
GlyphClass: 2
Flags: W
LayerCount: 2
Fore
SplineSet
240 0 m 1,0,-1
 145 0 l 1,1,-1
 145 1085 l 1,2,-1
 240 1085 l 1,3,-1
 240 0 l 1,0,-1
EndSplineSet
EndChar

StartChar: kgreenlandic
Encoding: 312 312 250
Width: 711
GlyphClass: 2
Flags: W
LayerCount: 2
Fore
SplineSet
242 537 m 1,0,1
 264 580 264 580 284.5 616.5 c 128,-1,2
 305 653 305 653 571 1085 c 1,3,-1
 674 1085 l 1,4,-1
 424 686 l 1,5,-1
 696 0 l 1,6,-1
 596 0 l 1,7,-1
 360 598 l 1,8,-1
 240 440 l 1,9,-1
 240 0 l 1,10,-1
 145 0 l 1,11,-1
 145 1085 l 1,12,-1
 240 1085 l 1,13,-1
 240 719 l 2,14,15
 240 612 240 612 233 537 c 1,16,-1
 242 537 l 1,0,1
EndSplineSet
EndChar

StartChar: Lslash
Encoding: 321 321 259
Width: 711
GlyphClass: 2
Flags: W
LayerCount: 2
Fore
SplineSet
160 0 m 1,0,-1
 160 502 l 1,1,-1
 158 502 l 1,2,-1
 53 438 l 1,3,-1
 6 510 l 1,4,-1
 160 602 l 1,5,-1
 160 1462 l 1,6,-1
 258 1462 l 1,7,-1
 258 659 l 1,8,-1
 518 815 l 1,9,-1
 563 739 l 1,10,-1
 258 559 l 1,11,-1
 258 94 l 1,12,-1
 670 94 l 1,13,-1
 670 0 l 1,14,-1
 160 0 l 1,0,-1
EndSplineSet
EndChar

StartChar: lslash
Encoding: 322 322 260
Width: 385
GlyphClass: 2
Flags: W
LayerCount: 2
Fore
SplineSet
240 838 m 1,0,-1
 375 938 l 1,1,-1
 426 868 l 1,2,-1
 240 733 l 1,3,-1
 240 0 l 1,4,-1
 145 0 l 1,5,-1
 145 666 l 1,6,-1
 14 571 l 1,7,-1
 -35 641 l 1,8,-1
 145 770 l 1,9,-1
 145 1556 l 1,10,-1
 240 1556 l 1,11,-1
 240 838 l 1,0,-1
EndSplineSet
EndChar

StartChar: Eng
Encoding: 330 330 268
Width: 1090
GlyphClass: 2
Flags: W
LayerCount: 2
Fore
SplineSet
930 -23 m 2,0,1
 930 -195 930 -195 874 -282 c 128,-1,2
 818 -369 818 -369 709 -369 c 0,3,4
 642 -369 642 -369 592 -344 c 1,5,-1
 592 -252 l 1,6,7
 641 -272 641 -272 707 -272 c 0,8,9
 770 -272 770 -272 802 -214.5 c 128,-1,10
 834 -157 834 -157 834 -25 c 2,11,-1
 834 0 l 1,12,-1
 252 1311 l 1,13,-1
 244 1311 l 1,14,15
 256 1175 256 1175 256 1049 c 2,16,-1
 256 0 l 1,17,-1
 160 0 l 1,18,-1
 160 1462 l 1,19,-1
 287 1462 l 1,20,-1
 836 225 l 1,21,-1
 842 225 l 1,22,23
 834 377 834 377 834 492 c 2,24,-1
 834 1462 l 1,25,-1
 930 1462 l 1,26,-1
 930 -23 l 2,0,1
EndSplineSet
EndChar

StartChar: eng
Encoding: 331 331 269
Width: 870
GlyphClass: 2
Flags: W
LayerCount: 2
Fore
SplineSet
553 -492 m 0,0,1
 513 -492 513 -492 485 -475 c 1,2,-1
 485 -385 l 1,3,4
 520 -401 520 -401 549 -401 c 0,5,6
 635 -401 635 -401 635 -215 c 2,7,-1
 635 748 l 2,8,9
 635 1012 635 1012 463 1012 c 0,10,11
 346 1012 346 1012 293 911.5 c 128,-1,12
 240 811 240 811 240 596 c 2,13,-1
 240 0 l 1,14,-1
 145 0 l 1,15,-1
 145 1085 l 1,16,-1
 225 1085 l 1,17,-1
 233 934 l 1,18,-1
 240 934 l 1,19,20
 273 1014 273 1014 337.5 1060 c 128,-1,21
 402 1106 402 1106 477 1106 c 0,22,23
 612 1106 612 1106 670.5 1012.5 c 128,-1,24
 729 919 729 919 729 709 c 2,25,-1
 729 -201 l 2,26,27
 729 -492 729 -492 553 -492 c 0,0,1
EndSplineSet
EndChar

StartChar: OE
Encoding: 338 338 276
Width: 1233
GlyphClass: 2
Flags: W
LayerCount: 2
Fore
SplineSet
1135 0 m 1,0,-1
 711 0 l 1,1,-1
 586 -6 l 1,2,3
 111 -6 111 -6 111 735 c 0,4,5
 111 1099 111 1099 234.5 1283.5 c 128,-1,6
 358 1468 358 1468 594 1468 c 1,7,-1
 709 1462 l 1,8,-1
 1135 1462 l 1,9,-1
 1135 1368 l 1,10,-1
 702 1368 l 1,11,-1
 702 813 l 1,12,-1
 1110 813 l 1,13,-1
 1110 719 l 1,14,-1
 702 719 l 1,15,-1
 702 94 l 1,16,-1
 1135 94 l 1,17,-1
 1135 0 l 1,0,-1
215 733 m 0,18,19
 215 393 215 393 307.5 240.5 c 128,-1,20
 400 88 400 88 604 88 c 1,21,-1
 604 1374 l 1,22,23
 402 1374 402 1374 308.5 1224 c 128,-1,24
 215 1074 215 1074 215 733 c 0,18,19
EndSplineSet
EndChar

StartChar: oe
Encoding: 339 339 277
Width: 1362
GlyphClass: 2
Flags: W
LayerCount: 2
Fore
SplineSet
1012 -20 m 0,0,1
 793 -20 793 -20 705 211 c 1,2,3
 625 -20 625 -20 422 -20 c 0,4,5
 263 -20 263 -20 178.5 125.5 c 128,-1,6
 94 271 94 271 94 545 c 0,7,8
 94 1106 94 1106 426 1106 c 0,9,10
 619 1106 619 1106 702 879 c 1,11,12
 781 1106 781 1106 975 1106 c 0,13,14
 1110 1106 1110 1106 1188 977.5 c 128,-1,15
 1266 849 1266 849 1266 631 c 2,16,-1
 1266 543 l 1,17,-1
 752 543 l 1,18,19
 756 66 756 66 1016 66 c 0,20,21
 1118 66 1118 66 1231 133 c 1,22,-1
 1231 45 l 1,23,24
 1127 -20 1127 -20 1012 -20 c 0,0,1
193 545 m 0,25,26
 193 66 193 66 424 66 c 256,27,28
 655 66 655 66 655 520 c 2,29,-1
 655 545 l 2,30,31
 655 1016 655 1016 424 1016 c 0,32,33
 302 1016 302 1016 247.5 898 c 128,-1,34
 193 780 193 780 193 545 c 0,25,26
969 1018 m 0,35,36
 773 1018 773 1018 754 629 c 1,37,-1
 1171 629 l 1,38,-1
 1171 641 l 2,39,40
 1171 812 1171 812 1116.5 915 c 128,-1,41
 1062 1018 1062 1018 969 1018 c 0,35,36
EndSplineSet
EndChar

StartChar: Tbar
Encoding: 358 358 296
Width: 711
GlyphClass: 2
Flags: W
LayerCount: 2
Fore
SplineSet
403 0 m 1,0,-1
 305 0 l 1,1,-1
 305 700 l 1,2,-1
 80 700 l 1,3,-1
 80 791 l 1,4,-1
 305 791 l 1,5,-1
 305 1366 l 1,6,-1
 14 1366 l 1,7,-1
 14 1462 l 1,8,-1
 694 1462 l 1,9,-1
 694 1366 l 1,10,-1
 403 1366 l 1,11,-1
 403 791 l 1,12,-1
 629 791 l 1,13,-1
 629 700 l 1,14,-1
 403 700 l 1,15,-1
 403 0 l 1,0,-1
EndSplineSet
EndChar

StartChar: tbar
Encoding: 359 359 297
Width: 449
GlyphClass: 2
Flags: W
LayerCount: 2
Fore
SplineSet
43 688 m 1,0,-1
 141 688 l 1,1,-1
 141 1001 l 1,2,-1
 43 1001 l 1,3,-1
 43 1057 l 1,4,-1
 139 1085 l 1,5,-1
 170 1343 l 1,6,-1
 236 1343 l 1,7,-1
 236 1085 l 1,8,-1
 408 1085 l 1,9,-1
 408 1001 l 1,10,-1
 236 1001 l 1,11,-1
 236 688 l 1,12,-1
 408 688 l 1,13,-1
 408 604 l 1,14,-1
 236 604 l 1,15,-1
 236 258 l 2,16,17
 236 148 236 148 260 108 c 128,-1,18
 284 68 284 68 344 68 c 0,19,20
 388 68 388 68 422 80 c 1,21,-1
 422 0 l 1,22,23
 378 -20 378 -20 309 -20 c 0,24,25
 141 -20 141 -20 141 231 c 2,26,-1
 141 604 l 1,27,-1
 43 604 l 1,28,-1
 43 688 l 1,0,-1
EndSplineSet
EndChar

StartChar: longs
Encoding: 383 383 321
Width: 389
GlyphClass: 2
Flags: W
LayerCount: 2
Fore
SplineSet
240 0 m 1,0,-1
 145 0 l 1,1,-1
 145 1178 l 2,2,3
 145 1387 145 1387 195 1477 c 128,-1,4
 245 1567 245 1567 365 1567 c 0,5,6
 435 1567 435 1567 492 1542 c 1,7,-1
 459 1454 l 1,8,9
 409 1479 409 1479 365 1479 c 0,10,11
 314 1479 314 1479 289 1449.5 c 128,-1,12
 264 1420 264 1420 252 1353 c 128,-1,13
 240 1286 240 1286 240 1176 c 2,14,-1
 240 0 l 1,0,-1
EndSplineSet
EndChar

StartChar: florin
Encoding: 402 402 322
Width: 819
GlyphClass: 2
Flags: W
LayerCount: 2
Fore
SplineSet
207 -492 m 0,0,1
 140 -492 140 -492 80 -479 c 1,2,-1
 80 -385 l 1,3,4
 152 -403 152 -403 201 -403 c 0,5,6
 284 -403 284 -403 319 -340 c 128,-1,7
 354 -277 354 -277 354 -147 c 2,8,-1
 354 846 l 1,9,-1
 193 846 l 1,10,-1
 193 899 l 1,11,-1
 354 938 l 1,12,-1
 354 1126 l 2,13,14
 354 1305 354 1305 404.5 1394 c 128,-1,15
 455 1483 455 1483 573 1483 c 0,16,17
 648 1483 648 1483 731 1444 c 1,18,-1
 690 1358 l 1,19,20
 627 1391 627 1391 578 1391 c 0,21,22
 527 1391 527 1391 501 1363.5 c 128,-1,23
 475 1336 475 1336 462 1274 c 128,-1,24
 449 1212 449 1212 449 1110 c 2,25,-1
 449 930 l 1,26,-1
 639 930 l 1,27,-1
 639 846 l 1,28,-1
 449 846 l 1,29,-1
 449 -111 l 2,30,31
 449 -310 449 -310 393.5 -401 c 128,-1,32
 338 -492 338 -492 207 -492 c 0,0,1
EndSplineSet
EndChar

StartChar: Aringacute
Encoding: 506 506 323
Width: 813
GlyphClass: 2
Flags: W
LayerCount: 2
Fore
SplineSet
600 1438 m 0,0,1
 600 1363 600 1363 563.5 1317 c 128,-1,2
 527 1271 527 1271 467 1255 c 1,3,-1
 813 0 l 1,4,-1
 709 0 l 1,5,-1
 596 424 l 1,6,-1
 213 424 l 1,7,-1
 106 0 l 1,8,-1
 0 0 l 1,9,-1
 336 1255 l 1,10,11
 274 1271 274 1271 238.5 1316 c 128,-1,12
 203 1361 203 1361 203 1434 c 0,13,14
 203 1519 203 1519 256.5 1569.5 c 128,-1,15
 310 1620 310 1620 401 1620 c 0,16,17
 488 1620 488 1620 544 1570.5 c 128,-1,18
 600 1521 600 1521 600 1438 c 0,0,1
569 522 m 1,19,-1
 432 1049 l 2,20,21
 408 1154 408 1154 401 1202 c 1,22,23
 396 1149 396 1149 389 1116.5 c 128,-1,24
 382 1084 382 1084 240 522 c 1,25,-1
 569 522 l 1,19,-1
281 1434 m 0,26,27
 281 1381 281 1381 311 1349 c 128,-1,28
 341 1317 341 1317 401 1317 c 0,29,30
 455 1317 455 1317 488.5 1349 c 128,-1,31
 522 1381 522 1381 522 1434 c 0,32,33
 522 1485 522 1485 491 1517.5 c 128,-1,34
 460 1550 460 1550 401 1550 c 0,35,36
 347 1550 347 1550 314 1517.5 c 128,-1,37
 281 1485 281 1485 281 1434 c 0,26,27
326 1683 m 1,38,-1
 375 1744 l 2,39,40
 477 1868 477 1868 516 1960 c 1,41,-1
 641 1960 l 1,42,-1
 641 1944 l 1,43,44
 615 1895 615 1895 556 1831 c 128,-1,45
 497 1767 497 1767 373 1663 c 1,46,-1
 326 1663 l 1,47,-1
 326 1683 l 1,38,-1
EndSplineSet
EndChar

StartChar: circumflex
Encoding: 710 710 331
Width: 1157
GlyphClass: 2
Flags: W
LayerCount: 2
Fore
SplineSet
766 1241 m 1,0,1
 734 1272 734 1272 675 1342 c 2,2,-1
 578 1454 l 1,3,4
 528 1398 528 1398 477.5 1339.5 c 128,-1,5
 427 1281 427 1281 385 1241 c 1,6,-1
 342 1241 l 1,7,-1
 342 1260 l 1,8,9
 463 1428 463 1428 528 1569 c 1,10,-1
 623 1569 l 1,11,12
 647 1514 647 1514 701.5 1424.5 c 128,-1,13
 756 1335 756 1335 813 1260 c 1,14,-1
 813 1241 l 1,15,-1
 766 1241 l 1,0,1
EndSplineSet
EndChar

StartChar: caron
Encoding: 711 711 332
Width: 1157
GlyphClass: 2
Flags: W
LayerCount: 2
Fore
SplineSet
813 1569 m 1,0,-1
 813 1550 l 1,1,2
 755 1475 755 1475 701 1385 c 128,-1,3
 647 1295 647 1295 623 1241 c 1,4,-1
 528 1241 l 1,5,6
 458 1389 458 1389 342 1550 c 1,7,-1
 342 1569 l 1,8,-1
 385 1569 l 1,9,10
 427 1529 427 1529 477.5 1470.5 c 128,-1,11
 528 1412 528 1412 578 1356 c 1,12,-1
 627 1411 l 1,13,14
 735 1540 735 1540 766 1569 c 1,15,-1
 813 1569 l 1,0,-1
EndSplineSet
EndChar

StartChar: macron
Encoding: 713 713 333
Width: 1112
GlyphClass: 2
Flags: W
LayerCount: 2
Fore
SplineSet
330 1333 m 1,0,-1
 782 1333 l 1,1,-1
 782 1251 l 1,2,-1
 330 1251 l 1,3,-1
 330 1333 l 1,0,-1
EndSplineSet
EndChar

StartChar: breve
Encoding: 728 728 334
Width: 1157
GlyphClass: 2
Flags: W
LayerCount: 2
Fore
SplineSet
795 1479 m 1,0,1
 792 1370 792 1370 733.5 1307.5 c 128,-1,2
 675 1245 675 1245 571 1245 c 0,3,4
 373 1245 373 1245 360 1479 c 1,5,-1
 428 1479 l 1,6,7
 435 1405 435 1405 473.5 1367 c 128,-1,8
 512 1329 512 1329 575 1329 c 0,9,10
 703 1329 703 1329 723 1479 c 1,11,-1
 795 1479 l 1,0,1
EndSplineSet
EndChar

StartChar: dotaccent
Encoding: 729 729 335
Width: 385
GlyphClass: 2
Flags: W
LayerCount: 2
Fore
SplineSet
131 1386 m 0,0,1
 131 1431 131 1431 149.5 1456 c 128,-1,2
 168 1481 168 1481 197 1481 c 0,3,4
 224 1481 224 1481 240 1456 c 128,-1,5
 256 1431 256 1431 256 1386 c 0,6,7
 256 1343 256 1343 240 1317.5 c 128,-1,8
 224 1292 224 1292 197 1292 c 0,9,10
 168 1292 168 1292 149.5 1317.5 c 128,-1,11
 131 1343 131 1343 131 1386 c 0,0,1
EndSplineSet
EndChar

StartChar: ring
Encoding: 730 730 336
Width: 1182
GlyphClass: 2
Flags: W
LayerCount: 2
Fore
SplineSet
791 1442 m 0,0,1
 791 1353 791 1353 737 1302 c 128,-1,2
 683 1251 683 1251 592 1251 c 0,3,4
 499 1251 499 1251 446 1301.5 c 128,-1,5
 393 1352 393 1352 393 1438 c 0,6,7
 393 1523 393 1523 446.5 1573.5 c 128,-1,8
 500 1624 500 1624 592 1624 c 0,9,10
 679 1624 679 1624 735 1574.5 c 128,-1,11
 791 1525 791 1525 791 1442 c 0,0,1
713 1438 m 0,12,13
 713 1489 713 1489 682 1521.5 c 128,-1,14
 651 1554 651 1554 592 1554 c 0,15,16
 538 1554 538 1554 504.5 1521.5 c 128,-1,17
 471 1489 471 1489 471 1438 c 0,18,19
 471 1385 471 1385 501.5 1353 c 128,-1,20
 532 1321 532 1321 592 1321 c 0,21,22
 646 1321 646 1321 679.5 1353 c 128,-1,23
 713 1385 713 1385 713 1438 c 0,12,13
EndSplineSet
EndChar

StartChar: ogonek
Encoding: 731 731 337
Width: 383
GlyphClass: 2
Flags: W
LayerCount: 2
Fore
SplineSet
158 -260 m 0,0,1
 158 -369 158 -369 254 -369 c 0,2,3
 293 -369 293 -369 311 -360 c 1,4,-1
 311 -434 l 1,5,6
 281 -446 281 -446 236 -446 c 0,7,8
 68 -446 68 -446 68 -270 c 0,9,10
 68 -196 68 -196 111 -121 c 128,-1,11
 154 -46 154 -46 215 0 c 1,12,-1
 289 0 l 1,13,14
 218 -71 218 -71 188 -133 c 128,-1,15
 158 -195 158 -195 158 -260 c 0,0,1
EndSplineSet
EndChar

StartChar: tilde
Encoding: 732 732 338
Width: 1157
GlyphClass: 2
Flags: W
LayerCount: 2
Fore
SplineSet
698 1243 m 0,0,1
 663 1243 663 1243 629 1263 c 128,-1,2
 595 1283 595 1283 564 1306.5 c 128,-1,3
 533 1330 533 1330 505.5 1350 c 128,-1,4
 478 1370 478 1370 455 1370 c 0,5,6
 423 1370 423 1370 401.5 1334 c 128,-1,7
 380 1298 380 1298 371 1241 c 1,8,-1
 297 1241 l 1,9,10
 309 1338 309 1338 350 1395 c 128,-1,11
 391 1452 391 1452 463 1452 c 0,12,13
 498 1452 498 1452 531 1432 c 128,-1,14
 564 1412 564 1412 594.5 1388.5 c 128,-1,15
 625 1365 625 1365 652.5 1345 c 128,-1,16
 680 1325 680 1325 705 1325 c 0,17,18
 740 1325 740 1325 757.5 1361 c 128,-1,19
 775 1397 775 1397 784 1454 c 1,20,-1
 858 1454 l 1,21,22
 849 1353 849 1353 807 1298 c 128,-1,23
 765 1243 765 1243 698 1243 c 0,0,1
EndSplineSet
EndChar

StartChar: hungarumlaut
Encoding: 733 733 339
Width: 1161
GlyphClass: 2
Flags: W
LayerCount: 2
Fore
SplineSet
289 1241 m 1,0,-1
 289 1262 l 1,1,2
 334 1321 334 1321 382 1411.5 c 128,-1,3
 430 1502 430 1502 459 1569 c 1,4,-1
 578 1569 l 1,5,-1
 578 1552 l 1,6,7
 536 1477 536 1477 468 1387.5 c 128,-1,8
 400 1298 400 1298 336 1241 c 1,9,-1
 289 1241 l 1,0,-1
555 1241 m 1,10,-1
 555 1262 l 1,11,12
 600 1321 600 1321 648 1411.5 c 128,-1,13
 696 1502 696 1502 725 1569 c 1,14,-1
 844 1569 l 1,15,-1
 844 1552 l 1,16,17
 806 1479 806 1479 734.5 1387.5 c 128,-1,18
 663 1296 663 1296 602 1241 c 1,19,-1
 555 1241 l 1,10,-1
EndSplineSet
EndChar

StartChar: tonos
Encoding: 900 900 340
Width: 1182
GlyphClass: 2
Flags: W
LayerCount: 2
Fore
SplineSet
537 1262 m 1,0,1
 561 1328 561 1328 592 1441.5 c 128,-1,2
 623 1555 623 1555 633 1610 c 1,3,-1
 743 1610 l 1,4,-1
 743 1589 l 1,5,6
 720 1521 720 1521 677 1421.5 c 128,-1,7
 634 1322 634 1322 592 1241 c 1,8,-1
 537 1241 l 1,9,-1
 537 1262 l 1,0,1
EndSplineSet
EndChar

StartChar: dieresistonos
Encoding: 901 901 341
Width: 1126
GlyphClass: 2
Flags: W
LayerCount: 2
Fore
SplineSet
516 1307 m 1,0,1
 538 1364 538 1364 563 1461.5 c 128,-1,2
 588 1559 588 1559 592 1614 c 1,3,-1
 696 1614 l 1,4,-1
 696 1593 l 1,5,6
 686 1543 686 1543 641.5 1438 c 128,-1,7
 597 1333 597 1333 565 1286 c 1,8,-1
 516 1286 l 1,9,-1
 516 1307 l 1,0,1
336 1286 m 256,10,11
 336 1329 336 1329 355.5 1348.5 c 128,-1,12
 375 1368 375 1368 399 1368 c 0,13,14
 422 1368 422 1368 441.5 1348.5 c 128,-1,15
 461 1329 461 1329 461 1286 c 256,16,17
 461 1243 461 1243 441.5 1222.5 c 128,-1,18
 422 1202 422 1202 399 1202 c 0,19,20
 375 1202 375 1202 355.5 1222.5 c 128,-1,21
 336 1243 336 1243 336 1286 c 256,10,11
666 1286 m 256,22,23
 666 1329 666 1329 685 1348.5 c 128,-1,24
 704 1368 704 1368 727 1368 c 0,25,26
 752 1368 752 1368 771.5 1348.5 c 128,-1,27
 791 1329 791 1329 791 1286 c 256,28,29
 791 1243 791 1243 771.5 1222.5 c 128,-1,30
 752 1202 752 1202 727 1202 c 0,31,32
 704 1202 704 1202 685 1222.5 c 128,-1,33
 666 1243 666 1243 666 1286 c 256,22,23
EndSplineSet
EndChar

StartChar: Gamma
Encoding: 915 915 353
Width: 686
GlyphClass: 2
Flags: W
LayerCount: 2
Fore
SplineSet
670 1462 m 1,0,-1
 670 1368 l 1,1,-1
 258 1368 l 1,2,-1
 258 0 l 1,3,-1
 160 0 l 1,4,-1
 160 1462 l 1,5,-1
 670 1462 l 1,0,-1
EndSplineSet
EndChar

StartChar: Theta
Encoding: 920 920 358
Width: 1065
GlyphClass: 2
Flags: W
LayerCount: 2
Fore
SplineSet
954 733 m 0,0,1
 954 370 954 370 845.5 175 c 128,-1,2
 737 -20 737 -20 532 -20 c 0,3,4
 325 -20 325 -20 218 176.5 c 128,-1,5
 111 373 111 373 111 735 c 0,6,7
 111 1113 111 1113 217 1298 c 128,-1,8
 323 1483 323 1483 535 1483 c 0,9,10
 739 1483 739 1483 846.5 1288.5 c 128,-1,11
 954 1094 954 1094 954 733 c 0,0,1
213 733 m 0,12,13
 213 407 213 407 294.5 240.5 c 128,-1,14
 376 74 376 74 532 74 c 0,15,16
 689 74 689 74 770.5 239 c 128,-1,17
 852 404 852 404 852 733 c 0,18,19
 852 1058 852 1058 772 1223.5 c 128,-1,20
 692 1389 692 1389 535 1389 c 0,21,22
 374 1389 374 1389 293.5 1221.5 c 128,-1,23
 213 1054 213 1054 213 733 c 0,12,13
340 793 m 1,24,-1
 725 793 l 1,25,-1
 725 698 l 1,26,-1
 340 698 l 1,27,-1
 340 793 l 1,24,-1
EndSplineSet
EndChar

StartChar: Lambda
Encoding: 923 923 361
Width: 813
GlyphClass: 2
Flags: W
LayerCount: 2
Fore
SplineSet
401 1348 m 1,0,1
 393 1264 393 1264 373 1174 c 2,2,-1
 102 0 l 1,3,-1
 0 0 l 1,4,-1
 352 1462 l 1,5,-1
 453 1462 l 1,6,-1
 813 0 l 1,7,-1
 713 0 l 1,8,-1
 432 1174 l 2,9,10
 412 1266 412 1266 401 1348 c 1,0,1
EndSplineSet
EndChar

StartChar: Xi
Encoding: 926 926 364
Width: 758
GlyphClass: 2
Flags: W
LayerCount: 2
Fore
SplineSet
119 1462 m 1,0,-1
 639 1462 l 1,1,-1
 639 1368 l 1,2,-1
 119 1368 l 1,3,-1
 119 1462 l 1,0,-1
659 94 m 1,4,-1
 659 0 l 1,5,-1
 98 0 l 1,6,-1
 98 94 l 1,7,-1
 659 94 l 1,4,-1
156 813 m 1,8,-1
 602 813 l 1,9,-1
 602 719 l 1,10,-1
 156 719 l 1,11,-1
 156 813 l 1,8,-1
EndSplineSet
EndChar

StartChar: Pi
Encoding: 928 928 366
Width: 1026
GlyphClass: 2
Flags: W
HStem: 0 21G<160 258 768 866> 1368 94<258 768>
VStem: 160 98<0 1368> 768 98<0 1368>
LayerCount: 2
Fore
SplineSet
866 0 m 1,0,-1
 768 0 l 1,1,-1
 768 1368 l 1,2,-1
 258 1368 l 1,3,-1
 258 0 l 1,4,-1
 160 0 l 1,5,-1
 160 1462 l 1,6,-1
 866 1462 l 1,7,-1
 866 0 l 1,0,-1
EndSplineSet
EndChar

StartChar: Sigma
Encoding: 931 931 368
Width: 754
GlyphClass: 2
Flags: W
LayerCount: 2
Fore
SplineSet
61 0 m 1,0,-1
 61 84 l 1,1,-1
 401 760 l 1,2,-1
 74 1380 l 1,3,-1
 74 1462 l 1,4,-1
 678 1462 l 1,5,-1
 678 1368 l 1,6,-1
 186 1368 l 1,7,-1
 512 760 l 1,8,-1
 170 94 l 1,9,-1
 709 94 l 1,10,-1
 709 0 l 1,11,-1
 61 0 l 1,0,-1
EndSplineSet
EndChar

StartChar: Phi
Encoding: 934 934 371
Width: 1204
GlyphClass: 2
Flags: W
LayerCount: 2
Fore
SplineSet
553 1483 m 1,0,-1
 651 1483 l 1,1,-1
 651 1303 l 1,2,3
 861 1303 861 1303 979.5 1159 c 128,-1,4
 1098 1015 1098 1015 1098 766 c 0,5,6
 1098 507 1098 507 979 356 c 128,-1,7
 860 205 860 205 651 205 c 1,8,-1
 651 -20 l 1,9,-1
 553 -20 l 1,10,-1
 553 205 l 1,11,12
 415 205 415 205 314 275.5 c 128,-1,13
 213 346 213 346 159.5 474 c 128,-1,14
 106 602 106 602 106 766 c 0,15,16
 106 919 106 919 160.5 1042 c 128,-1,17
 215 1165 215 1165 316.5 1234 c 128,-1,18
 418 1303 418 1303 553 1303 c 1,19,-1
 553 1483 l 1,0,-1
651 295 m 1,20,21
 819 295 819 295 907 417.5 c 128,-1,22
 995 540 995 540 995 766 c 0,23,24
 995 1212 995 1212 651 1212 c 1,25,-1
 651 295 l 1,20,21
553 1212 m 1,26,27
 386 1212 386 1212 297.5 1095 c 128,-1,28
 209 978 209 978 209 766 c 0,29,30
 209 540 209 540 297 417.5 c 128,-1,31
 385 295 385 295 553 295 c 1,32,-1
 553 1212 l 1,26,27
EndSplineSet
EndChar

StartChar: Psi
Encoding: 936 936 373
Width: 1180
GlyphClass: 2
Flags: W
LayerCount: 2
Fore
SplineSet
639 0 m 1,0,-1
 541 0 l 1,1,-1
 541 451 l 1,2,3
 331 451 331 451 237 583.5 c 128,-1,4
 143 716 143 716 143 1004 c 2,5,-1
 143 1462 l 1,6,-1
 242 1462 l 1,7,-1
 242 1006 l 2,8,9
 242 839 242 839 272 738.5 c 128,-1,10
 302 638 302 638 364 591.5 c 128,-1,11
 426 545 426 545 541 545 c 1,12,-1
 541 1462 l 1,13,-1
 639 1462 l 1,14,-1
 639 545 l 1,15,16
 752 545 752 545 815 590.5 c 128,-1,17
 878 636 878 636 908 736 c 128,-1,18
 938 836 938 836 938 1006 c 2,19,-1
 938 1462 l 1,20,-1
 1036 1462 l 1,21,-1
 1036 1004 l 2,22,23
 1036 716 1036 716 942 583.5 c 128,-1,24
 848 451 848 451 639 451 c 1,25,-1
 639 0 l 1,0,-1
EndSplineSet
EndChar

StartChar: uni03A9
Encoding: 937 937 374
Width: 1081
GlyphClass: 2
Flags: W
LayerCount: 2
Fore
SplineSet
541 1389 m 0,0,1
 385 1389 385 1389 303 1238 c 128,-1,2
 221 1087 221 1087 221 811 c 0,3,4
 221 552 221 552 274.5 378.5 c 128,-1,5
 328 205 328 205 459 51 c 1,6,-1
 459 0 l 1,7,-1
 66 0 l 1,8,-1
 66 94 l 1,9,-1
 322 94 l 1,10,11
 230 203 230 203 174.5 392.5 c 128,-1,12
 119 582 119 582 119 811 c 0,13,14
 119 1138 119 1138 226 1310.5 c 128,-1,15
 333 1483 333 1483 541 1483 c 0,16,17
 741 1483 741 1483 852 1304 c 128,-1,18
 963 1125 963 1125 963 811 c 0,19,20
 963 351 963 351 760 94 c 1,21,-1
 1016 94 l 1,22,-1
 1016 0 l 1,23,-1
 623 0 l 1,24,-1
 623 51 l 1,25,26
 762 233 762 233 811 387.5 c 128,-1,27
 860 542 860 542 860 811 c 0,28,29
 860 1089 860 1089 776 1239 c 128,-1,30
 692 1389 692 1389 541 1389 c 0,0,1
EndSplineSet
EndChar

StartChar: alpha
Encoding: 945 945 382
Width: 907
GlyphClass: 2
Flags: W
LayerCount: 2
Fore
SplineSet
750 213 m 2,0,1
 750 57 750 57 827 57 c 0,2,3
 862 57 862 57 891 70 c 1,4,-1
 891 -4 l 1,5,6
 865 -20 865 -20 823 -20 c 0,7,8
 751 -20 751 -20 712 20.5 c 128,-1,9
 673 61 673 61 664 156 c 1,10,-1
 655 156 l 1,11,12
 616 71 616 71 551 25.5 c 128,-1,13
 486 -20 486 -20 408 -20 c 0,14,15
 257 -20 257 -20 176.5 118.5 c 128,-1,16
 96 257 96 257 96 541 c 0,17,18
 96 828 96 828 180 967 c 128,-1,19
 264 1106 264 1106 412 1106 c 0,20,21
 577 1106 577 1106 664 926 c 1,22,-1
 672 926 l 1,23,24
 675 962 675 962 688.5 1008 c 128,-1,25
 702 1054 702 1054 719 1085 c 1,26,-1
 784 1085 l 1,27,28
 750 983 750 983 750 737 c 2,29,-1
 750 213 l 2,0,1
422 66 m 0,30,31
 536 66 536 66 595.5 183.5 c 128,-1,32
 655 301 655 301 655 514 c 2,33,-1
 655 541 l 2,34,35
 655 787 655 787 595.5 901.5 c 128,-1,36
 536 1016 536 1016 414 1016 c 0,37,38
 297 1016 297 1016 246 893.5 c 128,-1,39
 195 771 195 771 195 539 c 0,40,41
 195 290 195 290 249.5 178 c 128,-1,42
 304 66 304 66 422 66 c 0,30,31
EndSplineSet
EndChar

StartChar: beta
Encoding: 946 946 383
Width: 889
GlyphClass: 2
Flags: W
LayerCount: 2
Fore
SplineSet
451 1567 m 0,0,1
 586 1567 586 1567 662.5 1468 c 128,-1,2
 739 1369 739 1369 739 1194 c 0,3,4
 739 1020 739 1020 689.5 932.5 c 128,-1,5
 640 845 640 845 526 827 c 1,6,-1
 526 819 l 1,7,8
 666 801 666 801 730.5 698.5 c 128,-1,9
 795 596 795 596 795 397 c 0,10,11
 795 194 795 194 707.5 87 c 128,-1,12
 620 -20 620 -20 461 -20 c 0,13,14
 398 -20 398 -20 350 -6.5 c 128,-1,15
 302 7 302 7 240 51 c 1,16,-1
 240 -492 l 1,17,-1
 145 -492 l 1,18,-1
 145 1169 l 2,19,20
 145 1360 145 1360 226.5 1463.5 c 128,-1,21
 308 1567 308 1567 451 1567 c 0,0,1
449 1477 m 0,22,23
 351 1477 351 1477 295.5 1398 c 128,-1,24
 240 1319 240 1319 240 1174 c 2,25,-1
 240 147 l 1,26,27
 286 109 286 109 344.5 89.5 c 128,-1,28
 403 70 403 70 457 70 c 0,29,30
 582 70 582 70 639 154.5 c 128,-1,31
 696 239 696 239 696 410 c 0,32,33
 696 597 696 597 630.5 686.5 c 128,-1,34
 565 776 565 776 428 776 c 2,35,-1
 385 776 l 1,36,-1
 385 866 l 1,37,-1
 422 866 l 2,38,39
 541 866 541 866 593 942 c 128,-1,40
 645 1018 645 1018 645 1186 c 0,41,42
 645 1331 645 1331 593 1404 c 128,-1,43
 541 1477 541 1477 449 1477 c 0,22,23
EndSplineSet
EndChar

StartChar: gamma
Encoding: 947 947 384
Width: 645
GlyphClass: 2
Flags: W
LayerCount: 2
Fore
SplineSet
319 -492 m 1,0,-1
 225 -492 l 1,1,2
 225 -399 225 -399 242.5 -263 c 128,-1,3
 260 -127 260 -127 281 -29 c 1,4,-1
 10 1085 l 1,5,-1
 106 1085 l 1,6,-1
 236 545 l 2,7,8
 263 426 263 426 288.5 318 c 128,-1,9
 314 210 314 210 324 119 c 1,10,-1
 332 119 l 1,11,12
 361 318 361 318 414 549 c 2,13,-1
 539 1085 l 1,14,-1
 635 1085 l 1,15,-1
 397 82 l 2,16,17
 362 -71 362 -71 340.5 -229.5 c 128,-1,18
 319 -388 319 -388 319 -492 c 1,0,-1
EndSplineSet
EndChar

StartChar: delta
Encoding: 948 948 385
Width: 866
GlyphClass: 2
Flags: W
LayerCount: 2
Fore
SplineSet
422 944 m 1,0,1
 297 1074 297 1074 254 1152 c 128,-1,2
 211 1230 211 1230 211 1311 c 0,3,4
 211 1421 211 1421 289 1487.5 c 128,-1,5
 367 1554 367 1554 492 1554 c 0,6,7
 570 1554 570 1554 632 1534 c 128,-1,8
 694 1514 694 1514 731 1491 c 1,9,-1
 690 1407 l 1,10,11
 596 1464 596 1464 487 1464 c 0,12,13
 405 1464 405 1464 356 1421 c 128,-1,14
 307 1378 307 1378 307 1309 c 0,15,16
 307 1263 307 1263 326.5 1218 c 128,-1,17
 346 1173 346 1173 385 1123 c 128,-1,18
 424 1073 424 1073 530 967 c 0,19,20
 667 830 667 830 719.5 712.5 c 128,-1,21
 772 595 772 595 772 451 c 0,22,23
 772 228 772 228 680 104 c 128,-1,24
 588 -20 588 -20 430 -20 c 0,25,26
 276 -20 276 -20 186 104.5 c 128,-1,27
 96 229 96 229 96 442 c 0,28,29
 96 615 96 615 186.5 752 c 128,-1,30
 277 889 277 889 422 944 c 1,0,1
674 453 m 0,31,32
 674 568 674 568 628 672.5 c 128,-1,33
 582 777 582 777 477 885 c 1,34,35
 343 833 343 833 269 713.5 c 128,-1,36
 195 594 195 594 195 438 c 0,37,38
 195 277 195 277 260.5 171.5 c 128,-1,39
 326 66 326 66 430 66 c 0,40,41
 548 66 548 66 611 166.5 c 128,-1,42
 674 267 674 267 674 453 c 0,31,32
EndSplineSet
EndChar

StartChar: epsilon
Encoding: 949 949 386
Width: 643
GlyphClass: 2
Flags: W
LayerCount: 2
Fore
SplineSet
449 618 m 1,0,-1
 449 532 l 1,1,-1
 393 532 l 2,2,3
 290 532 290 532 237 469 c 128,-1,4
 184 406 184 406 184 289 c 0,5,6
 184 216 184 216 208.5 168 c 128,-1,7
 233 120 233 120 275 95 c 128,-1,8
 317 70 317 70 369 70 c 0,9,10
 420 70 420 70 478 86.5 c 128,-1,11
 536 103 536 103 580 135 c 1,12,-1
 580 41 l 1,13,14
 537 11 537 11 484.5 -4.5 c 128,-1,15
 432 -20 432 -20 356 -20 c 0,16,17
 234 -20 234 -20 160 64.5 c 128,-1,18
 86 149 86 149 86 295 c 0,19,20
 86 403 86 403 135 475 c 128,-1,21
 184 547 184 547 274 575 c 1,22,-1
 274 584 l 1,23,24
 125 646 125 646 125 838 c 0,25,26
 125 958 125 958 199 1032 c 128,-1,27
 273 1106 273 1106 391 1106 c 0,28,29
 496 1106 496 1106 590 1044 c 1,30,-1
 543 965 l 1,31,32
 469 1016 469 1016 389 1016 c 0,33,34
 306 1016 306 1016 262.5 966.5 c 128,-1,35
 219 917 219 917 219 834 c 0,36,37
 219 731 219 731 268.5 674.5 c 128,-1,38
 318 618 318 618 406 618 c 2,39,-1
 449 618 l 1,0,-1
EndSplineSet
EndChar

StartChar: zeta
Encoding: 950 950 387
Width: 637
GlyphClass: 2
Flags: W
LayerCount: 2
Fore
SplineSet
129 1470 m 1,0,-1
 129 1556 l 1,1,-1
 600 1556 l 1,2,-1
 600 1477 l 1,3,4
 455 1283 455 1283 367 1110.5 c 128,-1,5
 279 938 279 938 237 787.5 c 128,-1,6
 195 637 195 637 195 469 c 0,7,8
 195 367 195 367 210 304 c 128,-1,9
 225 241 225 241 259 198.5 c 128,-1,10
 293 156 293 156 371 113 c 0,11,12
 458 63 458 63 504 24.5 c 128,-1,13
 550 -14 550 -14 568 -52 c 128,-1,14
 586 -90 586 -90 586 -156 c 0,15,16
 586 -202 586 -202 552.5 -278.5 c 128,-1,17
 519 -355 519 -355 467 -422 c 1,18,-1
 367 -422 l 1,19,20
 420 -353 420 -353 453.5 -282.5 c 128,-1,21
 487 -212 487 -212 487 -162 c 0,22,23
 487 -104 487 -104 446 -59 c 128,-1,24
 405 -14 405 -14 324 29 c 0,25,26
 227 81 227 81 183.5 133.5 c 128,-1,27
 140 186 140 186 118 263 c 128,-1,28
 96 340 96 340 96 457 c 0,29,30
 96 701 96 701 186 925 c 128,-1,31
 276 1149 276 1149 504 1477 c 1,32,33
 427 1470 427 1470 295 1470 c 2,34,-1
 129 1470 l 1,0,-1
EndSplineSet
EndChar

StartChar: eta
Encoding: 951 951 388
Width: 870
GlyphClass: 2
Flags: W
LayerCount: 2
Fore
SplineSet
635 -492 m 1,0,-1
 635 748 l 2,1,2
 635 1018 635 1018 475 1018 c 0,3,4
 353 1018 353 1018 296.5 917 c 128,-1,5
 240 816 240 816 240 596 c 2,6,-1
 240 0 l 1,7,-1
 145 0 l 1,8,-1
 145 1085 l 1,9,-1
 225 1085 l 1,10,-1
 233 934 l 1,11,-1
 242 934 l 1,12,13
 276 1016 276 1016 340 1061 c 128,-1,14
 404 1106 404 1106 477 1106 c 0,15,16
 603 1106 603 1106 666 1021.5 c 128,-1,17
 729 937 729 937 729 750 c 2,18,-1
 729 -492 l 1,19,-1
 635 -492 l 1,0,-1
EndSplineSet
EndChar

StartChar: theta
Encoding: 952 952 389
Width: 891
GlyphClass: 2
Flags: W
LayerCount: 2
Fore
SplineSet
797 782 m 0,0,1
 797 -20 797 -20 442 -20 c 0,2,3
 96 -20 96 -20 96 780 c 0,4,5
 96 1173 96 1173 187 1376 c 128,-1,6
 278 1579 278 1579 449 1579 c 0,7,8
 797 1579 797 1579 797 782 c 0,0,1
444 70 m 0,9,10
 688 70 688 70 698 760 c 1,11,-1
 195 760 l 1,12,13
 205 70 205 70 444 70 c 0,9,10
444 1489 m 0,14,15
 324 1489 324 1489 263.5 1326.5 c 128,-1,16
 203 1164 203 1164 195 846 c 1,17,-1
 698 846 l 1,18,19
 690 1162 690 1162 628.5 1325.5 c 128,-1,20
 567 1489 567 1489 444 1489 c 0,14,15
EndSplineSet
EndChar

StartChar: iota
Encoding: 953 953 390
Width: 446
GlyphClass: 2
Flags: W
HStem: -20 90<256.257 413.105> 1065 20G<145 240>
VStem: 145 95<104.559 1085>
LayerCount: 2
Fore
SplineSet
240 1085 m 1,0,-1
 240 221 l 2,1,2
 240 137 240 137 258.5 103.5 c 128,-1,3
 277 70 277 70 322 70 c 0,4,5
 345 70 345 70 376.5 76.5 c 128,-1,6
 408 83 408 83 414 86 c 1,7,-1
 414 0 l 1,8,9
 363 -20 363 -20 303 -20 c 0,10,11
 220 -20 220 -20 182.5 37.5 c 128,-1,12
 145 95 145 95 145 221 c 2,13,-1
 145 1085 l 1,14,-1
 240 1085 l 1,0,-1
EndSplineSet
EndChar

StartChar: lambda
Encoding: 955 955 392
Width: 715
GlyphClass: 2
Flags: W
LayerCount: 2
Fore
SplineSet
348 920 m 1,0,-1
 340 920 l 1,1,2
 331 863 331 863 315.5 796.5 c 128,-1,3
 300 730 300 730 115 0 c 1,4,-1
 20 0 l 1,5,-1
 307 1090 l 1,6,-1
 260 1315 l 2,7,8
 242 1404 242 1404 215 1443.5 c 128,-1,9
 188 1483 188 1483 137 1483 c 0,10,11
 101 1483 101 1483 78 1473 c 1,12,-1
 78 1556 l 1,13,14
 106 1569 106 1569 147 1569 c 0,15,16
 230 1569 230 1569 276.5 1510 c 128,-1,17
 323 1451 323 1451 346 1343 c 2,18,-1
 578 233 l 2,19,20
 596 146 596 146 618.5 106 c 128,-1,21
 641 66 641 66 682 66 c 0,22,23
 715 66 715 66 735 76 c 1,24,-1
 735 -8 l 1,25,26
 708 -20 708 -20 670 -20 c 0,27,28
 597 -20 597 -20 556 39 c 128,-1,29
 515 98 515 98 492 205 c 2,30,-1
 395 668 l 2,31,32
 381 730 381 730 371 797 c 128,-1,33
 361 864 361 864 348 920 c 1,0,-1
EndSplineSet
EndChar

StartChar: nu
Encoding: 957 957 394
Width: 723
GlyphClass: 2
Flags: W
LayerCount: 2
Fore
SplineSet
31 1085 m 1,0,-1
 127 1085 l 1,1,-1
 269 393 l 2,2,3
 308 205 308 205 319 109 c 1,4,-1
 328 109 l 1,5,6
 571 503 571 503 571 1085 c 1,7,-1
 666 1085 l 1,8,9
 666 760 666 760 589.5 501 c 128,-1,10
 513 242 513 242 348 0 c 1,11,-1
 260 0 l 1,12,-1
 31 1085 l 1,0,-1
EndSplineSet
EndChar

StartChar: xi
Encoding: 958 958 395
Width: 643
GlyphClass: 2
Flags: W
LayerCount: 2
Fore
SplineSet
360 1477 m 1,0,1
 286 1470 286 1470 213 1470 c 2,2,-1
 109 1470 l 1,3,-1
 109 1556 l 1,4,-1
 571 1556 l 1,5,-1
 571 1477 l 1,6,-1
 549 1477 l 2,7,8
 409 1477 409 1477 319 1385 c 128,-1,9
 229 1293 229 1293 229 1151 c 0,10,11
 229 995 229 995 284.5 931.5 c 128,-1,12
 340 868 340 868 467 868 c 2,13,-1
 541 868 l 1,14,-1
 541 776 l 1,15,-1
 451 776 l 2,16,17
 329 776 329 776 262 690 c 128,-1,18
 195 604 195 604 195 426 c 0,19,20
 195 293 195 293 234 223.5 c 128,-1,21
 273 154 273 154 371 113 c 0,22,23
 484 64 484 64 535 3.5 c 128,-1,24
 586 -57 586 -57 586 -156 c 0,25,26
 586 -202 586 -202 552.5 -278.5 c 128,-1,27
 519 -355 519 -355 467 -422 c 1,28,-1
 367 -422 l 1,29,30
 420 -353 420 -353 453.5 -282.5 c 128,-1,31
 487 -212 487 -212 487 -162 c 0,32,33
 487 -35 487 -35 324 29 c 0,34,35
 201 79 201 79 148.5 169 c 128,-1,36
 96 259 96 259 96 412 c 0,37,38
 96 580 96 580 162 690 c 128,-1,39
 228 800 228 800 346 817 c 1,40,-1
 346 825 l 1,41,42
 234 845 234 845 184.5 921.5 c 128,-1,43
 135 998 135 998 135 1151 c 0,44,45
 135 1266 135 1266 198 1355.5 c 128,-1,46
 261 1445 261 1445 360 1477 c 1,0,1
EndSplineSet
EndChar

StartChar: pi
Encoding: 960 960 397
Width: 870
GlyphClass: 2
Flags: W
LayerCount: 2
Fore
SplineSet
766 76 m 2,0,-1
 819 80 l 1,1,-1
 819 -4 l 1,2,3
 800 -12 800 -12 743 -12 c 0,4,5
 660 -12 660 -12 622 49 c 128,-1,6
 584 110 584 110 584 233 c 2,7,-1
 584 999 l 1,8,-1
 262 999 l 1,9,-1
 262 0 l 1,10,-1
 166 0 l 1,11,-1
 166 999 l 1,12,-1
 14 999 l 1,13,-1
 14 1034 l 1,14,-1
 92 1085 l 1,15,-1
 834 1085 l 1,16,-1
 834 999 l 1,17,-1
 680 999 l 1,18,-1
 680 233 l 2,19,20
 680 148 680 148 700.5 112 c 128,-1,21
 721 76 721 76 766 76 c 2,0,-1
EndSplineSet
EndChar

StartChar: rho
Encoding: 961 961 398
Width: 885
GlyphClass: 2
Flags: W
LayerCount: 2
Fore
SplineSet
791 547 m 0,0,1
 791 268 791 268 705.5 124 c 128,-1,2
 620 -20 620 -20 453 -20 c 0,3,4
 305 -20 305 -20 233 72 c 1,5,-1
 225 72 l 1,6,-1
 230 -15 l 2,7,8
 236 -129 236 -129 236 -195 c 2,9,-1
 236 -492 l 1,10,-1
 141 -492 l 1,11,-1
 141 567 l 2,12,13
 141 1106 141 1106 467 1106 c 0,14,15
 624 1106 624 1106 707.5 968.5 c 128,-1,16
 791 831 791 831 791 547 c 0,0,1
461 1016 m 0,17,18
 345 1016 345 1016 290.5 904.5 c 128,-1,19
 236 793 236 793 236 563 c 2,20,-1
 236 170 l 1,21,22
 313 66 313 66 440 66 c 0,23,24
 573 66 573 66 632.5 190.5 c 128,-1,25
 692 315 692 315 692 547 c 256,26,27
 692 779 692 779 636.5 897.5 c 128,-1,28
 581 1016 581 1016 461 1016 c 0,17,18
EndSplineSet
EndChar

StartChar: sigma1
Encoding: 962 962 399
Width: 614
GlyphClass: 2
Flags: W
LayerCount: 2
Fore
SplineSet
367 -422 m 1,0,1
 420 -353 420 -353 453.5 -282.5 c 128,-1,2
 487 -212 487 -212 487 -162 c 0,3,4
 487 -104 487 -104 446 -59 c 128,-1,5
 405 -14 405 -14 324 29 c 0,6,7
 224 82 224 82 181 142 c 128,-1,8
 138 202 138 202 117 297.5 c 128,-1,9
 96 393 96 393 96 537 c 0,10,11
 96 815 96 815 179.5 960.5 c 128,-1,12
 263 1106 263 1106 426 1106 c 0,13,14
 527 1106 527 1106 594 1069 c 1,15,-1
 559 983 l 1,16,17
 480 1016 480 1016 434 1016 c 0,18,19
 195 1016 195 1016 195 539 c 0,20,21
 195 409 195 409 209 332 c 128,-1,22
 223 255 223 255 255.5 207.5 c 128,-1,23
 288 160 288 160 371 113 c 0,24,25
 458 63 458 63 504 24.5 c 128,-1,26
 550 -14 550 -14 568 -52 c 128,-1,27
 586 -90 586 -90 586 -156 c 0,28,29
 586 -202 586 -202 552.5 -278.5 c 128,-1,30
 519 -355 519 -355 467 -422 c 1,31,-1
 367 -422 l 1,0,1
EndSplineSet
EndChar

StartChar: sigma
Encoding: 963 963 400
Width: 860
GlyphClass: 2
Flags: W
LayerCount: 2
Fore
SplineSet
745 506 m 0,0,1
 745 245 745 245 658.5 112.5 c 128,-1,2
 572 -20 572 -20 418 -20 c 0,3,4
 265 -20 265 -20 180.5 118 c 128,-1,5
 96 256 96 256 96 522 c 0,6,7
 96 1085 96 1085 494 1085 c 2,8,-1
 823 1085 l 1,9,-1
 823 999 l 1,10,-1
 641 999 l 1,11,12
 745 801 745 801 745 506 c 0,0,1
647 506 m 0,13,14
 647 765 647 765 555 999 c 1,15,-1
 492 999 l 2,16,17
 338 999 338 999 266.5 885.5 c 128,-1,18
 195 772 195 772 195 528 c 0,19,20
 195 66 195 66 420 66 c 0,21,22
 533 66 533 66 590 178.5 c 128,-1,23
 647 291 647 291 647 506 c 0,13,14
EndSplineSet
EndChar

StartChar: tau
Encoding: 964 964 401
Width: 547
GlyphClass: 2
Flags: W
LayerCount: 2
Fore
SplineSet
274 999 m 1,0,-1
 274 299 l 2,1,2
 274 182 274 182 304.5 122.5 c 128,-1,3
 335 63 335 63 401 63 c 0,4,5
 458 63 458 63 506 80 c 1,6,-1
 506 -4 l 1,7,8
 496 -11 496 -11 458 -18 c 128,-1,9
 420 -25 420 -25 395 -25 c 0,10,11
 281 -25 281 -25 230.5 53 c 128,-1,12
 180 131 180 131 180 291 c 2,13,-1
 180 999 l 1,14,-1
 0 999 l 1,15,-1
 0 1034 l 1,16,-1
 76 1085 l 1,17,-1
 516 1085 l 1,18,-1
 516 999 l 1,19,-1
 274 999 l 1,0,-1
EndSplineSet
EndChar

StartChar: upsilon
Encoding: 965 965 402
Width: 834
GlyphClass: 2
Flags: W
LayerCount: 2
Fore
SplineSet
236 444 m 2,0,1
 236 240 236 240 277.5 154 c 128,-1,2
 319 68 319 68 420 68 c 0,3,4
 653 68 653 68 653 522 c 0,5,6
 653 694 653 694 639 823.5 c 128,-1,7
 625 953 625 953 590 1085 c 1,8,-1
 686 1085 l 1,9,10
 721 919 721 919 730 848 c 128,-1,11
 739 777 739 777 743.5 694.5 c 128,-1,12
 748 612 748 612 748 524 c 0,13,14
 748 259 748 259 665.5 119.5 c 128,-1,15
 583 -20 583 -20 426 -20 c 0,16,17
 318 -20 318 -20 258 25.5 c 128,-1,18
 198 71 198 71 169.5 172.5 c 128,-1,19
 141 274 141 274 141 451 c 2,20,-1
 141 1085 l 1,21,-1
 236 1085 l 1,22,-1
 236 444 l 2,0,1
EndSplineSet
EndChar

StartChar: phi
Encoding: 966 966 403
Width: 1083
GlyphClass: 2
Flags: W
LayerCount: 2
Fore
SplineSet
492 -492 m 1,0,-1
 492 -20 l 1,1,2
 296 -3 296 -3 196 141 c 128,-1,3
 96 285 96 285 96 553 c 0,4,5
 96 861 96 861 297 1090 c 1,6,-1
 371 1032 l 1,7,8
 195 837 195 837 195 553 c 0,9,10
 195 329 195 329 270.5 206 c 128,-1,11
 346 83 346 83 492 66 c 1,12,-1
 492 782 l 2,13,14
 492 1110 492 1110 707 1110 c 0,15,16
 837 1110 837 1110 913 968.5 c 128,-1,17
 989 827 989 827 989 584 c 0,18,19
 989 316 989 316 883 156.5 c 128,-1,20
 777 -3 777 -3 586 -20 c 1,21,-1
 586 -492 l 1,22,-1
 492 -492 l 1,0,-1
891 582 m 0,23,24
 891 714 891 714 867 814.5 c 128,-1,25
 843 915 843 915 800 968.5 c 128,-1,26
 757 1022 757 1022 705 1022 c 0,27,28
 639 1022 639 1022 612.5 960.5 c 128,-1,29
 586 899 586 899 586 770 c 2,30,-1
 586 66 l 1,31,32
 677 76 677 76 747 141.5 c 128,-1,33
 817 207 817 207 854 319.5 c 128,-1,34
 891 432 891 432 891 582 c 0,23,24
EndSplineSet
EndChar

StartChar: chi
Encoding: 967 967 404
Width: 692
GlyphClass: 2
Flags: W
LayerCount: 2
Fore
SplineSet
365 489 m 1,0,-1
 565 1085 l 1,1,-1
 664 1085 l 1,2,-1
 399 340 l 1,3,-1
 535 -238 l 2,4,5
 554 -325 554 -325 576 -365.5 c 128,-1,6
 598 -406 598 -406 639 -406 c 0,7,8
 670 -406 670 -406 692 -395 c 1,9,-1
 692 -479 l 1,10,11
 662 -492 662 -492 627 -492 c 0,12,13
 563 -492 563 -492 519.5 -439.5 c 128,-1,14
 476 -387 476 -387 449 -266 c 2,15,-1
 340 195 l 1,16,-1
 111 -492 l 1,17,-1
 10 -492 l 1,18,-1
 305 344 l 1,19,-1
 188 844 l 2,20,21
 165 945 165 945 142.5 978.5 c 128,-1,22
 120 1012 120 1012 84 1012 c 0,23,24
 50 1012 50 1012 31 1001 c 1,25,-1
 31 1085 l 1,26,27
 57 1098 57 1098 96 1098 c 0,28,29
 160 1098 160 1098 203.5 1045.5 c 128,-1,30
 247 993 247 993 274 872 c 2,31,-1
 365 489 l 1,0,-1
EndSplineSet
EndChar

StartChar: psi
Encoding: 968 968 405
Width: 977
GlyphClass: 2
Flags: W
LayerCount: 2
Fore
SplineSet
227 520 m 2,0,1
 227 304 227 304 282.5 191 c 128,-1,2
 338 78 338 78 453 68 c 1,3,-1
 453 1556 l 1,4,-1
 547 1556 l 1,5,-1
 547 68 l 1,6,7
 667 76 667 76 723.5 207 c 128,-1,8
 780 338 780 338 780 594 c 0,9,10
 780 835 780 835 717 1085 c 1,11,-1
 813 1085 l 1,12,13
 879 827 879 827 879 590 c 0,14,15
 879 300 879 300 794 144 c 128,-1,16
 709 -12 709 -12 547 -20 c 1,17,-1
 547 -492 l 1,18,-1
 453 -492 l 1,19,-1
 453 -20 l 1,20,21
 297 -16 297 -16 215 121 c 128,-1,22
 133 258 133 258 133 512 c 2,23,-1
 133 1085 l 1,24,-1
 227 1085 l 1,25,-1
 227 520 l 2,0,1
EndSplineSet
EndChar

StartChar: omega
Encoding: 969 969 406
Width: 971
GlyphClass: 2
Flags: W
LayerCount: 2
Fore
SplineSet
483 156 m 1,0,1
 466 74 466 74 420 27 c 128,-1,2
 374 -20 374 -20 305 -20 c 0,3,4
 205 -20 205 -20 151.5 119.5 c 128,-1,5
 98 259 98 259 98 524 c 0,6,7
 98 816 98 816 195 1085 c 1,8,-1
 287 1085 l 1,9,10
 193 815 193 815 193 522 c 0,11,12
 193 70 193 70 322 70 c 0,13,14
 380 70 380 70 410 156.5 c 128,-1,15
 440 243 440 243 440 403 c 2,16,-1
 440 676 l 1,17,-1
 530 676 l 1,18,-1
 530 403 l 2,19,20
 530 243 530 243 560 156.5 c 128,-1,21
 590 70 590 70 649 70 c 0,22,23
 778 70 778 70 778 522 c 0,24,25
 778 815 778 815 684 1085 c 1,26,-1
 776 1085 l 1,27,28
 872 819 872 819 872 524 c 0,29,30
 872 348 872 348 846.5 227 c 128,-1,31
 821 106 821 106 773 43 c 128,-1,32
 725 -20 725 -20 659 -20 c 256,33,34
 593 -20 593 -20 548.5 27 c 128,-1,35
 504 74 504 74 487 156 c 1,36,-1
 483 156 l 1,0,1
EndSplineSet
EndChar

StartChar: afii10051
Encoding: 1026 1026 413
Width: 930
GlyphClass: 2
Flags: W
LayerCount: 2
Fore
SplineSet
815 299 m 2,0,1
 815 146 815 146 754 63 c 128,-1,2
 693 -20 693 -20 582 -20 c 0,3,4
 527 -20 527 -20 485 0 c 1,5,-1
 485 94 l 1,6,7
 534 74 534 74 580 74 c 0,8,9
 649 74 649 74 683 129.5 c 128,-1,10
 717 185 717 185 717 303 c 2,11,-1
 717 543 l 2,12,13
 717 668 717 668 663 725 c 128,-1,14
 609 782 609 782 487 782 c 2,15,-1
 352 782 l 1,16,-1
 352 0 l 1,17,-1
 254 0 l 1,18,-1
 254 1368 l 1,19,-1
 14 1368 l 1,20,-1
 14 1462 l 1,21,-1
 631 1462 l 1,22,-1
 631 1368 l 1,23,-1
 352 1368 l 1,24,-1
 352 877 l 1,25,-1
 483 877 l 2,26,27
 652 877 652 877 733.5 796.5 c 128,-1,28
 815 716 815 716 815 543 c 2,29,-1
 815 299 l 2,0,1
EndSplineSet
EndChar

StartChar: afii10053
Encoding: 1028 1028 415
Width: 860
GlyphClass: 2
Flags: W
LayerCount: 2
Fore
SplineSet
559 1391 m 0,0,1
 409 1391 409 1391 318 1237.5 c 128,-1,2
 227 1084 227 1084 215 813 c 1,3,-1
 672 813 l 1,4,-1
 672 719 l 1,5,-1
 213 719 l 1,6,7
 215 418 215 418 310 246 c 128,-1,8
 405 74 405 74 565 74 c 0,9,10
 641 74 641 74 688 89.5 c 128,-1,11
 735 105 735 105 772 127 c 1,12,-1
 772 37 l 1,13,14
 687 -20 687 -20 557 -20 c 0,15,16
 423 -20 423 -20 321.5 70.5 c 128,-1,17
 220 161 220 161 165.5 333 c 128,-1,18
 111 505 111 505 111 735 c 0,19,20
 111 1084 111 1084 231 1284.5 c 128,-1,21
 351 1485 351 1485 561 1485 c 0,22,23
 704 1485 704 1485 811 1411 c 1,24,-1
 764 1327 l 1,25,26
 669 1391 669 1391 559 1391 c 0,0,1
EndSplineSet
EndChar

StartChar: afii10058
Encoding: 1033 1033 420
Width: 1284
GlyphClass: 2
Flags: W
LayerCount: 2
Fore
SplineSet
1206 410 m 0,0,1
 1206 219 1206 219 1105.5 109.5 c 128,-1,2
 1005 0 1005 0 825 0 c 2,3,-1
 610 0 l 1,4,-1
 610 1368 l 1,5,-1
 385 1368 l 1,6,-1
 346 892 l 2,7,8
 303 372 303 372 275 237 c 128,-1,9
 247 102 247 102 198.5 44 c 128,-1,10
 150 -14 150 -14 55 -14 c 0,11,12
 9 -14 9 -14 -20 4 c 1,13,-1
 -20 96 l 1,14,15
 3 80 3 80 49 80 c 0,16,17
 82 80 82 80 104.5 93 c 128,-1,18
 127 106 127 106 145.5 143.5 c 128,-1,19
 164 181 164 181 178.5 251 c 128,-1,20
 193 321 193 321 206.5 435 c 128,-1,21
 220 549 220 549 299 1462 c 1,22,-1
 709 1462 l 1,23,-1
 709 813 l 1,24,-1
 823 813 l 2,25,26
 1017 813 1017 813 1111.5 717 c 128,-1,27
 1206 621 1206 621 1206 410 c 0,0,1
709 90 m 1,28,-1
 829 90 l 2,29,30
 964 90 964 90 1035 172.5 c 128,-1,31
 1106 255 1106 255 1106 410 c 0,32,33
 1106 571 1106 571 1038 647 c 128,-1,34
 970 723 970 723 827 723 c 2,35,-1
 709 723 l 1,36,-1
 709 90 l 1,28,-1
EndSplineSet
EndChar

StartChar: afii10059
Encoding: 1034 1034 421
Width: 1341
GlyphClass: 2
Flags: W
LayerCount: 2
Fore
SplineSet
770 813 m 1,0,-1
 885 813 l 2,1,2
 1081 813 1081 813 1174.5 715.5 c 128,-1,3
 1268 618 1268 618 1268 410 c 0,4,5
 1268 218 1268 218 1166.5 109 c 128,-1,6
 1065 0 1065 0 887 0 c 2,7,-1
 672 0 l 1,8,-1
 672 723 l 1,9,-1
 258 723 l 1,10,-1
 258 0 l 1,11,-1
 160 0 l 1,12,-1
 160 1462 l 1,13,-1
 258 1462 l 1,14,-1
 258 813 l 1,15,-1
 672 813 l 1,16,-1
 672 1462 l 1,17,-1
 770 1462 l 1,18,-1
 770 813 l 1,0,-1
770 90 m 1,19,-1
 891 90 l 2,20,21
 1025 90 1025 90 1096 172.5 c 128,-1,22
 1167 255 1167 255 1167 410 c 0,23,24
 1167 571 1167 571 1100 647 c 128,-1,25
 1033 723 1033 723 889 723 c 2,26,-1
 770 723 l 1,27,-1
 770 90 l 1,19,-1
EndSplineSet
EndChar

StartChar: afii10060
Encoding: 1035 1035 422
Width: 950
GlyphClass: 2
Flags: W
LayerCount: 2
Fore
SplineSet
352 877 m 1,0,-1
 487 877 l 2,1,2
 653 877 653 877 734 796.5 c 128,-1,3
 815 716 815 716 815 543 c 2,4,-1
 815 0 l 1,5,-1
 717 0 l 1,6,-1
 717 543 l 2,7,8
 717 668 717 668 663 725 c 128,-1,9
 609 782 609 782 487 782 c 2,10,-1
 352 782 l 1,11,-1
 352 0 l 1,12,-1
 254 0 l 1,13,-1
 254 1368 l 1,14,-1
 14 1368 l 1,15,-1
 14 1462 l 1,16,-1
 631 1462 l 1,17,-1
 631 1368 l 1,18,-1
 352 1368 l 1,19,-1
 352 877 l 1,0,-1
EndSplineSet
EndChar

StartChar: afii10145
Encoding: 1039 1039 425
Width: 1026
GlyphClass: 2
Flags: W
LayerCount: 2
Fore
SplineSet
160 1462 m 1,0,-1
 258 1462 l 1,1,-1
 258 94 l 1,2,-1
 768 94 l 1,3,-1
 768 1462 l 1,4,-1
 866 1462 l 1,5,-1
 866 0 l 1,6,-1
 561 0 l 1,7,-1
 561 -369 l 1,8,-1
 467 -369 l 1,9,-1
 467 0 l 1,10,-1
 160 0 l 1,11,-1
 160 1462 l 1,0,-1
EndSplineSet
EndChar

StartChar: afii10018
Encoding: 1041 1041 427
Width: 864
GlyphClass: 2
Flags: W
LayerCount: 2
Fore
SplineSet
258 1368 m 1,0,-1
 258 813 l 1,1,-1
 414 813 l 2,2,3
 610 813 610 813 703.5 715.5 c 128,-1,4
 797 618 797 618 797 410 c 0,5,6
 797 218 797 218 695.5 109 c 128,-1,7
 594 0 594 0 416 0 c 2,8,-1
 160 0 l 1,9,-1
 160 1462 l 1,10,-1
 731 1462 l 1,11,-1
 731 1368 l 1,12,-1
 258 1368 l 1,0,-1
258 90 m 1,13,-1
 420 90 l 2,14,15
 554 90 554 90 625 172.5 c 128,-1,16
 696 255 696 255 696 410 c 0,17,18
 696 571 696 571 629 647 c 128,-1,19
 562 723 562 723 418 723 c 2,20,-1
 258 723 l 1,21,-1
 258 90 l 1,13,-1
EndSplineSet
EndChar

StartChar: afii10021
Encoding: 1044 1044 430
Width: 938
GlyphClass: 2
Flags: W
LayerCount: 2
Fore
SplineSet
897 -369 m 1,0,-1
 803 -369 l 1,1,-1
 803 0 l 1,2,-1
 104 0 l 1,3,-1
 104 -369 l 1,4,-1
 10 -369 l 1,5,-1
 10 94 l 1,6,-1
 98 94 l 1,7,8
 216 453 216 453 265.5 764 c 128,-1,9
 315 1075 315 1075 315 1462 c 1,10,-1
 772 1462 l 1,11,-1
 772 94 l 1,12,-1
 897 94 l 1,13,-1
 897 -369 l 1,0,-1
674 94 m 1,14,-1
 674 1368 l 1,15,-1
 414 1368 l 1,16,17
 392 663 392 663 199 94 c 1,18,-1
 674 94 l 1,14,-1
EndSplineSet
EndChar

StartChar: afii10024
Encoding: 1046 1046 432
Width: 1122
GlyphClass: 2
Flags: W
LayerCount: 2
Fore
SplineSet
512 1462 m 1,0,-1
 610 1462 l 1,1,-1
 610 756 l 1,2,-1
 1004 1462 l 1,3,-1
 1110 1462 l 1,4,-1
 711 756 l 1,5,-1
 1122 0 l 1,6,-1
 1012 0 l 1,7,-1
 610 748 l 1,8,-1
 610 0 l 1,9,-1
 512 0 l 1,10,-1
 512 748 l 1,11,-1
 111 0 l 1,12,-1
 0 0 l 1,13,-1
 412 756 l 1,14,-1
 12 1462 l 1,15,-1
 119 1462 l 1,16,-1
 512 756 l 1,17,-1
 512 1462 l 1,0,-1
EndSplineSet
EndChar

StartChar: afii10025
Encoding: 1047 1047 433
Width: 813
GlyphClass: 2
Flags: W
LayerCount: 2
Fore
SplineSet
686 391 m 0,0,1
 686 196 686 196 588 88 c 128,-1,2
 490 -20 490 -20 313 -20 c 0,3,4
 173 -20 173 -20 57 35 c 1,5,-1
 57 143 l 1,6,7
 108 111 108 111 176 92.5 c 128,-1,8
 244 74 244 74 313 74 c 0,9,10
 584 74 584 74 584 389 c 0,11,12
 584 555 584 555 506 633 c 128,-1,13
 428 711 428 711 264 711 c 2,14,-1
 164 711 l 1,15,-1
 164 805 l 1,16,-1
 270 805 l 2,17,18
 411 805 411 805 488 887 c 128,-1,19
 565 969 565 969 565 1128 c 0,20,21
 565 1260 565 1260 506.5 1324.5 c 128,-1,22
 448 1389 448 1389 342 1389 c 0,23,24
 283 1389 283 1389 233.5 1363 c 128,-1,25
 184 1337 184 1337 150 1296 c 1,26,-1
 84 1364 l 1,27,28
 194 1483 194 1483 350 1483 c 0,29,30
 499 1483 499 1483 582.5 1388.5 c 128,-1,31
 666 1294 666 1294 666 1128 c 0,32,33
 666 985 666 985 598.5 888.5 c 128,-1,34
 531 792 531 792 416 762 c 1,35,-1
 416 754 l 1,36,37
 549 737 549 737 617.5 643 c 128,-1,38
 686 549 686 549 686 391 c 0,0,1
EndSplineSet
EndChar

StartChar: afii10026
Encoding: 1048 1048 434
Width: 1090
GlyphClass: 2
Flags: W
HStem: 0 21G<160 293.436 834 930> 1442 20G<160 256 794.528 930>
VStem: 160 96<166 1462> 834 96<0 1306.75>
LayerCount: 2
Fore
SplineSet
160 1462 m 1,0,-1
 256 1462 l 1,1,-1
 256 440 l 2,2,3
 256 406 256 406 255.5 372.5 c 128,-1,4
 255 339 255 339 246 166 c 1,5,-1
 254 166 l 1,6,-1
 803 1462 l 1,7,-1
 930 1462 l 1,8,-1
 930 0 l 1,9,-1
 834 0 l 1,10,-1
 834 1049 l 2,11,12
 834 1175 834 1175 846 1311 c 1,13,-1
 838 1311 l 1,14,-1
 285 0 l 1,15,-1
 160 0 l 1,16,-1
 160 1462 l 1,0,-1
EndSplineSet
EndChar

StartChar: afii10028
Encoding: 1050 1050 436
Width: 811
GlyphClass: 2
Flags: W
LayerCount: 2
Fore
SplineSet
258 756 m 1,0,-1
 672 1462 l 1,1,-1
 778 1462 l 1,2,-1
 360 756 l 1,3,-1
 811 0 l 1,4,-1
 698 0 l 1,5,-1
 258 748 l 1,6,-1
 258 0 l 1,7,-1
 160 0 l 1,8,-1
 160 1462 l 1,9,-1
 258 1462 l 1,10,-1
 258 756 l 1,0,-1
EndSplineSet
EndChar

StartChar: afii10029
Encoding: 1051 1051 437
Width: 930
GlyphClass: 2
Flags: W
LayerCount: 2
Fore
SplineSet
770 0 m 1,0,-1
 672 0 l 1,1,-1
 672 1368 l 1,2,-1
 385 1368 l 1,3,-1
 346 892 l 2,4,5
 303 372 303 372 275 237 c 128,-1,6
 247 102 247 102 198.5 44 c 128,-1,7
 150 -14 150 -14 55 -14 c 0,8,9
 9 -14 9 -14 -20 4 c 1,10,-1
 -20 96 l 1,11,12
 3 80 3 80 49 80 c 0,13,14
 82 80 82 80 104.5 93 c 128,-1,15
 127 106 127 106 145.5 143.5 c 128,-1,16
 164 181 164 181 178.5 251 c 128,-1,17
 193 321 193 321 206.5 435 c 128,-1,18
 220 549 220 549 299 1462 c 1,19,-1
 770 1462 l 1,20,-1
 770 0 l 1,0,-1
EndSplineSet
EndChar

StartChar: afii10037
Encoding: 1059 1059 445
Width: 686
GlyphClass: 2
Flags: W
LayerCount: 2
Fore
SplineSet
313 428 m 1,0,-1
 0 1462 l 1,1,-1
 102 1462 l 1,2,-1
 324 713 l 2,3,4
 335 674 335 674 358 569 c 1,5,-1
 367 569 l 1,6,7
 379 654 379 654 395 713 c 2,8,-1
 584 1462 l 1,9,-1
 686 1462 l 1,10,-1
 360 242 l 2,11,12
 323 103 323 103 268 41.5 c 128,-1,13
 213 -20 213 -20 125 -20 c 0,14,15
 77 -20 77 -20 37 0 c 1,16,-1
 37 92 l 1,17,18
 81 74 81 74 123 74 c 0,19,20
 173 74 173 74 207 118.5 c 128,-1,21
 241 163 241 163 270 266 c 2,22,-1
 313 428 l 1,0,-1
EndSplineSet
EndChar

StartChar: afii10040
Encoding: 1062 1062 448
Width: 1032
GlyphClass: 2
Flags: W
LayerCount: 2
Fore
SplineSet
866 94 m 1,0,-1
 977 94 l 1,1,-1
 977 -369 l 1,2,-1
 883 -369 l 1,3,-1
 883 0 l 1,4,-1
 160 0 l 1,5,-1
 160 1462 l 1,6,-1
 258 1462 l 1,7,-1
 258 94 l 1,8,-1
 768 94 l 1,9,-1
 768 1462 l 1,10,-1
 866 1462 l 1,11,-1
 866 94 l 1,0,-1
EndSplineSet
EndChar

StartChar: afii10041
Encoding: 1063 1063 449
Width: 1001
GlyphClass: 2
Flags: W
LayerCount: 2
Fore
SplineSet
842 0 m 1,0,-1
 743 0 l 1,1,-1
 743 627 l 1,2,3
 575 532 575 532 424 532 c 0,4,5
 135 532 135 532 135 899 c 2,6,-1
 135 1462 l 1,7,-1
 233 1462 l 1,8,-1
 233 895 l 2,9,10
 233 760 233 760 281.5 693.5 c 128,-1,11
 330 627 330 627 432 627 c 0,12,13
 509 627 509 627 576.5 643.5 c 128,-1,14
 644 660 644 660 743 713 c 1,15,-1
 743 1462 l 1,16,-1
 842 1462 l 1,17,-1
 842 0 l 1,0,-1
EndSplineSet
EndChar

StartChar: afii10042
Encoding: 1064 1064 450
Width: 1407
GlyphClass: 2
Flags: W
HStem: 0 94<258 653 752 1149> 1442 20G<160 258 653 752 1149 1247>
VStem: 160 98<94 1462> 653 99<94 1462> 1149 98<94 1462>
LayerCount: 2
Fore
SplineSet
1247 0 m 1,0,-1
 160 0 l 1,1,-1
 160 1462 l 1,2,-1
 258 1462 l 1,3,-1
 258 94 l 1,4,-1
 653 94 l 1,5,-1
 653 1462 l 1,6,-1
 752 1462 l 1,7,-1
 752 94 l 1,8,-1
 1149 94 l 1,9,-1
 1149 1462 l 1,10,-1
 1247 1462 l 1,11,-1
 1247 0 l 1,0,-1
EndSplineSet
EndChar

StartChar: afii10043
Encoding: 1065 1065 451
Width: 1413
GlyphClass: 2
Flags: W
LayerCount: 2
Fore
SplineSet
752 94 m 1,0,-1
 1149 94 l 1,1,-1
 1149 1462 l 1,2,-1
 1247 1462 l 1,3,-1
 1247 94 l 1,4,-1
 1358 94 l 1,5,-1
 1358 -369 l 1,6,-1
 1264 -369 l 1,7,-1
 1264 0 l 1,8,-1
 160 0 l 1,9,-1
 160 1462 l 1,10,-1
 258 1462 l 1,11,-1
 258 94 l 1,12,-1
 653 94 l 1,13,-1
 653 1462 l 1,14,-1
 752 1462 l 1,15,-1
 752 94 l 1,0,-1
EndSplineSet
EndChar

StartChar: afii10044
Encoding: 1066 1066 452
Width: 1030
GlyphClass: 2
Flags: W
LayerCount: 2
Fore
SplineSet
25 1366 m 1,0,-1
 25 1462 l 1,1,-1
 414 1462 l 1,2,-1
 414 813 l 1,3,-1
 569 813 l 2,4,5
 763 813 763 813 857.5 717 c 128,-1,6
 952 621 952 621 952 410 c 0,7,8
 952 219 952 219 851.5 109.5 c 128,-1,9
 751 0 751 0 571 0 c 2,10,-1
 315 0 l 1,11,-1
 315 1366 l 1,12,-1
 25 1366 l 1,0,-1
414 90 m 1,13,-1
 575 90 l 2,14,15
 710 90 710 90 781 172.5 c 128,-1,16
 852 255 852 255 852 410 c 0,17,18
 852 571 852 571 784 647 c 128,-1,19
 716 723 716 723 573 723 c 2,20,-1
 414 723 l 1,21,-1
 414 90 l 1,13,-1
EndSplineSet
EndChar

StartChar: afii10045
Encoding: 1067 1067 453
Width: 1284
GlyphClass: 2
Flags: W
LayerCount: 2
Fore
SplineSet
797 410 m 0,0,1
 797 218 797 218 695.5 109 c 128,-1,2
 594 0 594 0 416 0 c 2,3,-1
 160 0 l 1,4,-1
 160 1462 l 1,5,-1
 258 1462 l 1,6,-1
 258 813 l 1,7,-1
 414 813 l 2,8,9
 610 813 610 813 703.5 715.5 c 128,-1,10
 797 618 797 618 797 410 c 0,0,1
258 90 m 1,11,-1
 420 90 l 2,12,13
 554 90 554 90 625 172.5 c 128,-1,14
 696 255 696 255 696 410 c 0,15,16
 696 571 696 571 629 647 c 128,-1,17
 562 723 562 723 418 723 c 2,18,-1
 258 723 l 1,19,-1
 258 90 l 1,11,-1
1124 0 m 1,20,-1
 1026 0 l 1,21,-1
 1026 1462 l 1,22,-1
 1124 1462 l 1,23,-1
 1124 0 l 1,20,-1
EndSplineSet
EndChar

StartChar: afii10046
Encoding: 1068 1068 454
Width: 874
GlyphClass: 2
Flags: W
LayerCount: 2
Fore
SplineSet
797 410 m 0,0,1
 797 218 797 218 695.5 109 c 128,-1,2
 594 0 594 0 416 0 c 2,3,-1
 160 0 l 1,4,-1
 160 1462 l 1,5,-1
 258 1462 l 1,6,-1
 258 813 l 1,7,-1
 414 813 l 2,8,9
 610 813 610 813 703.5 715.5 c 128,-1,10
 797 618 797 618 797 410 c 0,0,1
258 90 m 1,11,-1
 420 90 l 2,12,13
 554 90 554 90 625 172.5 c 128,-1,14
 696 255 696 255 696 410 c 0,15,16
 696 571 696 571 629 647 c 128,-1,17
 562 723 562 723 418 723 c 2,18,-1
 258 723 l 1,19,-1
 258 90 l 1,11,-1
EndSplineSet
EndChar

StartChar: afii10047
Encoding: 1069 1069 455
Width: 860
GlyphClass: 2
Flags: W
LayerCount: 2
Fore
SplineSet
283 1485 m 0,0,1
 424 1485 424 1485 530.5 1394 c 128,-1,2
 637 1303 637 1303 693.5 1131.5 c 128,-1,3
 750 960 750 960 750 729 c 0,4,5
 750 383 750 383 625.5 181.5 c 128,-1,6
 501 -20 501 -20 285 -20 c 0,7,8
 225 -20 225 -20 169 -9 c 128,-1,9
 113 2 113 2 82 20 c 1,10,-1
 82 115 l 1,11,12
 166 74 166 74 287 74 c 0,13,14
 451 74 451 74 547 244.5 c 128,-1,15
 643 415 643 415 647 719 c 1,16,-1
 186 719 l 1,17,-1
 186 813 l 1,18,-1
 645 813 l 1,19,20
 631 1085 631 1085 534.5 1238 c 128,-1,21
 438 1391 438 1391 283 1391 c 0,22,23
 180 1391 180 1391 96 1337 c 1,24,-1
 51 1421 l 1,25,26
 154 1485 154 1485 283 1485 c 0,0,1
EndSplineSet
EndChar

StartChar: afii10048
Encoding: 1070 1070 456
Width: 1384
GlyphClass: 2
Flags: W
LayerCount: 2
Fore
SplineSet
1274 733 m 0,0,1
 1274 372 1274 372 1174.5 176 c 128,-1,2
 1075 -20 1075 -20 887 -20 c 0,3,4
 702 -20 702 -20 602 169 c 128,-1,5
 502 358 502 358 500 719 c 1,6,-1
 258 719 l 1,7,-1
 258 0 l 1,8,-1
 160 0 l 1,9,-1
 160 1462 l 1,10,-1
 258 1462 l 1,11,-1
 258 813 l 1,12,-1
 500 813 l 1,13,14
 517 1483 517 1483 889 1483 c 0,15,16
 1075 1483 1075 1483 1174.5 1290 c 128,-1,17
 1274 1097 1274 1097 1274 733 c 0,0,1
602 733 m 0,18,19
 602 407 602 407 675 240.5 c 128,-1,20
 748 74 748 74 887 74 c 0,21,22
 1027 74 1027 74 1099 241.5 c 128,-1,23
 1171 409 1171 409 1171 733 c 0,24,25
 1171 1060 1171 1060 1099.5 1224.5 c 128,-1,26
 1028 1389 1028 1389 889 1389 c 0,27,28
 747 1389 747 1389 674.5 1222.5 c 128,-1,29
 602 1056 602 1056 602 733 c 0,18,19
EndSplineSet
EndChar

StartChar: afii10049
Encoding: 1071 1071 457
Width: 877
GlyphClass: 2
Flags: W
LayerCount: 2
Fore
SplineSet
426 639 m 1,0,-1
 154 0 l 1,1,-1
 43 0 l 1,2,-1
 334 653 l 1,3,4
 224 682 224 682 162 785.5 c 128,-1,5
 100 889 100 889 100 1042 c 0,6,7
 100 1462 100 1462 479 1462 c 2,8,-1
 717 1462 l 1,9,-1
 717 0 l 1,10,-1
 618 0 l 1,11,-1
 618 637 l 1,12,-1
 426 639 l 1,0,-1
618 1372 m 1,13,-1
 494 1372 l 2,14,15
 338 1372 338 1372 270.5 1295 c 128,-1,16
 203 1218 203 1218 203 1047 c 0,17,18
 203 881 203 881 266 803 c 128,-1,19
 329 725 329 725 467 725 c 2,20,-1
 618 725 l 1,21,-1
 618 1372 l 1,13,-1
EndSplineSet
EndChar

StartChar: afii10066
Encoding: 1073 1073 459
Width: 864
GlyphClass: 2
Flags: W
LayerCount: 2
Fore
SplineSet
205 690 m 1,0,1
 209 370 209 370 261.5 218 c 128,-1,2
 314 66 314 66 424 66 c 0,3,4
 672 66 672 66 672 494 c 0,5,6
 672 915 672 915 434 915 c 0,7,8
 361 915 361 915 297 851 c 128,-1,9
 233 787 233 787 205 690 c 1,0,1
106 711 m 0,10,11
 106 1017 106 1017 160.5 1191.5 c 128,-1,12
 215 1366 215 1366 344.5 1451.5 c 128,-1,13
 474 1537 474 1537 745 1563 c 1,14,-1
 760 1477 l 1,15,16
 538 1460 538 1460 427 1399 c 128,-1,17
 316 1338 316 1338 264.5 1211 c 128,-1,18
 213 1084 213 1084 205 842 c 1,19,-1
 213 842 l 1,20,21
 250 920 250 920 313.5 963 c 128,-1,22
 377 1006 377 1006 451 1006 c 0,23,24
 601 1006 601 1006 685.5 873.5 c 128,-1,25
 770 741 770 741 770 494 c 256,26,27
 770 247 770 247 681 113.5 c 128,-1,28
 592 -20 592 -20 422 -20 c 0,29,30
 258 -20 258 -20 182 159.5 c 128,-1,31
 106 339 106 339 106 711 c 0,10,11
EndSplineSet
EndChar

StartChar: afii10067
Encoding: 1074 1074 460
Width: 784
GlyphClass: 2
Flags: W
LayerCount: 2
Fore
SplineSet
668 825 m 0,0,1
 668 726 668 726 632 666.5 c 128,-1,2
 596 607 596 607 518 582 c 1,3,-1
 518 573 l 1,4,5
 606 558 606 558 652 492 c 128,-1,6
 698 426 698 426 698 326 c 0,7,8
 698 172 698 172 619 86 c 128,-1,9
 540 0 540 0 395 0 c 2,10,-1
 145 0 l 1,11,-1
 145 1085 l 1,12,-1
 375 1085 l 2,13,14
 518 1085 518 1085 593 1017.5 c 128,-1,15
 668 950 668 950 668 825 c 0,0,1
600 328 m 0,16,17
 600 438 600 438 549.5 485 c 128,-1,18
 499 532 499 532 401 532 c 2,19,-1
 240 532 l 1,20,-1
 240 86 l 1,21,-1
 397 86 l 2,22,23
 503 86 503 86 551.5 143.5 c 128,-1,24
 600 201 600 201 600 328 c 0,16,17
569 825 m 0,25,26
 569 999 569 999 377 999 c 2,27,-1
 240 999 l 1,28,-1
 240 614 l 1,29,-1
 397 614 l 2,30,31
 490 614 490 614 529.5 664 c 128,-1,32
 569 714 569 714 569 825 c 0,25,26
EndSplineSet
EndChar

StartChar: afii10068
Encoding: 1075 1075 461
Width: 592
GlyphClass: 2
Flags: W
LayerCount: 2
Fore
SplineSet
575 1085 m 1,0,-1
 575 995 l 1,1,-1
 240 995 l 1,2,-1
 240 0 l 1,3,-1
 145 0 l 1,4,-1
 145 1085 l 1,5,-1
 575 1085 l 1,0,-1
EndSplineSet
EndChar

StartChar: afii10069
Encoding: 1076 1076 462
Width: 788
GlyphClass: 2
Flags: W
LayerCount: 2
Fore
SplineSet
539 90 m 1,0,-1
 539 999 l 1,1,-1
 352 999 l 1,2,3
 349 759 349 759 301.5 496.5 c 128,-1,4
 254 234 254 234 186 90 c 1,5,-1
 539 90 l 1,0,-1
743 -369 m 1,6,-1
 649 -369 l 1,7,-1
 649 0 l 1,8,-1
 104 0 l 1,9,-1
 104 -369 l 1,10,-1
 10 -369 l 1,11,-1
 10 90 l 1,12,-1
 94 90 l 1,13,14
 178 285 178 285 221 541 c 128,-1,15
 264 797 264 797 264 1085 c 1,16,-1
 633 1085 l 1,17,-1
 633 90 l 1,18,-1
 743 90 l 1,19,-1
 743 -369 l 1,6,-1
EndSplineSet
EndChar

StartChar: afii10072
Encoding: 1078 1078 464
Width: 958
GlyphClass: 2
Flags: W
LayerCount: 2
Fore
SplineSet
526 1085 m 1,0,-1
 526 575 l 1,1,-1
 815 1085 l 1,2,-1
 922 1085 l 1,3,-1
 621 575 l 1,4,-1
 948 0 l 1,5,-1
 838 0 l 1,6,-1
 526 567 l 1,7,-1
 526 0 l 1,8,-1
 432 0 l 1,9,-1
 432 567 l 1,10,-1
 121 0 l 1,11,-1
 10 0 l 1,12,-1
 338 575 l 1,13,-1
 37 1085 l 1,14,-1
 143 1085 l 1,15,-1
 432 575 l 1,16,-1
 432 1085 l 1,17,-1
 526 1085 l 1,0,-1
EndSplineSet
EndChar

StartChar: afii10073
Encoding: 1079 1079 465
Width: 643
GlyphClass: 2
Flags: W
LayerCount: 2
Fore
SplineSet
258 618 m 2,0,1
 304 618 304 618 343.5 644 c 128,-1,2
 383 670 383 670 405.5 718.5 c 128,-1,3
 428 767 428 767 428 831 c 0,4,5
 428 927 428 927 384.5 974.5 c 128,-1,6
 341 1022 341 1022 268 1022 c 0,7,8
 192 1022 192 1022 115 973 c 1,9,-1
 70 1047 l 1,10,11
 164 1106 164 1106 279 1106 c 0,12,13
 396 1106 396 1106 461 1035 c 128,-1,14
 526 964 526 964 526 836 c 0,15,16
 526 747 526 747 484.5 680.5 c 128,-1,17
 443 614 443 614 379 588 c 1,18,-1
 379 580 l 1,19,20
 464 552 464 552 509.5 482 c 128,-1,21
 555 412 555 412 555 305 c 0,22,23
 555 156 555 156 475.5 68 c 128,-1,24
 396 -20 396 -20 268 -20 c 0,25,26
 128 -20 128 -20 51 51 c 1,27,-1
 51 150 l 1,28,29
 93 117 93 117 145 91.5 c 128,-1,30
 197 66 197 66 268 66 c 0,31,32
 358 66 358 66 407.5 127 c 128,-1,33
 457 188 457 188 457 305 c 0,34,35
 457 408 457 408 402 470 c 128,-1,36
 347 532 347 532 252 532 c 2,37,-1
 203 532 l 1,38,-1
 203 618 l 1,39,-1
 258 618 l 2,0,1
EndSplineSet
EndChar

StartChar: afii10074
Encoding: 1080 1080 466
Width: 883
GlyphClass: 2
Flags: W
HStem: 0 21G<145 270.209 643 737> 1065 20G<145 240 609.791 737>
VStem: 145 95<147 1085> 643 94<0 938>
LayerCount: 2
Fore
SplineSet
240 1085 m 1,0,-1
 240 352 l 1,1,-1
 233 147 l 1,2,-1
 618 1085 l 1,3,-1
 737 1085 l 1,4,-1
 737 0 l 1,5,-1
 643 0 l 1,6,-1
 643 702 l 1,7,-1
 647 938 l 1,8,-1
 262 0 l 1,9,-1
 145 0 l 1,10,-1
 145 1085 l 1,11,-1
 240 1085 l 1,0,-1
EndSplineSet
EndChar

StartChar: afii10076
Encoding: 1082 1082 468
Width: 692
GlyphClass: 2
Flags: W
LayerCount: 2
Fore
SplineSet
547 1085 m 1,0,-1
 655 1085 l 1,1,-1
 336 575 l 1,2,-1
 682 0 l 1,3,-1
 569 0 l 1,4,-1
 240 567 l 1,5,-1
 240 0 l 1,6,-1
 145 0 l 1,7,-1
 145 1085 l 1,8,-1
 240 1085 l 1,9,-1
 240 575 l 1,10,-1
 547 1085 l 1,0,-1
EndSplineSet
EndChar

StartChar: afii10077
Encoding: 1083 1083 469
Width: 776
GlyphClass: 2
Flags: W
LayerCount: 2
Fore
SplineSet
303 995 m 1,0,1
 292 718 292 718 272 522.5 c 128,-1,2
 252 327 252 327 224 211.5 c 128,-1,3
 196 96 196 96 153.5 43 c 128,-1,4
 111 -10 111 -10 35 -10 c 0,5,6
 11 -10 11 -10 -10 -2 c 1,7,-1
 -10 86 l 1,8,9
 2 80 2 80 25 80 c 0,10,11
 84 80 84 80 119.5 180 c 128,-1,12
 155 280 155 280 178 494 c 128,-1,13
 201 708 201 708 215 1085 c 1,14,-1
 631 1085 l 1,15,-1
 631 0 l 1,16,-1
 537 0 l 1,17,-1
 537 995 l 1,18,-1
 303 995 l 1,0,1
EndSplineSet
EndChar

StartChar: afii10078
Encoding: 1084 1084 470
Width: 1055
GlyphClass: 2
Flags: W
LayerCount: 2
Fore
SplineSet
469 0 m 1,0,-1
 233 938 l 1,1,-1
 225 938 l 1,2,3
 236 707 236 707 236 659 c 2,4,-1
 236 0 l 1,5,-1
 145 0 l 1,6,-1
 145 1085 l 1,7,-1
 283 1085 l 1,8,-1
 463 377 l 2,9,10
 502 216 502 216 520 106 c 1,11,-1
 528 106 l 1,12,13
 529 121 529 121 546.5 197.5 c 128,-1,14
 564 274 564 274 772 1085 c 1,15,-1
 909 1085 l 1,16,-1
 909 0 l 1,17,-1
 815 0 l 1,18,-1
 815 653 l 2,19,20
 815 728 815 728 825 938 c 1,21,-1
 817 938 l 1,22,-1
 580 0 l 1,23,-1
 469 0 l 1,0,-1
EndSplineSet
EndChar

StartChar: afii10079
Encoding: 1085 1085 471
Width: 883
GlyphClass: 2
Flags: W
HStem: 0 21G<145 240 643 737> 524 86<240 643> 1065 20G<145 240 643 737>
VStem: 145 95<0 524 610 1085> 643 94<0 524 610 1085>
LayerCount: 2
Fore
SplineSet
240 1085 m 1,0,-1
 240 610 l 1,1,-1
 643 610 l 1,2,-1
 643 1085 l 1,3,-1
 737 1085 l 1,4,-1
 737 0 l 1,5,-1
 643 0 l 1,6,-1
 643 524 l 1,7,-1
 240 524 l 1,8,-1
 240 0 l 1,9,-1
 145 0 l 1,10,-1
 145 1085 l 1,11,-1
 240 1085 l 1,0,-1
EndSplineSet
EndChar

StartChar: afii10081
Encoding: 1087 1087 473
Width: 883
GlyphClass: 2
Flags: W
HStem: 0 21G<145 240 643 737> 999 86<240 643>
VStem: 145 95<0 999> 643 94<0 999>
LayerCount: 2
Fore
SplineSet
737 1085 m 1,0,-1
 737 0 l 1,1,-1
 643 0 l 1,2,-1
 643 999 l 1,3,-1
 240 999 l 1,4,-1
 240 0 l 1,5,-1
 145 0 l 1,6,-1
 145 1085 l 1,7,-1
 737 1085 l 1,0,-1
EndSplineSet
EndChar

StartChar: afii10084
Encoding: 1090 1090 476
Width: 512
GlyphClass: 2
Flags: W
LayerCount: 2
Fore
SplineSet
496 1085 m 1,0,-1
 496 999 l 1,1,-1
 303 999 l 1,2,-1
 303 0 l 1,3,-1
 209 0 l 1,4,-1
 209 999 l 1,5,-1
 16 999 l 1,6,-1
 16 1085 l 1,7,-1
 496 1085 l 1,0,-1
EndSplineSet
EndChar

StartChar: afii10086
Encoding: 1092 1092 478
Width: 997
GlyphClass: 2
Flags: W
LayerCount: 2
Fore
SplineSet
903 545 m 0,0,1
 903 295 903 295 810.5 147 c 128,-1,2
 718 -1 718 -1 547 -20 c 1,3,-1
 547 -492 l 1,4,-1
 453 -492 l 1,5,-1
 453 -20 l 1,6,7
 281 -5 281 -5 188.5 139.5 c 128,-1,8
 96 284 96 284 96 545 c 0,9,10
 96 794 96 794 188 941 c 128,-1,11
 280 1088 280 1088 453 1106 c 1,12,-1
 453 1556 l 1,13,-1
 547 1556 l 1,14,-1
 547 1106 l 1,15,16
 719 1088 719 1088 811 941 c 128,-1,17
 903 794 903 794 903 545 c 0,0,1
195 545 m 256,18,19
 195 332 195 332 263.5 206.5 c 128,-1,20
 332 81 332 81 453 66 c 1,21,-1
 453 1020 l 1,22,23
 326 1003 326 1003 260.5 880.5 c 128,-1,24
 195 758 195 758 195 545 c 256,18,19
805 545 m 0,25,26
 805 755 805 755 737.5 878.5 c 128,-1,27
 670 1002 670 1002 547 1020 c 1,28,-1
 547 66 l 1,29,30
 669 83 669 83 737 209.5 c 128,-1,31
 805 336 805 336 805 545 c 0,25,26
EndSplineSet
EndChar

StartChar: afii10088
Encoding: 1094 1094 480
Width: 893
GlyphClass: 2
Flags: W
LayerCount: 2
Fore
SplineSet
737 90 m 1,0,-1
 848 90 l 1,1,-1
 848 -369 l 1,2,-1
 754 -369 l 1,3,-1
 754 0 l 1,4,-1
 145 0 l 1,5,-1
 145 1085 l 1,6,-1
 240 1085 l 1,7,-1
 240 90 l 1,8,-1
 643 90 l 1,9,-1
 643 1085 l 1,10,-1
 737 1085 l 1,11,-1
 737 90 l 1,0,-1
EndSplineSet
EndChar

StartChar: afii10089
Encoding: 1095 1095 481
Width: 862
GlyphClass: 2
Flags: W
LayerCount: 2
Fore
SplineSet
217 1085 m 1,0,-1
 217 637 l 2,1,2
 217 545 217 545 256 503 c 128,-1,3
 295 461 295 461 360 461 c 0,4,5
 436 461 436 461 504 500.5 c 128,-1,6
 572 540 572 540 623 600 c 1,7,-1
 623 1085 l 1,8,-1
 717 1085 l 1,9,-1
 717 0 l 1,10,-1
 623 0 l 1,11,-1
 623 498 l 1,12,13
 572 439 572 439 499.5 406 c 128,-1,14
 427 373 427 373 346 373 c 0,15,16
 123 373 123 373 123 659 c 2,17,-1
 123 1085 l 1,18,-1
 217 1085 l 1,0,-1
EndSplineSet
EndChar

StartChar: afii10090
Encoding: 1096 1096 482
Width: 1180
GlyphClass: 2
Flags: W
HStem: 0 90<240 543 637 940> 1065 20G<145 240 543 637 940 1034>
VStem: 145 95<90 1085> 543 94<90 1085> 940 94<90 1085>
LayerCount: 2
Fore
SplineSet
145 0 m 1,0,-1
 145 1085 l 1,1,-1
 240 1085 l 1,2,-1
 240 90 l 1,3,-1
 543 90 l 1,4,-1
 543 1085 l 1,5,-1
 637 1085 l 1,6,-1
 637 90 l 1,7,-1
 940 90 l 1,8,-1
 940 1085 l 1,9,-1
 1034 1085 l 1,10,-1
 1034 0 l 1,11,-1
 145 0 l 1,0,-1
EndSplineSet
EndChar

StartChar: afii10091
Encoding: 1097 1097 483
Width: 1190
GlyphClass: 2
Flags: W
LayerCount: 2
Fore
SplineSet
1145 90 m 1,0,-1
 1145 -369 l 1,1,-1
 1051 -369 l 1,2,-1
 1051 0 l 1,3,-1
 145 0 l 1,4,-1
 145 1085 l 1,5,-1
 240 1085 l 1,6,-1
 240 90 l 1,7,-1
 543 90 l 1,8,-1
 543 1085 l 1,9,-1
 637 1085 l 1,10,-1
 637 90 l 1,11,-1
 940 90 l 1,12,-1
 940 1085 l 1,13,-1
 1034 1085 l 1,14,-1
 1034 90 l 1,15,-1
 1145 90 l 1,0,-1
EndSplineSet
EndChar

StartChar: afii10092
Encoding: 1098 1098 484
Width: 889
GlyphClass: 2
Flags: W
LayerCount: 2
Fore
SplineSet
344 610 m 1,0,-1
 485 610 l 2,1,2
 643 610 643 610 727 530.5 c 128,-1,3
 811 451 811 451 811 305 c 0,4,5
 811 160 811 160 725 80 c 128,-1,6
 639 0 639 0 483 0 c 2,7,-1
 250 0 l 1,8,-1
 250 999 l 1,9,-1
 16 999 l 1,10,-1
 16 1085 l 1,11,-1
 344 1085 l 1,12,-1
 344 610 l 1,0,-1
344 524 m 1,13,-1
 344 86 l 1,14,-1
 483 86 l 2,15,16
 713 86 713 86 713 305 c 256,17,18
 713 524 713 524 485 524 c 2,19,-1
 344 524 l 1,13,-1
EndSplineSet
EndChar

StartChar: afii10093
Encoding: 1099 1099 485
Width: 1114
GlyphClass: 2
Flags: W
LayerCount: 2
Fore
SplineSet
969 0 m 1,0,-1
 874 0 l 1,1,-1
 874 1085 l 1,2,-1
 969 1085 l 1,3,-1
 969 0 l 1,0,-1
240 610 m 1,4,-1
 381 610 l 2,5,6
 539 610 539 610 623 530.5 c 128,-1,7
 707 451 707 451 707 305 c 0,8,9
 707 160 707 160 621 80 c 128,-1,10
 535 0 535 0 379 0 c 2,11,-1
 145 0 l 1,12,-1
 145 1085 l 1,13,-1
 240 1085 l 1,14,-1
 240 610 l 1,4,-1
240 524 m 1,15,-1
 240 86 l 1,16,-1
 379 86 l 2,17,18
 608 86 608 86 608 305 c 256,19,20
 608 524 608 524 381 524 c 2,21,-1
 240 524 l 1,15,-1
EndSplineSet
EndChar

StartChar: afii10094
Encoding: 1100 1100 486
Width: 784
GlyphClass: 2
Flags: W
LayerCount: 2
Fore
SplineSet
240 610 m 1,0,-1
 381 610 l 2,1,2
 539 610 539 610 623 530.5 c 128,-1,3
 707 451 707 451 707 305 c 0,4,5
 707 160 707 160 621 80 c 128,-1,6
 535 0 535 0 379 0 c 2,7,-1
 145 0 l 1,8,-1
 145 1085 l 1,9,-1
 240 1085 l 1,10,-1
 240 610 l 1,0,-1
240 524 m 1,11,-1
 240 86 l 1,12,-1
 379 86 l 2,13,14
 608 86 608 86 608 305 c 256,15,16
 608 524 608 524 381 524 c 2,17,-1
 240 524 l 1,11,-1
EndSplineSet
EndChar

StartChar: afii10095
Encoding: 1101 1101 487
Width: 682
GlyphClass: 2
Flags: W
LayerCount: 2
Fore
SplineSet
225 -20 m 0,0,1
 179 -20 179 -20 131 -9.5 c 128,-1,2
 83 1 83 1 51 18 c 1,3,-1
 51 109 l 1,4,5
 136 70 136 70 219 70 c 0,6,7
 350 70 350 70 416 178.5 c 128,-1,8
 482 287 482 287 487 524 c 1,9,-1
 193 524 l 1,10,-1
 193 610 l 1,11,-1
 485 610 l 1,12,13
 468 1016 468 1016 233 1016 c 0,14,15
 201 1016 201 1016 162 1004.5 c 128,-1,16
 123 993 123 993 104 981 c 1,17,-1
 68 1067 l 1,18,19
 149 1106 149 1106 244 1106 c 0,20,21
 411 1106 411 1106 498.5 965 c 128,-1,22
 586 824 586 824 586 549 c 0,23,24
 586 269 586 269 495.5 124.5 c 128,-1,25
 405 -20 405 -20 225 -20 c 0,0,1
EndSplineSet
EndChar

StartChar: afii10096
Encoding: 1102 1102 488
Width: 1174
GlyphClass: 2
Flags: W
LayerCount: 2
Fore
SplineSet
1079 545 m 0,0,1
 1079 274 1079 274 997.5 127 c 128,-1,2
 916 -20 916 -20 762 -20 c 0,3,4
 612 -20 612 -20 532.5 123 c 128,-1,5
 453 266 453 266 451 524 c 1,6,-1
 240 524 l 1,7,-1
 240 0 l 1,8,-1
 145 0 l 1,9,-1
 145 1085 l 1,10,-1
 240 1085 l 1,11,-1
 240 610 l 1,12,-1
 451 610 l 1,13,14
 466 1106 466 1106 766 1106 c 0,15,16
 915 1106 915 1106 997 959.5 c 128,-1,17
 1079 813 1079 813 1079 545 c 0,0,1
549 545 m 0,18,19
 549 66 549 66 764 66 c 0,20,21
 981 66 981 66 981 545 c 0,22,23
 981 1016 981 1016 764 1016 c 0,24,25
 651 1016 651 1016 600 898 c 128,-1,26
 549 780 549 780 549 545 c 0,18,19
EndSplineSet
EndChar

StartChar: afii10097
Encoding: 1103 1103 489
Width: 797
GlyphClass: 2
Flags: W
LayerCount: 2
Fore
SplineSet
557 479 m 1,0,-1
 432 479 l 1,1,-1
 160 0 l 1,2,-1
 49 0 l 1,3,-1
 338 485 l 1,4,5
 216 507 216 507 153 582.5 c 128,-1,6
 90 658 90 658 90 782 c 0,7,8
 90 928 90 928 180 1006.5 c 128,-1,9
 270 1085 270 1085 430 1085 c 2,10,-1
 651 1085 l 1,11,-1
 651 0 l 1,12,-1
 557 0 l 1,13,-1
 557 479 l 1,0,-1
557 565 m 1,14,-1
 557 999 l 1,15,-1
 430 999 l 2,16,17
 188 999 188 999 188 782 c 256,18,19
 188 565 188 565 428 565 c 2,20,-1
 557 565 l 1,14,-1
EndSplineSet
EndChar

StartChar: afii10099
Encoding: 1106 1106 491
Width: 870
GlyphClass: 2
Flags: W
LayerCount: 2
Fore
SplineSet
635 748 m 2,0,1
 635 895 635 895 596.5 956.5 c 128,-1,2
 558 1018 558 1018 471 1018 c 0,3,4
 356 1018 356 1018 298 916 c 128,-1,5
 240 814 240 814 240 594 c 2,6,-1
 240 0 l 1,7,-1
 145 0 l 1,8,-1
 145 1270 l 1,9,-1
 27 1270 l 1,10,-1
 27 1354 l 1,11,-1
 145 1354 l 1,12,-1
 145 1556 l 1,13,-1
 240 1556 l 1,14,-1
 240 1354 l 1,15,-1
 502 1354 l 1,16,-1
 502 1270 l 1,17,-1
 240 1270 l 1,18,-1
 240 1051 l 2,19,20
 240 982 240 982 236 936 c 1,21,-1
 244 936 l 1,22,23
 276 1017 276 1017 340.5 1061.5 c 128,-1,24
 405 1106 405 1106 475 1106 c 0,25,26
 613 1106 613 1106 671 1016 c 128,-1,27
 729 926 729 926 729 748 c 2,28,-1
 729 -201 l 2,29,30
 729 -492 729 -492 553 -492 c 0,31,32
 513 -492 513 -492 485 -475 c 1,33,-1
 485 -385 l 1,34,35
 520 -401 520 -401 549 -401 c 0,36,37
 635 -401 635 -401 635 -215 c 2,38,-1
 635 748 l 2,0,1
EndSplineSet
EndChar

StartChar: afii10101
Encoding: 1108 1108 493
Width: 682
GlyphClass: 2
Flags: W
LayerCount: 2
Fore
SplineSet
195 524 m 1,0,1
 199 70 199 70 453 70 c 0,2,3
 535 70 535 70 618 109 c 1,4,-1
 618 18 l 1,5,6
 586 1 586 1 536 -9.5 c 128,-1,7
 486 -20 486 -20 444 -20 c 0,8,9
 271 -20 271 -20 183.5 121 c 128,-1,10
 96 262 96 262 96 537 c 0,11,12
 96 815 96 815 184.5 960.5 c 128,-1,13
 273 1106 273 1106 446 1106 c 0,14,15
 544 1106 544 1106 625 1067 c 1,16,-1
 590 981 l 1,17,18
 568 994 568 994 529.5 1005 c 128,-1,19
 491 1016 491 1016 455 1016 c 0,20,21
 214 1016 214 1016 195 610 c 1,22,-1
 489 610 l 1,23,-1
 489 524 l 1,24,-1
 195 524 l 1,0,1
EndSplineSet
EndChar

StartChar: afii10106
Encoding: 1113 1113 498
Width: 1143
GlyphClass: 2
Flags: W
LayerCount: 2
Fore
SplineSet
598 610 m 1,0,-1
 739 610 l 2,1,2
 897 610 897 610 981 530.5 c 128,-1,3
 1065 451 1065 451 1065 305 c 0,4,5
 1065 160 1065 160 979 80 c 128,-1,6
 893 0 893 0 737 0 c 2,7,-1
 504 0 l 1,8,-1
 504 995 l 1,9,-1
 303 995 l 1,10,11
 292 718 292 718 272 522.5 c 128,-1,12
 252 327 252 327 224 211.5 c 128,-1,13
 196 96 196 96 153.5 43 c 128,-1,14
 111 -10 111 -10 35 -10 c 0,15,16
 11 -10 11 -10 -10 -2 c 1,17,-1
 -10 86 l 1,18,19
 2 80 2 80 25 80 c 0,20,21
 84 80 84 80 119.5 180 c 128,-1,22
 155 280 155 280 178 494 c 128,-1,23
 201 708 201 708 215 1085 c 1,24,-1
 598 1085 l 1,25,-1
 598 610 l 1,0,-1
598 524 m 1,26,-1
 598 86 l 1,27,-1
 737 86 l 2,28,29
 967 86 967 86 967 305 c 256,30,31
 967 524 967 524 739 524 c 2,32,-1
 598 524 l 1,26,-1
EndSplineSet
EndChar

StartChar: afii10107
Encoding: 1114 1114 499
Width: 1257
GlyphClass: 2
Flags: W
LayerCount: 2
Fore
SplineSet
713 610 m 1,0,-1
 854 610 l 2,1,2
 1012 610 1012 610 1096 530.5 c 128,-1,3
 1180 451 1180 451 1180 305 c 0,4,5
 1180 160 1180 160 1094 80 c 128,-1,6
 1008 0 1008 0 852 0 c 2,7,-1
 618 0 l 1,8,-1
 618 524 l 1,9,-1
 240 524 l 1,10,-1
 240 0 l 1,11,-1
 145 0 l 1,12,-1
 145 1085 l 1,13,-1
 240 1085 l 1,14,-1
 240 610 l 1,15,-1
 618 610 l 1,16,-1
 618 1085 l 1,17,-1
 713 1085 l 1,18,-1
 713 610 l 1,0,-1
713 524 m 1,19,-1
 713 86 l 1,20,-1
 852 86 l 2,21,22
 1081 86 1081 86 1081 305 c 256,23,24
 1081 524 1081 524 854 524 c 2,25,-1
 713 524 l 1,19,-1
EndSplineSet
EndChar

StartChar: afii10193
Encoding: 1119 1119 503
Width: 883
GlyphClass: 2
Flags: W
LayerCount: 2
Fore
SplineSet
145 0 m 1,0,-1
 145 1085 l 1,1,-1
 240 1085 l 1,2,-1
 240 90 l 1,3,-1
 643 90 l 1,4,-1
 643 1085 l 1,5,-1
 737 1085 l 1,6,-1
 737 0 l 1,7,-1
 487 0 l 1,8,-1
 487 -369 l 1,9,-1
 393 -369 l 1,10,-1
 393 0 l 1,11,-1
 145 0 l 1,0,-1
EndSplineSet
EndChar

StartChar: afii10050
Encoding: 1168 1168 504
Width: 686
GlyphClass: 2
Flags: W
LayerCount: 2
Fore
SplineSet
258 1368 m 1,0,-1
 258 0 l 1,1,-1
 160 0 l 1,2,-1
 160 1462 l 1,3,-1
 543 1462 l 1,4,-1
 543 1763 l 1,5,-1
 637 1763 l 1,6,-1
 637 1368 l 1,7,-1
 258 1368 l 1,0,-1
EndSplineSet
EndChar

StartChar: afii10098
Encoding: 1169 1169 505
Width: 592
GlyphClass: 2
Flags: W
LayerCount: 2
Fore
SplineSet
453 1085 m 1,0,-1
 453 1411 l 1,1,-1
 543 1411 l 1,2,-1
 543 995 l 1,3,-1
 240 995 l 1,4,-1
 240 0 l 1,5,-1
 145 0 l 1,6,-1
 145 1085 l 1,7,-1
 453 1085 l 1,0,-1
EndSplineSet
EndChar

StartChar: endash
Encoding: 8211 8211 514
Width: 1024
GlyphClass: 2
Flags: W
LayerCount: 2
Fore
SplineSet
82 512 m 1,0,-1
 82 594 l 1,1,-1
 942 594 l 1,2,-1
 942 512 l 1,3,-1
 82 512 l 1,0,-1
EndSplineSet
EndChar

StartChar: emdash
Encoding: 8212 8212 515
Width: 2048
GlyphClass: 2
Flags: W
LayerCount: 2
Fore
SplineSet
82 512 m 1,0,-1
 82 594 l 1,1,-1
 1966 594 l 1,2,-1
 1966 512 l 1,3,-1
 82 512 l 1,0,-1
EndSplineSet
EndChar

StartChar: quoteleft
Encoding: 8216 8216 518
Width: 315
GlyphClass: 2
Flags: W
LayerCount: 2
Fore
SplineSet
43 1016 m 1,0,1
 109 1241 109 1241 209 1462 c 1,2,-1
 272 1462 l 1,3,4
 197 1207 197 1207 172 993 c 1,5,-1
 57 993 l 1,6,-1
 43 1016 l 1,0,1
EndSplineSet
EndChar

StartChar: quoteright
Encoding: 8217 8217 519
Width: 315
GlyphClass: 2
Flags: W
LayerCount: 2
Fore
SplineSet
272 1440 m 1,0,1
 208 1222 208 1222 106 993 c 1,2,-1
 43 993 l 1,3,4
 118 1248 118 1248 143 1462 c 1,5,-1
 258 1462 l 1,6,-1
 272 1440 l 1,0,1
EndSplineSet
EndChar

StartChar: quotereversed
Encoding: 8219 8219 521
Width: 315
GlyphClass: 2
Flags: W
LayerCount: 2
Fore
SplineSet
57 1462 m 1,0,-1
 172 1462 l 1,1,2
 197 1248 197 1248 272 993 c 1,3,-1
 209 993 l 1,4,5
 107 1222 107 1222 43 1440 c 1,6,-1
 57 1462 l 1,0,-1
EndSplineSet
EndChar

StartChar: quotedblleft
Encoding: 8220 8220 522
Width: 598
GlyphClass: 2
Flags: W
LayerCount: 2
Fore
SplineSet
326 1016 m 1,0,1
 392 1241 392 1241 492 1462 c 1,2,-1
 555 1462 l 1,3,4
 480 1207 480 1207 455 993 c 1,5,-1
 340 993 l 1,6,-1
 326 1016 l 1,0,1
43 1016 m 1,7,8
 109 1241 109 1241 209 1462 c 1,9,-1
 272 1462 l 1,10,11
 197 1207 197 1207 172 993 c 1,12,-1
 57 993 l 1,13,-1
 43 1016 l 1,7,8
EndSplineSet
EndChar

StartChar: quotedblright
Encoding: 8221 8221 523
Width: 598
GlyphClass: 2
Flags: W
LayerCount: 2
Fore
SplineSet
272 1440 m 1,0,1
 208 1222 208 1222 106 993 c 1,2,-1
 43 993 l 1,3,4
 118 1248 118 1248 143 1462 c 1,5,-1
 258 1462 l 1,6,-1
 272 1440 l 1,0,1
555 1440 m 1,7,8
 491 1222 491 1222 389 993 c 1,9,-1
 326 993 l 1,10,11
 401 1248 401 1248 426 1462 c 1,12,-1
 541 1462 l 1,13,-1
 555 1440 l 1,7,8
EndSplineSet
EndChar

StartChar: quotedblbase
Encoding: 8222 8222 524
Width: 659
GlyphClass: 2
Flags: W
LayerCount: 2
Fore
SplineSet
262 182 m 1,0,1
 196 -43 196 -43 96 -264 c 1,2,-1
 33 -264 l 1,3,4
 108 -9 108 -9 133 205 c 1,5,-1
 248 205 l 1,6,-1
 262 182 l 1,0,1
545 182 m 1,7,8
 483 -29 483 -29 379 -264 c 1,9,-1
 315 -264 l 1,10,11
 350 -144 350 -144 378 -13.5 c 128,-1,12
 406 117 406 117 416 205 c 1,13,-1
 530 205 l 1,14,-1
 545 182 l 1,7,8
EndSplineSet
EndChar

StartChar: dagger
Encoding: 8224 8224 525
Width: 883
GlyphClass: 2
Flags: W
LayerCount: 2
Fore
SplineSet
760 1055 m 1,0,-1
 465 1065 l 1,1,-1
 489 0 l 1,2,-1
 373 0 l 1,3,-1
 397 1065 l 1,4,-1
 123 1055 l 1,5,-1
 123 1147 l 1,6,-1
 397 1128 l 1,7,-1
 373 1556 l 1,8,-1
 489 1556 l 1,9,-1
 465 1128 l 1,10,-1
 760 1147 l 1,11,-1
 760 1055 l 1,0,-1
EndSplineSet
EndChar

StartChar: daggerdbl
Encoding: 8225 8225 526
Width: 883
GlyphClass: 2
Flags: W
LayerCount: 2
Fore
SplineSet
465 446 m 1,0,-1
 760 457 l 1,1,-1
 760 365 l 1,2,-1
 465 381 l 1,3,-1
 489 0 l 1,4,-1
 373 0 l 1,5,-1
 397 381 l 1,6,-1
 123 365 l 1,7,-1
 123 457 l 1,8,-1
 397 446 l 1,9,-1
 385 786 l 1,10,-1
 397 1110 l 1,11,-1
 123 1100 l 1,12,-1
 123 1192 l 1,13,-1
 397 1174 l 1,14,-1
 373 1556 l 1,15,-1
 489 1556 l 1,16,-1
 465 1174 l 1,17,-1
 760 1192 l 1,18,-1
 760 1100 l 1,19,-1
 465 1110 l 1,20,-1
 475 786 l 1,21,-1
 465 446 l 1,0,-1
EndSplineSet
EndChar

StartChar: bullet
Encoding: 8226 8226 527
Width: 770
GlyphClass: 2
Flags: W
LayerCount: 2
Fore
SplineSet
168 748 m 0,0,1
 168 868 168 868 224.5 928.5 c 128,-1,2
 281 989 281 989 385 989 c 256,3,4
 489 989 489 989 545.5 928.5 c 128,-1,5
 602 868 602 868 602 748 c 0,6,7
 602 630 602 630 545.5 568 c 128,-1,8
 489 506 489 506 385 506 c 0,9,10
 282 506 282 506 225 568 c 128,-1,11
 168 630 168 630 168 748 c 0,0,1
EndSplineSet
EndChar

StartChar: ellipsis
Encoding: 8230 8230 528
Width: 1266
GlyphClass: 2
Flags: W
LayerCount: 2
Fore
SplineSet
133 90 m 0,0,1
 133 197 133 197 211 197 c 0,2,3
 243 197 243 197 266 173 c 128,-1,4
 289 149 289 149 289 90 c 0,5,6
 289 33 289 33 266 8.5 c 128,-1,7
 243 -16 243 -16 211 -16 c 0,8,9
 133 -16 133 -16 133 90 c 0,0,1
555 90 m 0,10,11
 555 197 555 197 633 197 c 0,12,13
 665 197 665 197 688 173 c 128,-1,14
 711 149 711 149 711 90 c 0,15,16
 711 33 711 33 688 8.5 c 128,-1,17
 665 -16 665 -16 633 -16 c 0,18,19
 555 -16 555 -16 555 90 c 0,10,11
977 90 m 0,20,21
 977 197 977 197 1055 197 c 0,22,23
 1087 197 1087 197 1110 173 c 128,-1,24
 1133 149 1133 149 1133 90 c 0,25,26
 1133 33 1133 33 1110 8.5 c 128,-1,27
 1087 -16 1087 -16 1055 -16 c 0,28,29
 977 -16 977 -16 977 90 c 0,20,21
EndSplineSet
EndChar

StartChar: perthousand
Encoding: 8240 8240 529
Width: 1718
GlyphClass: 2
Flags: W
LayerCount: 2
Fore
SplineSet
184 1028 m 256,0,1
 184 838 184 838 209.5 743.5 c 128,-1,2
 235 649 235 649 297 649 c 0,3,4
 357 649 357 649 383.5 742.5 c 128,-1,5
 410 836 410 836 410 1028 c 0,6,7
 410 1405 410 1405 293 1405 c 0,8,9
 234 1405 234 1405 209 1311.5 c 128,-1,10
 184 1218 184 1218 184 1028 c 256,0,1
500 1026 m 0,11,12
 500 806 500 806 446 685.5 c 128,-1,13
 392 565 392 565 295 565 c 0,14,15
 196 565 196 565 145 685 c 128,-1,16
 94 805 94 805 94 1026 c 256,17,18
 94 1247 94 1247 144.5 1365 c 128,-1,19
 195 1483 195 1483 295 1483 c 256,20,21
 395 1483 395 1483 447.5 1366.5 c 128,-1,22
 500 1250 500 1250 500 1026 c 0,11,12
885 1462 m 1,23,-1
 412 0 l 1,24,-1
 319 0 l 1,25,-1
 797 1462 l 1,26,-1
 885 1462 l 1,23,-1
799 442 m 256,27,28
 799 252 799 252 824 157.5 c 128,-1,29
 849 63 849 63 911 63 c 0,30,31
 971 63 971 63 997.5 156.5 c 128,-1,32
 1024 250 1024 250 1024 442 c 0,33,34
 1024 819 1024 819 907 819 c 0,35,36
 848 819 848 819 823.5 725.5 c 128,-1,37
 799 632 799 632 799 442 c 256,27,28
1114 440 m 0,38,39
 1114 217 1114 217 1060 98.5 c 128,-1,40
 1006 -20 1006 -20 909 -20 c 0,41,42
 811 -20 811 -20 760 101 c 128,-1,43
 709 222 709 222 709 440 c 0,44,45
 709 669 709 669 760.5 783 c 128,-1,46
 812 897 812 897 909 897 c 0,47,48
 1009 897 1009 897 1061.5 780.5 c 128,-1,49
 1114 664 1114 664 1114 440 c 0,38,39
1284 442 m 256,50,51
 1284 252 1284 252 1309.5 157.5 c 128,-1,52
 1335 63 1335 63 1397 63 c 0,53,54
 1457 63 1457 63 1483 156.5 c 128,-1,55
 1509 250 1509 250 1509 442 c 0,56,57
 1509 819 1509 819 1393 819 c 0,58,59
 1334 819 1334 819 1309 725.5 c 128,-1,60
 1284 632 1284 632 1284 442 c 256,50,51
1599 440 m 0,61,62
 1599 221 1599 221 1545 100.5 c 128,-1,63
 1491 -20 1491 -20 1395 -20 c 0,64,65
 1296 -20 1296 -20 1245 100 c 128,-1,66
 1194 220 1194 220 1194 440 c 0,67,68
 1194 661 1194 661 1244.5 779 c 128,-1,69
 1295 897 1295 897 1395 897 c 0,70,71
 1494 897 1494 897 1546.5 781 c 128,-1,72
 1599 665 1599 665 1599 440 c 0,61,62
EndSplineSet
EndChar

StartChar: guilsinglleft
Encoding: 8249 8249 532
Width: 512
GlyphClass: 2
Flags: W
LayerCount: 2
Fore
SplineSet
82 541 m 1,0,-1
 369 907 l 1,1,-1
 430 872 l 1,2,-1
 211 528 l 1,3,-1
 430 184 l 1,4,-1
 369 147 l 1,5,-1
 82 514 l 1,6,-1
 82 541 l 1,0,-1
EndSplineSet
EndChar

StartChar: guilsinglright
Encoding: 8250 8250 533
Width: 512
GlyphClass: 2
Flags: W
LayerCount: 2
Fore
SplineSet
430 514 m 1,0,-1
 143 147 l 1,1,-1
 82 184 l 1,2,-1
 301 528 l 1,3,-1
 82 872 l 1,4,-1
 143 907 l 1,5,-1
 430 541 l 1,6,-1
 430 514 l 1,0,-1
EndSplineSet
EndChar

StartChar: fraction
Encoding: 8260 8260 535
Width: 266
GlyphClass: 2
Flags: W
LayerCount: 2
Fore
SplineSet
563 1462 m 1,0,-1
 -205 0 l 1,1,-1
 -297 0 l 1,2,-1
 471 1462 l 1,3,-1
 563 1462 l 1,0,-1
EndSplineSet
EndChar

StartChar: nsuperior
Encoding: 8319 8319 536
Width: 666
GlyphClass: 2
Flags: W
LayerCount: 2
Fore
SplineSet
465 817 m 1,0,-1
 465 1206 l 2,1,2
 465 1310 465 1310 440 1357.5 c 128,-1,3
 415 1405 415 1405 352 1405 c 0,4,5
 269 1405 269 1405 237 1349 c 128,-1,6
 205 1293 205 1293 205 1165 c 2,7,-1
 205 817 l 1,8,-1
 119 817 l 1,9,-1
 119 1468 l 1,10,-1
 182 1468 l 1,11,-1
 190 1372 l 1,12,-1
 199 1372 l 1,13,14
 227 1430 227 1430 264 1454.5 c 128,-1,15
 301 1479 301 1479 362 1479 c 0,16,17
 458 1479 458 1479 504.5 1413.5 c 128,-1,18
 551 1348 551 1348 551 1214 c 2,19,-1
 551 817 l 1,20,-1
 465 817 l 1,0,-1
EndSplineSet
EndChar

StartChar: franc
Encoding: 8355 8355 537
Width: 819
GlyphClass: 2
Flags: W
LayerCount: 2
Fore
SplineSet
88 379 m 1,0,-1
 229 379 l 1,1,-1
 229 1462 l 1,2,-1
 741 1462 l 1,3,-1
 741 1368 l 1,4,-1
 328 1368 l 1,5,-1
 328 748 l 1,6,-1
 717 748 l 1,7,-1
 717 653 l 1,8,-1
 328 653 l 1,9,-1
 328 379 l 1,10,-1
 561 379 l 1,11,-1
 561 297 l 1,12,-1
 328 297 l 1,13,-1
 328 0 l 1,14,-1
 229 0 l 1,15,-1
 229 297 l 1,16,-1
 88 297 l 1,17,-1
 88 379 l 1,0,-1
EndSplineSet
EndChar

StartChar: afii08941
Encoding: 8356 8356 538
Width: 819
GlyphClass: 2
Flags: W
LayerCount: 2
Fore
SplineSet
506 1483 m 0,0,1
 640 1483 640 1483 741 1395 c 1,2,-1
 686 1319 l 1,3,4
 605 1393 605 1393 504 1393 c 0,5,6
 414 1393 414 1393 375 1327.5 c 128,-1,7
 336 1262 336 1262 336 1120 c 2,8,-1
 336 842 l 1,9,-1
 586 842 l 1,10,-1
 586 756 l 1,11,-1
 336 756 l 1,12,-1
 336 563 l 1,13,-1
 586 563 l 1,14,-1
 586 477 l 1,15,-1
 336 477 l 1,16,-1
 336 395 l 2,17,18
 336 181 336 181 215 94 c 1,19,-1
 737 94 l 1,20,-1
 737 0 l 1,21,-1
 92 0 l 1,22,-1
 92 82 l 1,23,24
 160 111 160 111 199 192.5 c 128,-1,25
 238 274 238 274 238 393 c 2,26,-1
 238 477 l 1,27,-1
 80 477 l 1,28,-1
 80 563 l 1,29,-1
 238 563 l 1,30,-1
 238 756 l 1,31,-1
 80 756 l 1,32,-1
 80 842 l 1,33,-1
 238 842 l 1,34,-1
 238 1120 l 2,35,36
 238 1304 238 1304 302.5 1393.5 c 128,-1,37
 367 1483 367 1483 506 1483 c 0,0,1
EndSplineSet
EndChar

StartChar: peseta
Encoding: 8359 8359 539
Width: 1145
GlyphClass: 2
Flags: W
LayerCount: 2
Fore
SplineSet
700 1042 m 0,0,1
 700 816 700 816 604.5 710 c 128,-1,2
 509 604 509 604 322 604 c 2,3,-1
 258 604 l 1,4,-1
 258 0 l 1,5,-1
 160 0 l 1,6,-1
 160 1462 l 1,7,-1
 319 1462 l 2,8,9
 515 1462 515 1462 607.5 1362 c 128,-1,10
 700 1262 700 1262 700 1042 c 0,0,1
258 694 m 1,11,-1
 315 694 l 2,12,13
 469 694 469 694 534.5 775 c 128,-1,14
 600 856 600 856 600 1042 c 0,15,16
 600 1219 600 1219 533 1295.5 c 128,-1,17
 466 1372 466 1372 326 1372 c 2,18,-1
 258 1372 l 1,19,-1
 258 694 l 1,11,-1
1040 68 m 0,20,21
 1084 68 1084 68 1118 80 c 1,22,-1
 1118 0 l 1,23,24
 1074 -20 1074 -20 1006 -20 c 0,25,26
 838 -20 838 -20 838 231 c 2,27,-1
 838 762 l 1,28,-1
 739 762 l 1,29,-1
 739 817 l 1,30,-1
 836 846 l 1,31,-1
 866 1085 l 1,32,-1
 932 1085 l 1,33,-1
 932 846 l 1,34,-1
 1104 846 l 1,35,-1
 1104 762 l 1,36,-1
 932 762 l 1,37,-1
 932 258 l 2,38,39
 932 148 932 148 956 108 c 128,-1,40
 980 68 980 68 1040 68 c 0,20,21
EndSplineSet
EndChar

StartChar: Euro
Encoding: 8364 8364 540
Width: 819
GlyphClass: 2
Flags: W
LayerCount: 2
Fore
SplineSet
553 1386 m 0,0,1
 316 1386 316 1386 279 899 c 1,2,-1
 604 899 l 1,3,-1
 604 817 l 1,4,-1
 274 817 l 1,5,-1
 272 741 l 1,6,-1
 272 668 l 1,7,-1
 274 616 l 1,8,-1
 571 616 l 1,9,-1
 571 535 l 1,10,-1
 279 535 l 1,11,12
 294 301 294 301 366 189.5 c 128,-1,13
 438 78 438 78 569 78 c 0,14,15
 622 78 622 78 665 88.5 c 128,-1,16
 708 99 708 99 756 125 c 1,17,-1
 756 25 l 1,18,19
 670 -20 670 -20 569 -20 c 0,20,21
 393 -20 393 -20 295.5 117.5 c 128,-1,22
 198 255 198 255 176 535 c 1,23,-1
 35 535 l 1,24,-1
 35 616 l 1,25,-1
 172 616 l 1,26,-1
 170 717 l 1,27,-1
 170 756 l 1,28,-1
 172 817 l 1,29,-1
 35 817 l 1,30,-1
 35 899 l 1,31,-1
 176 899 l 1,32,33
 193 1170 193 1170 294 1327.5 c 128,-1,34
 395 1485 395 1485 549 1485 c 0,35,36
 672 1485 672 1485 772 1411 c 1,37,-1
 721 1325 l 1,38,39
 634 1386 634 1386 553 1386 c 0,0,1
EndSplineSet
EndChar

StartChar: afii61248
Encoding: 8453 8453 541
Width: 1122
GlyphClass: 2
Flags: W
LayerCount: 2
Fore
SplineSet
823 1462 m 1,0,-1
 344 0 l 1,1,-1
 260 0 l 1,2,-1
 739 1462 l 1,3,-1
 823 1462 l 1,0,-1
1040 334 m 0,4,5
 1040 167 1040 167 981.5 79.5 c 128,-1,6
 923 -8 923 -8 823 -8 c 0,7,8
 726 -8 726 -8 668 80 c 128,-1,9
 610 168 610 168 610 334 c 0,10,11
 610 492 610 492 667.5 584 c 128,-1,12
 725 676 725 676 827 676 c 0,13,14
 924 676 924 676 982 589 c 128,-1,15
 1040 502 1040 502 1040 334 c 0,4,5
700 334 m 256,16,17
 700 211 700 211 734 142.5 c 128,-1,18
 768 74 768 74 827 74 c 0,19,20
 884 74 884 74 917 143 c 128,-1,21
 950 212 950 212 950 334 c 256,22,23
 950 456 950 456 917 525 c 128,-1,24
 884 594 884 594 827 594 c 0,25,26
 767 594 767 594 733.5 525.5 c 128,-1,27
 700 457 700 457 700 334 c 256,16,17
311 788 m 0,28,29
 202 788 202 788 142 876 c 128,-1,30
 82 964 82 964 82 1128 c 0,31,32
 82 1285 82 1285 145 1379 c 128,-1,33
 208 1473 208 1473 317 1473 c 0,34,35
 380 1473 380 1473 459 1438 c 1,36,-1
 428 1358 l 1,37,38
 373 1391 373 1391 315 1391 c 0,39,40
 250 1391 250 1391 211 1321 c 128,-1,41
 172 1251 172 1251 172 1130 c 0,42,43
 172 870 172 870 330 870 c 0,44,45
 387 870 387 870 444 905 c 1,46,-1
 444 825 l 1,47,48
 384 788 384 788 311 788 c 0,28,29
EndSplineSet
EndChar

StartChar: afii61289
Encoding: 8467 8467 542
Width: 819
GlyphClass: 2
Flags: W
LayerCount: 2
Fore
SplineSet
465 68 m 0,0,1
 547 68 547 68 586 125.5 c 128,-1,2
 625 183 625 183 627 301 c 1,3,-1
 717 301 l 1,4,5
 714 146 714 146 649 64 c 128,-1,6
 584 -18 584 -18 465 -18 c 0,7,8
 344 -18 344 -18 287.5 64 c 128,-1,9
 231 146 231 146 231 311 c 2,10,-1
 231 596 l 1,11,12
 199 579 199 579 94 545 c 1,13,-1
 94 631 l 1,14,15
 165 651 165 651 231 682 c 1,16,-1
 231 1188 l 2,17,18
 231 1334 231 1334 282 1408.5 c 128,-1,19
 333 1483 333 1483 428 1483 c 0,20,21
 527 1483 527 1483 581 1406 c 128,-1,22
 635 1329 635 1329 635 1190 c 0,23,24
 635 1005 635 1005 557 862 c 128,-1,25
 479 719 479 719 326 631 c 1,26,-1
 326 330 l 2,27,28
 326 200 326 200 359 134 c 128,-1,29
 392 68 392 68 465 68 c 0,0,1
541 1188 m 0,30,31
 541 1293 541 1293 511 1345 c 128,-1,32
 481 1397 481 1397 430 1397 c 0,33,34
 376 1397 376 1397 351 1350 c 128,-1,35
 326 1303 326 1303 326 1188 c 2,36,-1
 326 717 l 1,37,38
 541 865 541 865 541 1188 c 0,30,31
EndSplineSet
EndChar

StartChar: afii61352
Encoding: 8470 8470 543
Width: 1505
GlyphClass: 2
Flags: W
LayerCount: 2
Fore
SplineSet
1419 612 m 0,0,1
 1419 451 1419 451 1355.5 362.5 c 128,-1,2
 1292 274 1292 274 1180 274 c 0,3,4
 946 274 946 274 946 612 c 0,5,6
 946 775 946 775 1008.5 861.5 c 128,-1,7
 1071 948 1071 948 1182 948 c 0,8,9
 1294 948 1294 948 1356.5 866 c 128,-1,10
 1419 784 1419 784 1419 612 c 0,0,1
1040 612 m 0,11,12
 1040 477 1040 477 1074.5 418.5 c 128,-1,13
 1109 360 1109 360 1180 360 c 0,14,15
 1253 360 1253 360 1289 419.5 c 128,-1,16
 1325 479 1325 479 1325 614 c 0,17,18
 1325 740 1325 740 1290 801 c 128,-1,19
 1255 862 1255 862 1180 862 c 0,20,21
 1107 862 1107 862 1073.5 803.5 c 128,-1,22
 1040 745 1040 745 1040 612 c 0,11,12
1360 0 m 1,23,-1
 995 0 l 1,24,-1
 995 86 l 1,25,-1
 1360 86 l 1,26,-1
 1360 0 l 1,23,-1
827 0 m 1,27,-1
 702 0 l 1,28,-1
 252 1286 l 1,29,-1
 244 1286 l 1,30,31
 256 1150 256 1150 256 1024 c 2,32,-1
 256 0 l 1,33,-1
 160 0 l 1,34,-1
 160 1462 l 1,35,-1
 287 1462 l 1,36,-1
 733 190 l 1,37,-1
 741 190 l 1,38,39
 731 323 731 323 731 465 c 2,40,-1
 731 1462 l 1,41,-1
 827 1462 l 1,42,-1
 827 0 l 1,27,-1
EndSplineSet
EndChar

StartChar: trademark
Encoding: 8482 8482 544
Width: 1452
GlyphClass: 2
Flags: W
LayerCount: 2
Fore
SplineSet
317 741 m 1,0,-1
 231 741 l 1,1,-1
 231 1384 l 1,2,-1
 14 1384 l 1,3,-1
 14 1462 l 1,4,-1
 537 1462 l 1,5,-1
 537 1384 l 1,6,-1
 317 1384 l 1,7,-1
 317 741 l 1,0,-1
918 741 m 1,8,-1
 696 1350 l 1,9,-1
 688 1350 l 1,10,-1
 694 1149 l 1,11,-1
 694 741 l 1,12,-1
 612 741 l 1,13,-1
 612 1462 l 1,14,-1
 737 1462 l 1,15,-1
 958 856 l 1,16,-1
 1182 1462 l 1,17,-1
 1307 1462 l 1,18,-1
 1307 741 l 1,19,-1
 1221 741 l 1,20,-1
 1221 1139 l 1,21,-1
 1227 1346 l 1,22,-1
 1219 1346 l 1,23,-1
 991 741 l 1,24,-1
 918 741 l 1,8,-1
EndSplineSet
EndChar

StartChar: estimated
Encoding: 8494 8494 546
Width: 1268
GlyphClass: 2
Flags: W
LayerCount: 2
Fore
SplineSet
633 -35 m 0,0,1
 476 -35 476 -35 355.5 38.5 c 128,-1,2
 235 112 235 112 168.5 242.5 c 128,-1,3
 102 373 102 373 102 530 c 0,4,5
 102 701 102 701 171 828.5 c 128,-1,6
 240 956 240 956 362 1026 c 128,-1,7
 484 1096 484 1096 633 1096 c 0,8,9
 785 1096 785 1096 906.5 1025 c 128,-1,10
 1028 954 1028 954 1095.5 824.5 c 128,-1,11
 1163 695 1163 695 1163 530 c 1,12,-1
 336 530 l 1,13,-1
 336 174 l 1,14,15
 385 121 385 121 468 86 c 128,-1,16
 551 51 551 51 633 51 c 0,17,18
 764 51 764 51 855.5 103.5 c 128,-1,19
 947 156 947 156 1028 285 c 1,20,-1
 1100 244 l 1,21,22
 1002 89 1002 89 893.5 27 c 128,-1,23
 785 -35 785 -35 633 -35 c 0,0,1
932 616 m 1,24,-1
 932 893 l 1,25,26
 882 946 882 946 800.5 979 c 128,-1,27
 719 1012 719 1012 631 1012 c 0,28,29
 458 1012 458 1012 336 895 c 1,30,-1
 336 616 l 1,31,-1
 932 616 l 1,24,-1
EndSplineSet
EndChar

StartChar: partialdiff
Encoding: 8706 8706 551
Width: 1169
GlyphClass: 2
Flags: W
LayerCount: 2
Fore
SplineSet
463 -20 m 0,0,1
 298 -20 298 -20 208.5 82.5 c 128,-1,2
 119 185 119 185 119 367 c 0,3,4
 119 542 119 542 187.5 697 c 128,-1,5
 256 852 256 852 369 931 c 128,-1,6
 482 1010 482 1010 627 1010 c 0,7,8
 729 1010 729 1010 805.5 952.5 c 128,-1,9
 882 895 882 895 930 784 c 1,10,11
 938 859 938 859 938 928 c 0,12,13
 938 1172 938 1172 866.5 1283.5 c 128,-1,14
 795 1395 795 1395 635 1395 c 0,15,16
 574 1395 574 1395 506 1376.5 c 128,-1,17
 438 1358 438 1358 393 1335 c 1,18,-1
 393 1434 l 1,19,20
 521 1485 521 1485 649 1485 c 0,21,22
 847 1485 847 1485 942.5 1347 c 128,-1,23
 1038 1209 1038 1209 1038 936 c 0,24,25
 1038 676 1038 676 961.5 448.5 c 128,-1,26
 885 221 885 221 755.5 100.5 c 128,-1,27
 626 -20 626 -20 463 -20 c 0,0,1
465 70 m 0,28,29
 564 70 564 70 652.5 140 c 128,-1,30
 741 210 741 210 809 348 c 128,-1,31
 877 486 877 486 907 666 c 1,32,33
 826 920 826 920 616 920 c 0,34,35
 504 920 504 920 415 848.5 c 128,-1,36
 326 777 326 777 272.5 642 c 128,-1,37
 219 507 219 507 219 367 c 0,38,39
 219 225 219 225 284 147.5 c 128,-1,40
 349 70 349 70 465 70 c 0,28,29
EndSplineSet
EndChar

StartChar: Delta
Encoding: 8710 8710 552
Width: 805
GlyphClass: 2
Flags: W
LayerCount: 2
Fore
SplineSet
23 96 m 1,0,-1
 348 1462 l 1,1,-1
 451 1462 l 1,2,-1
 782 84 l 1,3,-1
 782 0 l 1,4,-1
 23 0 l 1,5,-1
 23 96 l 1,0,-1
397 1315 m 1,6,7
 384 1246 384 1246 372.5 1187.5 c 128,-1,8
 361 1129 361 1129 131 94 c 1,9,-1
 674 94 l 1,10,-1
 479 936 l 2,11,12
 418 1209 418 1209 397 1315 c 1,6,7
EndSplineSet
EndChar

StartChar: product
Encoding: 8719 8719 553
Width: 1403
GlyphClass: 2
Flags: W
LayerCount: 2
Fore
SplineSet
1081 -492 m 1,0,-1
 1081 1366 l 1,1,-1
 322 1366 l 1,2,-1
 322 -492 l 1,3,-1
 223 -492 l 1,4,-1
 223 1462 l 1,5,-1
 1180 1462 l 1,6,-1
 1180 -492 l 1,7,-1
 1081 -492 l 1,0,-1
EndSplineSet
EndChar

StartChar: summation
Encoding: 8721 8721 554
Width: 1169
GlyphClass: 2
Flags: W
LayerCount: 2
Fore
SplineSet
80 -492 m 1,0,-1
 80 -428 l 1,1,-1
 754 545 l 1,2,-1
 94 1393 l 1,3,-1
 94 1462 l 1,4,-1
 1022 1462 l 1,5,-1
 1022 1366 l 1,6,-1
 242 1366 l 1,7,-1
 879 547 l 1,8,-1
 223 -395 l 1,9,-1
 1092 -395 l 1,10,-1
 1092 -492 l 1,11,-1
 80 -492 l 1,0,-1
EndSplineSet
EndChar

StartChar: minus
Encoding: 8722 8722 555
Width: 819
GlyphClass: 2
Flags: W
LayerCount: 2
Fore
SplineSet
59 764 m 1,0,-1
 762 764 l 1,1,-1
 762 682 l 1,2,-1
 59 682 l 1,3,-1
 59 764 l 1,0,-1
EndSplineSet
EndChar

StartChar: radical
Encoding: 8730 8730 556
Width: 1124
GlyphClass: 2
Flags: W
LayerCount: 2
Fore
SplineSet
602 -14 m 1,0,-1
 502 -14 l 1,1,-1
 246 788 l 1,2,-1
 37 788 l 1,3,-1
 37 874 l 1,4,-1
 319 874 l 1,5,-1
 557 127 l 1,6,-1
 1090 1657 l 1,7,-1
 1184 1657 l 1,8,-1
 602 -14 l 1,0,-1
EndSplineSet
EndChar

StartChar: infinity
Encoding: 8734 8734 557
Width: 1454
GlyphClass: 2
Flags: W
LayerCount: 2
Fore
SplineSet
1333 715 m 0,0,1
 1333 591 1333 591 1254 501.5 c 128,-1,2
 1175 412 1175 412 1057 412 c 0,3,4
 850 412 850 412 729 657 c 1,5,6
 670 544 670 544 585 481 c 128,-1,7
 500 418 500 418 406 418 c 0,8,9
 279 418 279 418 200 500.5 c 128,-1,10
 121 583 121 583 121 723 c 0,11,12
 121 855 121 855 202.5 940.5 c 128,-1,13
 284 1026 284 1026 406 1026 c 0,14,15
 507 1026 507 1026 582.5 969 c 128,-1,16
 658 912 658 912 723 784 c 1,17,18
 782 894 782 894 869 954 c 128,-1,19
 956 1014 956 1014 1057 1014 c 0,20,21
 1173 1014 1173 1014 1253 930.5 c 128,-1,22
 1333 847 1333 847 1333 715 c 0,0,1
414 504 m 0,23,24
 495 504 495 504 562 555 c 128,-1,25
 629 606 629 606 688 715 c 1,26,27
 572 936 572 936 416 936 c 0,28,29
 319 936 319 936 261 877.5 c 128,-1,30
 203 819 203 819 203 719 c 0,31,32
 203 622 203 622 260 563 c 128,-1,33
 317 504 317 504 414 504 c 0,23,24
1036 928 m 0,34,35
 957 928 957 928 892 881 c 128,-1,36
 827 834 827 834 764 727 c 1,37,38
 884 502 884 502 1038 502 c 0,39,40
 1135 502 1135 502 1193 560 c 128,-1,41
 1251 618 1251 618 1251 717 c 0,42,43
 1251 808 1251 808 1194 868 c 128,-1,44
 1137 928 1137 928 1036 928 c 0,34,35
EndSplineSet
EndChar

StartChar: integral
Encoding: 8747 8747 558
Width: 762
GlyphClass: 2
Flags: W
LayerCount: 2
Fore
SplineSet
440 -102 m 2,0,1
 440 -311 440 -311 390.5 -401.5 c 128,-1,2
 341 -492 341 -492 221 -492 c 0,3,4
 151 -492 151 -492 94 -467 c 1,5,-1
 127 -379 l 1,6,7
 174 -399 174 -399 223 -399 c 0,8,9
 273 -399 273 -399 298 -370 c 128,-1,10
 323 -341 323 -341 334.5 -275.5 c 128,-1,11
 346 -210 346 -210 346 -100 c 2,12,-1
 346 1167 l 2,13,14
 346 1309 346 1309 368 1394 c 128,-1,15
 390 1479 390 1479 435.5 1517.5 c 128,-1,16
 481 1556 481 1556 565 1556 c 0,17,18
 637 1556 637 1556 692 1532 c 1,19,-1
 659 1444 l 1,20,21
 614 1464 614 1464 563 1464 c 0,22,23
 492 1464 492 1464 466 1396.5 c 128,-1,24
 440 1329 440 1329 440 1165 c 2,25,-1
 440 -102 l 2,0,1
EndSplineSet
EndChar

StartChar: notequal
Encoding: 8800 8800 560
Width: 819
GlyphClass: 2
Flags: W
LayerCount: 2
Fore
SplineSet
332 465 m 1,0,-1
 199 178 l 1,1,-1
 133 213 l 1,2,-1
 250 465 l 1,3,-1
 59 465 l 1,4,-1
 59 547 l 1,5,-1
 289 547 l 1,6,-1
 451 895 l 1,7,-1
 59 895 l 1,8,-1
 59 977 l 1,9,-1
 489 977 l 1,10,-1
 623 1262 l 1,11,-1
 692 1227 l 1,12,-1
 573 977 l 1,13,-1
 760 977 l 1,14,-1
 760 895 l 1,15,-1
 535 895 l 1,16,-1
 371 547 l 1,17,-1
 760 547 l 1,18,-1
 760 465 l 1,19,-1
 332 465 l 1,0,-1
EndSplineSet
EndChar

StartChar: lessequal
Encoding: 8804 8804 561
Width: 819
GlyphClass: 2
Flags: W
LayerCount: 2
Fore
SplineSet
762 287 m 1,0,-1
 59 690 l 1,1,-1
 59 758 l 1,2,-1
 762 1157 l 1,3,-1
 762 1057 l 1,4,-1
 162 723 l 1,5,-1
 762 389 l 1,6,-1
 762 287 l 1,0,-1
59 0 m 1,7,-1
 59 82 l 1,8,-1
 762 82 l 1,9,-1
 762 0 l 1,10,-1
 59 0 l 1,7,-1
EndSplineSet
EndChar

StartChar: greaterequal
Encoding: 8805 8805 562
Width: 819
GlyphClass: 2
Flags: W
LayerCount: 2
Fore
SplineSet
57 389 m 1,0,-1
 657 723 l 1,1,-1
 57 1057 l 1,2,-1
 57 1157 l 1,3,-1
 760 758 l 1,4,-1
 760 690 l 1,5,-1
 57 287 l 1,6,-1
 57 389 l 1,0,-1
57 0 m 1,7,-1
 57 82 l 1,8,-1
 760 82 l 1,9,-1
 760 0 l 1,10,-1
 57 0 l 1,7,-1
EndSplineSet
EndChar

StartChar: lozenge
Encoding: 9674 9674 563
Width: 1194
GlyphClass: 2
Flags: W
LayerCount: 2
Fore
SplineSet
121 735 m 1,0,-1
 571 1477 l 1,1,-1
 618 1477 l 1,2,-1
 1073 739 l 1,3,-1
 618 0 l 1,4,-1
 571 0 l 1,5,-1
 121 735 l 1,0,-1
973 737 m 1,6,-1
 598 1356 l 1,7,-1
 223 737 l 1,8,-1
 598 117 l 1,9,-1
 973 737 l 1,6,-1
EndSplineSet
EndChar

StartChar: cyrillicbreve
Encoding: 65555 -1 566
Width: 1182
GlyphClass: 2
Flags: W
LayerCount: 2
Fore
SplineSet
590 1241 m 0,0,1
 468 1241 468 1241 404 1307.5 c 128,-1,2
 340 1374 340 1374 330 1522 c 1,3,-1
 422 1522 l 1,4,5
 433 1409 433 1409 471.5 1362 c 128,-1,6
 510 1315 510 1315 590 1315 c 0,7,8
 674 1315 674 1315 712.5 1365 c 128,-1,9
 751 1415 751 1415 760 1522 c 1,10,-1
 852 1522 l 1,11,12
 835 1241 835 1241 590 1241 c 0,0,1
EndSplineSet
EndChar

StartChar: dotlessj
Encoding: 567 567 567
Width: 385
GlyphClass: 2
Flags: W
LayerCount: 2
Fore
SplineSet
63 -492 m 0,0,1
 21 -492 21 -492 -4 -475 c 1,2,-1
 -4 -385 l 1,3,4
 28 -401 28 -401 59 -401 c 0,5,6
 106 -401 106 -401 125.5 -355.5 c 128,-1,7
 145 -310 145 -310 145 -215 c 2,8,-1
 145 1085 l 1,9,-1
 240 1085 l 1,10,-1
 240 -201 l 2,11,12
 240 -350 240 -350 197 -421 c 128,-1,13
 154 -492 154 -492 63 -492 c 0,0,1
EndSplineSet
EndChar

StartChar: caroncommaaccent
Encoding: 65556 -1 568
Width: 1024
GlyphClass: 2
Flags: W
LayerCount: 2
Fore
SplineSet
422 1249 m 1,0,1
 431 1287 431 1287 447.5 1385.5 c 128,-1,2
 464 1484 464 1484 471 1556 c 1,3,-1
 584 1556 l 1,4,-1
 584 1536 l 1,5,6
 574 1480 574 1480 534.5 1382 c 128,-1,7
 495 1284 495 1284 459 1229 c 1,8,-1
 422 1229 l 1,9,-1
 422 1249 l 1,0,1
EndSplineSet
EndChar

StartChar: commaaccent
Encoding: 65557 -1 569
Width: 1024
GlyphClass: 2
Flags: W
LayerCount: 2
Fore
SplineSet
397 -432 m 1,0,1
 419 -372 419 -372 443 -282 c 128,-1,2
 467 -192 467 -192 473 -125 c 1,3,-1
 584 -125 l 1,4,-1
 584 -145 l 1,5,6
 563 -223 563 -223 521 -310 c 128,-1,7
 479 -397 479 -397 438 -453 c 1,8,-1
 397 -453 l 1,9,-1
 397 -432 l 1,0,1
EndSplineSet
EndChar

StartChar: commaaccentrotate
Encoding: 65558 -1 570
Width: 1024
GlyphClass: 2
Flags: W
LayerCount: 2
Fore
SplineSet
621 1548 m 1,0,1
 597 1512 597 1512 563.5 1412.5 c 128,-1,2
 530 1313 530 1313 522 1241 c 1,3,-1
 416 1241 l 1,4,-1
 416 1262 l 1,5,6
 428 1326 428 1326 476 1423.5 c 128,-1,7
 524 1521 524 1521 578 1569 c 1,8,-1
 621 1569 l 1,9,-1
 621 1548 l 1,0,1
EndSplineSet
EndChar

StartChar: zerosuperior
Encoding: 8304 8304 571
Width: 614
GlyphClass: 2
Flags: W
LayerCount: 2
Fore
SplineSet
156 1028 m 0,0,1
 156 651 156 651 305 651 c 0,2,3
 379 651 379 651 419 745.5 c 128,-1,4
 459 840 459 840 459 1030 c 256,5,6
 459 1220 459 1220 418 1310.5 c 128,-1,7
 377 1401 377 1401 303 1401 c 0,8,9
 228 1401 228 1401 192 1309.5 c 128,-1,10
 156 1218 156 1218 156 1028 c 0,0,1
553 1030 m 0,11,12
 553 801 553 801 489 685 c 128,-1,13
 425 569 425 569 305 569 c 0,14,15
 187 569 187 569 124 689.5 c 128,-1,16
 61 810 61 810 61 1030 c 0,17,18
 61 1483 61 1483 305 1483 c 0,19,20
 424 1483 424 1483 488.5 1366 c 128,-1,21
 553 1249 553 1249 553 1030 c 0,11,12
EndSplineSet
EndChar

StartChar: foursuperior
Encoding: 8308 8308 572
Width: 614
GlyphClass: 2
Flags: W
LayerCount: 2
Fore
SplineSet
573 795 m 1,0,-1
 473 795 l 1,1,-1
 473 586 l 1,2,-1
 387 586 l 1,3,-1
 387 795 l 1,4,-1
 53 795 l 1,5,-1
 53 860 l 1,6,-1
 393 1468 l 1,7,-1
 473 1468 l 1,8,-1
 473 877 l 1,9,-1
 573 877 l 1,10,-1
 573 795 l 1,0,-1
387 877 m 1,11,-1
 387 1159 l 2,12,13
 387 1281 387 1281 391 1329 c 1,14,15
 386 1317 386 1317 349.5 1242 c 128,-1,16
 313 1167 313 1167 154 877 c 1,17,-1
 387 877 l 1,11,-1
EndSplineSet
EndChar

StartChar: fivesuperior
Encoding: 8309 8309 573
Width: 614
GlyphClass: 2
Flags: W
LayerCount: 2
Fore
SplineSet
106 1083 m 1,0,-1
 141 1462 l 1,1,-1
 477 1462 l 1,2,-1
 477 1376 l 1,3,-1
 209 1376 l 1,4,-1
 186 1116 l 1,5,6
 230 1126 230 1126 270 1126 c 0,7,8
 390 1126 390 1126 458 1055.5 c 128,-1,9
 526 985 526 985 526 862 c 0,10,11
 526 724 526 724 457 646.5 c 128,-1,12
 388 569 388 569 264 569 c 0,13,14
 176 569 176 569 92 606 c 1,15,-1
 92 698 l 1,16,17
 170 653 170 653 264 653 c 0,18,19
 434 653 434 653 434 864 c 0,20,21
 434 951 434 951 391 1000 c 128,-1,22
 348 1049 348 1049 272 1049 c 0,23,24
 215 1049 215 1049 154 1030 c 1,25,-1
 106 1083 l 1,0,-1
EndSplineSet
EndChar

StartChar: sixsuperior
Encoding: 8310 8310 574
Width: 614
GlyphClass: 2
Flags: W
LayerCount: 2
Fore
SplineSet
57 942 m 0,0,1
 57 1230 57 1230 135 1356.5 c 128,-1,2
 213 1483 213 1483 371 1483 c 0,3,4
 441 1483 441 1483 479 1466 c 1,5,-1
 479 1380 l 1,6,7
 443 1401 443 1401 356 1401 c 0,8,9
 261 1401 261 1401 206 1307.5 c 128,-1,10
 151 1214 151 1214 143 1030 c 1,11,-1
 152 1030 l 1,12,13
 178 1080 178 1080 224 1112.5 c 128,-1,14
 270 1145 270 1145 322 1145 c 0,15,16
 421 1145 421 1145 479 1069.5 c 128,-1,17
 537 994 537 994 537 864 c 0,18,19
 537 731 537 731 472 650 c 128,-1,20
 407 569 407 569 301 569 c 0,21,22
 189 569 189 569 123 668.5 c 128,-1,23
 57 768 57 768 57 942 c 0,0,1
307 651 m 0,24,25
 372 651 372 651 410.5 708 c 128,-1,26
 449 765 449 765 449 858 c 0,27,28
 449 953 449 953 412 1008 c 128,-1,29
 375 1063 375 1063 309 1063 c 0,30,31
 241 1063 241 1063 194 1009 c 128,-1,32
 147 955 147 955 147 887 c 0,33,34
 147 785 147 785 191.5 718 c 128,-1,35
 236 651 236 651 307 651 c 0,24,25
EndSplineSet
EndChar

StartChar: sevensuperior
Encoding: 8311 8311 575
Width: 614
GlyphClass: 2
Flags: W
LayerCount: 2
Fore
SplineSet
143 586 m 1,0,-1
 424 1376 l 1,1,-1
 61 1376 l 1,2,-1
 61 1462 l 1,3,-1
 518 1462 l 1,4,-1
 518 1393 l 1,5,-1
 233 586 l 1,6,-1
 143 586 l 1,0,-1
EndSplineSet
EndChar

StartChar: eightsuperior
Encoding: 8312 8312 576
Width: 614
GlyphClass: 2
Flags: W
LayerCount: 2
Fore
SplineSet
311 1483 m 0,0,1
 413 1483 413 1483 474 1421 c 128,-1,2
 535 1359 535 1359 535 1257 c 0,3,4
 535 1123 535 1123 379 1053 c 1,5,6
 555 972 555 972 555 817 c 0,7,8
 555 704 555 704 488 636.5 c 128,-1,9
 421 569 421 569 307 569 c 0,10,11
 192 569 192 569 125.5 633 c 128,-1,12
 59 697 59 697 59 811 c 0,13,14
 59 879 59 879 98.5 936.5 c 128,-1,15
 138 994 138 994 227 1044 c 1,16,17
 147 1096 147 1096 116.5 1145 c 128,-1,18
 86 1194 86 1194 86 1253 c 0,19,20
 86 1356 86 1356 149 1419.5 c 128,-1,21
 212 1483 212 1483 311 1483 c 0,0,1
150 811 m 0,22,23
 150 742 150 742 194 696.5 c 128,-1,24
 238 651 238 651 309 651 c 0,25,26
 382 651 382 651 423.5 695 c 128,-1,27
 465 739 465 739 465 811 c 0,28,29
 465 876 465 876 426.5 921.5 c 128,-1,30
 388 967 388 967 299 1010 c 1,31,32
 150 937 150 937 150 811 c 0,22,23
309 1401 m 0,33,34
 252 1401 252 1401 213 1358.5 c 128,-1,35
 174 1316 174 1316 174 1255 c 0,36,37
 174 1206 174 1206 202.5 1167.5 c 128,-1,38
 231 1129 231 1129 313 1087 c 1,39,40
 446 1149 446 1149 446 1257 c 0,41,42
 446 1318 446 1318 407.5 1359.5 c 128,-1,43
 369 1401 369 1401 309 1401 c 0,33,34
EndSplineSet
EndChar

StartChar: ninesuperior
Encoding: 8313 8313 577
Width: 614
GlyphClass: 2
Flags: W
LayerCount: 2
Fore
SplineSet
537 1108 m 0,0,1
 537 821 537 821 459.5 695 c 128,-1,2
 382 569 382 569 223 569 c 0,3,4
 153 569 153 569 115 586 c 1,5,-1
 115 672 l 1,6,7
 151 651 151 651 238 651 c 0,8,9
 332 651 332 651 387 742 c 128,-1,10
 442 833 442 833 451 1020 c 1,11,-1
 442 1020 l 1,12,13
 417 971 417 971 370.5 939 c 128,-1,14
 324 907 324 907 272 907 c 0,15,16
 172 907 172 907 114.5 981.5 c 128,-1,17
 57 1056 57 1056 57 1186 c 256,18,19
 57 1316 57 1316 120.5 1399.5 c 128,-1,20
 184 1483 184 1483 293 1483 c 0,21,22
 406 1483 406 1483 471.5 1381.5 c 128,-1,23
 537 1280 537 1280 537 1108 c 0,0,1
287 1401 m 0,24,25
 224 1401 224 1401 184.5 1344.5 c 128,-1,26
 145 1288 145 1288 145 1192 c 0,27,28
 145 1101 145 1101 180.5 1045 c 128,-1,29
 216 989 216 989 285 989 c 0,30,31
 351 989 351 989 398.5 1040 c 128,-1,32
 446 1091 446 1091 446 1163 c 0,33,34
 446 1263 446 1263 402.5 1332 c 128,-1,35
 359 1401 359 1401 287 1401 c 0,24,25
EndSplineSet
EndChar

StartChar: uniFFFC
Encoding: 65532 65532 591
Width: 2048
GlyphClass: 2
Flags: W
LayerCount: 2
Fore
SplineSet
84 1214 m 1,0,-1
 84 1518 l 1,1,-1
 387 1518 l 1,2,-1
 387 1407 l 1,3,-1
 195 1407 l 1,4,-1
 195 1214 l 1,5,-1
 84 1214 l 1,0,-1
1681 1407 m 1,6,-1
 1681 1518 l 1,7,-1
 1985 1518 l 1,8,-1
 1985 1214 l 1,9,-1
 1876 1214 l 1,10,-1
 1876 1407 l 1,11,-1
 1681 1407 l 1,6,-1
84 -383 m 1,12,-1
 84 -80 l 1,13,-1
 195 -80 l 1,14,-1
 195 -274 l 1,15,-1
 387 -274 l 1,16,-1
 387 -383 l 1,17,-1
 84 -383 l 1,12,-1
1681 -383 m 1,18,-1
 1681 -274 l 1,19,-1
 1876 -274 l 1,20,-1
 1876 -80 l 1,21,-1
 1985 -80 l 1,22,-1
 1985 -383 l 1,23,-1
 1681 -383 l 1,18,-1
1290 -383 m 1,24,-1
 1290 -274 l 1,25,-1
 1563 -274 l 1,26,-1
 1563 -383 l 1,27,-1
 1290 -383 l 1,24,-1
508 -383 m 1,28,-1
 508 -274 l 1,29,-1
 778 -274 l 1,30,-1
 778 -383 l 1,31,-1
 508 -383 l 1,28,-1
508 1407 m 1,32,-1
 508 1518 l 1,33,-1
 778 1518 l 1,34,-1
 778 1407 l 1,35,-1
 508 1407 l 1,32,-1
1985 39 m 1,36,-1
 1876 39 l 1,37,-1
 1876 309 l 1,38,-1
 1985 309 l 1,39,-1
 1985 39 l 1,36,-1
1985 823 m 1,40,-1
 1876 823 l 1,41,-1
 1876 1094 l 1,42,-1
 1985 1094 l 1,43,-1
 1985 823 l 1,40,-1
899 -383 m 1,44,-1
 899 -274 l 1,45,-1
 1171 -274 l 1,46,-1
 1171 -383 l 1,47,-1
 899 -383 l 1,44,-1
195 39 m 1,48,-1
 84 39 l 1,49,-1
 84 309 l 1,50,-1
 195 309 l 1,51,-1
 195 39 l 1,48,-1
899 1407 m 1,52,-1
 899 1518 l 1,53,-1
 1171 1518 l 1,54,-1
 1171 1407 l 1,55,-1
 899 1407 l 1,52,-1
1290 1407 m 1,56,-1
 1290 1518 l 1,57,-1
 1563 1518 l 1,58,-1
 1563 1407 l 1,59,-1
 1290 1407 l 1,56,-1
195 430 m 1,60,-1
 84 430 l 1,61,-1
 84 702 l 1,62,-1
 195 702 l 1,63,-1
 195 430 l 1,60,-1
195 823 m 1,64,-1
 84 823 l 1,65,-1
 84 1094 l 1,66,-1
 195 1094 l 1,67,-1
 195 823 l 1,64,-1
1985 430 m 1,68,-1
 1876 430 l 1,69,-1
 1876 702 l 1,70,-1
 1985 702 l 1,71,-1
 1985 430 l 1,68,-1
864 629 m 0,72,73
 864 484 864 484 796.5 406 c 128,-1,74
 729 328 729 328 602 328 c 256,75,76
 475 328 475 328 407.5 406 c 128,-1,77
 340 484 340 484 340 629 c 0,78,79
 340 775 340 775 407.5 852.5 c 128,-1,80
 475 930 475 930 602 930 c 0,81,82
 728 930 728 930 796 853 c 128,-1,83
 864 776 864 776 864 629 c 0,72,73
467 629 m 0,84,85
 467 432 467 432 602 432 c 256,86,87
 737 432 737 432 737 629 c 0,88,89
 737 825 737 825 602 825 c 256,90,91
 467 825 467 825 467 629 c 0,84,85
948 922 m 1,92,-1
 1120 922 l 2,93,94
 1229 922 1229 922 1285 888.5 c 128,-1,95
 1341 855 1341 855 1341 772 c 0,96,97
 1341 723 1341 723 1318 691 c 128,-1,98
 1295 659 1295 659 1251 651 c 1,99,-1
 1251 643 l 1,100,101
 1310 630 1310 630 1334 596 c 128,-1,102
 1358 562 1358 562 1358 506 c 0,103,104
 1358 425 1358 425 1303.5 380.5 c 128,-1,105
 1249 336 1249 336 1155 336 c 2,106,-1
 948 336 l 1,107,-1
 948 922 l 1,92,-1
1071 690 m 1,108,-1
 1137 690 l 2,109,110
 1183 690 1183 690 1201 707 c 128,-1,111
 1219 724 1219 724 1219 756 c 0,112,113
 1219 790 1219 790 1198 804.5 c 128,-1,114
 1177 819 1177 819 1130 819 c 2,115,-1
 1071 819 l 1,116,-1
 1071 690 l 1,108,-1
1071 592 m 1,117,-1
 1071 438 l 1,118,-1
 1145 438 l 2,119,120
 1194 438 1194 438 1212.5 459.5 c 128,-1,121
 1231 481 1231 481 1231 518 c 0,122,123
 1231 592 1231 592 1141 592 c 2,124,-1
 1071 592 l 1,117,-1
1491 330 m 0,125,126
 1439 330 1439 330 1411 340 c 1,127,-1
 1411 442 l 1,128,129
 1454 434 1454 434 1479 434 c 0,130,131
 1565 434 1565 434 1565 520 c 2,132,-1
 1565 922 l 1,133,-1
 1690 922 l 1,134,-1
 1690 524 l 2,135,136
 1690 429 1690 429 1637.5 379.5 c 128,-1,137
 1585 330 1585 330 1491 330 c 0,125,126
EndSplineSet
EndChar

StartChar: uniFFFD
Encoding: 65533 65533 592
Width: 2048
GlyphClass: 2
Flags: W
LayerCount: 2
Fore
SplineSet
1022 1556 m 1,0,-1
 1962 618 l 1,1,-1
 1022 -319 l 1,2,-1
 84 618 l 1,3,-1
 1022 1556 l 1,0,-1
1087 367 m 1,4,-1
 1087 414 l 2,5,6
 1087 464 1087 464 1109 496.5 c 128,-1,7
 1131 529 1131 529 1196 578 c 0,8,9
 1299 660 1299 660 1335.5 723 c 128,-1,10
 1372 786 1372 786 1372 874 c 0,11,12
 1372 1009 1372 1009 1278.5 1086 c 128,-1,13
 1185 1163 1185 1163 1020 1163 c 0,14,15
 941 1163 941 1163 848 1135 c 128,-1,16
 755 1107 755 1107 684 1065 c 1,17,-1
 766 887 l 1,18,19
 926 967 926 967 1016 967 c 0,20,21
 1079 967 1079 967 1110 938 c 128,-1,22
 1141 909 1141 909 1141 862 c 0,23,24
 1141 809 1141 809 1116.5 771.5 c 128,-1,25
 1092 734 1092 734 1020 680 c 0,26,27
 936 612 936 612 906.5 556 c 128,-1,28
 877 500 877 500 877 426 c 2,29,-1
 877 367 l 1,30,-1
 1087 367 l 1,4,-1
850 92 m 0,31,32
 850 29 850 29 885.5 -7 c 128,-1,33
 921 -43 921 -43 991 -43 c 0,34,35
 1057 -43 1057 -43 1093.5 -6.5 c 128,-1,36
 1130 30 1130 30 1130 92 c 0,37,38
 1130 156 1130 156 1094 192.5 c 128,-1,39
 1058 229 1058 229 991 229 c 0,40,41
 919 229 919 229 884.5 193 c 128,-1,42
 850 157 850 157 850 92 c 0,31,32
EndSplineSet
EndChar

StartChar: uni03D1
Encoding: 977 977 595
Width: 971
GlyphClass: 2
Flags: W
LayerCount: 2
Fore
SplineSet
811 862 m 1,0,-1
 815 758 l 1,1,2
 815 374 815 374 721 177 c 128,-1,3
 627 -20 627 -20 440 -20 c 0,4,5
 307 -20 307 -20 238.5 69 c 128,-1,6
 170 158 170 158 170 330 c 0,7,8
 170 407 170 407 180 522 c 256,9,10
 190 637 190 637 190 688 c 0,11,12
 190 744 190 744 174.5 768.5 c 128,-1,13
 159 793 159 793 125 793 c 0,14,15
 93 793 93 793 47 770 c 1,16,-1
 16 848 l 1,17,18
 39 860 39 860 74.5 869.5 c 128,-1,19
 110 879 110 879 141 879 c 0,20,21
 220 879 220 879 254.5 830.5 c 128,-1,22
 289 782 289 782 289 688 c 2,23,-1
 286 610 l 1,24,25
 268 397 268 397 268 324 c 0,26,27
 268 201 268 201 312 135.5 c 128,-1,28
 356 70 356 70 442 70 c 0,29,30
 581 70 581 70 646 244.5 c 128,-1,31
 711 419 711 419 711 756 c 2,32,-1
 711 812 l 1,33,-1
 709 862 l 1,34,35
 471 865 471 865 342 972.5 c 128,-1,36
 213 1080 213 1080 213 1280 c 0,37,38
 213 1413 213 1413 276 1496 c 128,-1,39
 339 1579 339 1579 451 1579 c 0,40,41
 599 1579 599 1579 686.5 1425 c 128,-1,42
 774 1271 774 1271 807 952 c 1,43,-1
 946 952 l 1,44,-1
 946 862 l 1,45,-1
 811 862 l 1,0,-1
702 952 m 1,46,47
 682 1207 682 1207 619 1348 c 128,-1,48
 556 1489 556 1489 459 1489 c 0,49,50
 387 1489 387 1489 349 1434.5 c 128,-1,51
 311 1380 311 1380 311 1278 c 0,52,53
 311 1122 311 1122 412 1038 c 128,-1,54
 513 954 513 954 702 952 c 1,46,47
EndSplineSet
EndChar

StartChar: uni03D2
Encoding: 978 978 596
Width: 686
GlyphClass: 2
Flags: W
LayerCount: 2
Fore
SplineSet
391 0 m 1,0,-1
 293 0 l 1,1,-1
 293 571 l 1,2,-1
 0 1462 l 1,3,-1
 104 1462 l 1,4,-1
 344 702 l 1,5,6
 437 1107 437 1107 468 1216.5 c 128,-1,7
 499 1326 499 1326 522 1378.5 c 128,-1,8
 545 1431 545 1431 573.5 1453 c 128,-1,9
 602 1475 602 1475 649 1475 c 0,10,11
 672 1475 672 1475 696 1464 c 1,12,-1
 696 1374 l 1,13,14
 678 1380 678 1380 662 1380 c 0,15,16
 632 1380 632 1380 610.5 1343.5 c 128,-1,17
 589 1307 589 1307 561 1217 c 128,-1,18
 533 1127 533 1127 489 960 c 128,-1,19
 445 793 445 793 391 571 c 1,20,-1
 391 0 l 1,0,-1
EndSplineSet
EndChar

